SplineFontDB: 3.0
FontName: Rokkitt-Light
FullName: Rokkitt Light
FamilyName: Rokkitt
Weight: Light
Copyright: 
Version: 2
ItalicAngle: 0
UnderlinePosition: 0
UnderlineWidth: 0
Ascent: 1638
Descent: 410
UFOAscent: 1152
UFODescent: -410
LayerCount: 2
Layer: 0 0 "Back"  1
Layer: 1 0 "Fore"  0
FSType: 0
OS2Version: 0
OS2_WeightWidthSlopeOnly: 0
OS2_UseTypoMetrics: 1
CreationTime: 1390542175
ModificationTime: 1390607055
PfmFamily: 17
TTFWeight: 300
TTFWidth: 5
LineGap: 0
VLineGap: 0
OS2TypoAscent: 0
OS2TypoAOffset: 1
OS2TypoDescent: 0
OS2TypoDOffset: 1
OS2TypoLinegap: 0
OS2WinAscent: 0
OS2WinAOffset: 1
OS2WinDescent: 0
OS2WinDOffset: 1
HheadAscent: 0
HheadAOffset: 1
HheadDescent: 0
HheadDOffset: 1
OS2Vendor: 'NeWT'
Lookup: 4 0 1 "'liga' Standard Ligatures lookup 0"  {"'liga' Standard Ligatures lookup 0-1"  } ['liga' ('DFLT' <'dflt' > 'grek' <'dflt' > 'latn' <'dflt' > ) ]
Lookup: 258 0 0 "'kern' Horizontal Kerning in Latin lookup 0"  {"'kern' Horizontal Kerning in Latin lookup 0 subtable"  } ['kern' ('latn' <'dflt' > ) ]
MarkAttachClasses: 1
DEI: 91125
LangName: 1033 
PickledData: "(dp1
S'com.typemytype.robofont.compileSettings.generateFormat'
p2
I0
sS'com.petr.ptt'
p3
(dp4
S'originals'
p5
(dp6
S'maxp'
p7
(dp8
S'numGlyphs'
p9
I423
sS'tableTag'
p10
S'maxp'
p11
sS'tableVersion'
p12
I20480
ssssS'com.schriftgestaltung.weight'
p13
S'Light'
p14
sS'com.typemytype.robofont.compileSettings.autohint'
p15
I0
sS'GSDimensionPlugin.Dimensions'
p16
(dp17
S'1F09728C-766D-4240-AE17-E499EF32E23D'
p18
(dp19
sS'98C086B7-81AA-4491-8494-0C6A76849168'
p20
(dp21
sS'EFCDB4D9-E20B-4A8D-9DB5-150AD166B0AE'
p22
(dp23
ssS'com.typemytype.robofont.compileSettings.checkOutlines'
p24
I1
sS'com.typemytype.robofont.compileSettings.MacRomanFirst'
p25
I1
sS'com.typemytype.robofont.shouldAddPointsInSplineConversion'
p26
I1
sS'com.typemytype.robofont.compileSettings.decompose'
p27
I1
sS'com.typemytype.robofont.compileSettings.path'
p28

StartChar: A
Encoding: 65 65 0
Width: 1383
VWidth: 0
Flags: HW
PickledData: "(dp1
S'org.robofab.postScriptHintData'
p2
(dp3
sS'com.typemytype.robofont.layerData'
p4
(dp5
S'b'
(dp6
S'name'
p7
S'A'
sS'lib'
p8
(dp9
sS'unicodes'
p10
(tsS'width'
p11
I1383
sS'contours'
p12
(tsS'components'
p13
(tsS'anchors'
p14
(tsss."
LayerCount: 2
Fore
SplineSet
482 529 m 1
 897 529 l 1
 692 1091 l 1
 686 1091 l 1
 482 529 l 1
82 0 m 1
 82 55 l 1
 235 55 l 1
 620 1097 l 1
 478 1097 l 1
 478 1152 l 1
 908 1152 l 1
 908 1097 l 1
 763 1097 l 1
 1150 55 l 1
 1300 55 l 1
 1300 0 l 1
 916 0 l 1
 916 55 l 1
 1067 55 l 1
 913 476 l 1
 465 476 l 1
 312 55 l 1
 462 55 l 1
 462 0 l 1
 82 0 l 1
EndSplineSet
EndChar

StartChar: AE
Encoding: 198 198 1
Width: 2170
VWidth: 0
Flags: HW
PickledData: "(dp1
S'org.robofab.postScriptHintData'
p2
(dp3
sS'com.typemytype.robofont.layerData'
p4
(dp5
S'b'
(dp6
S'name'
p7
S'AE'
p8
sS'lib'
p9
(dp10
sS'unicodes'
p11
(tsS'width'
p12
I2243
sS'contours'
p13
(tsS'components'
p14
(tsS'anchors'
p15
(tsss."
LayerCount: 2
Fore
SplineSet
137 0 m 257
 137 55 l 257
 310 55 l 257
 909 1097 l 257
 772 1097 l 257
 772 1152 l 257
 1791 1152 l 257
 1842 764 l 257
 1777 764 l 257
 1731 1097 l 257
 1073 1097 l 257
 1141 599 l 257
 1567 599 l 257
 1541 765 l 257
 1592 765 l 257
 1654 357 l 257
 1603 357 l 257
 1572 542 l 257
 1146 542 l 257
 1212 55 l 257
 1918 55 l 257
 1872 387 l 257
 1936 387 l 257
 1988 0 l 257
 971 0 l 257
 971 55 l 257
 1132 55 l 257
 1079 432 l 257
 610 432 l 257
 398 55 l 257
 544 55 l 257
 544 0 l 257
 137 0 l 257
639 486 m 257
 1076 486 l 257
 993 1097 l 257
 982 1097 l 257
 639 486 l 257
EndSplineSet
EndChar

StartChar: B
Encoding: 66 66 13
Width: 1279
VWidth: 0
Flags: HW
PickledData: "(dp1
S'org.robofab.postScriptHintData'
p2
(dp3
sS'com.typemytype.robofont.layerData'
p4
(dp5
S'b'
(dp6
S'name'
p7
S'B'
sS'lib'
p8
(dp9
sS'unicodes'
p10
(tsS'width'
p11
I1354
sS'contours'
p12
((dp13
S'points'
p14
((dp15
S'segmentType'
p16
S'line'
p17
sS'x'
I353
sS'smooth'
p18
I0
sS'y'
I1095
s(dp19
g16
S'line'
p20
sS'x'
I740
sg18
I1
sS'y'
I1095
s(dp21
S'y'
I1095
sS'x'
I917
sg18
I0
s(dp22
S'y'
I983
sS'x'
I1004
sg18
I0
s(dp23
g16
S'curve'
p24
sS'x'
I1004
sg18
I1
sS'y'
I868
s(dp25
S'y'
I751
sS'x'
I1004
sg18
I0
s(dp26
S'y'
I634
sS'x'
I928
sg18
I0
s(dp27
g16
S'curve'
p28
sS'x'
I784
sg18
I1
sS'y'
I634
s(dp29
g16
S'line'
p30
sS'x'
I353
sg18
I0
sS'y'
I634
stp31
s(dp32
g14
((dp33
g16
S'line'
p34
sS'x'
I353
sg18
I0
sS'y'
I573
s(dp35
g16
S'line'
p36
sS'x'
I793
sg18
I1
sS'y'
I573
s(dp37
S'y'
I573
sS'x'
I979
sg18
I0
s(dp38
S'y'
I439
sS'x'
I1072
sg18
I0
s(dp39
g16
S'curve'
p40
sS'x'
I1072
sg18
I1
sS'y'
I320
s(dp41
S'y'
I187
sS'x'
I1072
sg18
I0
s(dp42
S'y'
I58
sS'x'
I985
sg18
I0
s(dp43
g16
S'curve'
p44
sS'x'
I807
sg18
I1
sS'y'
I58
s(dp45
g16
S'line'
p46
sS'x'
I353
sg18
I0
sS'y'
I58
stp47
s(dp48
g14
((dp49
g16
S'line'
p50
sS'x'
I807
sg18
I1
sS'y'
I0
s(dp51
S'y'
I0
sS'x'
I1031
sg18
I0
s(dp52
S'y'
I158
sS'x'
I1146
sg18
I0
s(dp53
g16
S'curve'
p54
sS'x'
I1146
sg18
I1
sS'y'
I316
s(dp55
S'y'
I439
sS'x'
I1146
sg18
I0
s(dp56
S'y'
I568
sS'x'
I1074
sg18
I0
s(dp57
g16
S'curve'
p58
sS'x'
I919
sg18
I0
sS'y'
I611
s(dp59
S'y'
I669
sS'x'
I1029
sg18
I0
s(dp60
S'y'
I769
sS'x'
I1079
sg18
I0
s(dp61
g16
S'curve'
p62
sS'x'
I1079
sg18
I1
sS'y'
I870
s(dp63
S'y'
I1012
sS'x'
I1079
sg18
I0
s(dp64
S'y'
I1154
sS'x'
I964
sg18
I0
s(dp65
g16
S'curve'
p66
sS'x'
I740
sg18
I1
sS'y'
I1154
s(dp67
g16
S'line'
p68
sS'x'
I122
sg18
I0
sS'y'
I1154
s(dp69
g16
S'line'
p70
sS'x'
I122
sg18
I0
sS'y'
I1095
s(dp71
g16
S'line'
p72
sS'x'
I278
sg18
I0
sS'y'
I1095
s(dp73
g16
S'line'
p74
sS'x'
I278
sg18
I0
sS'y'
I58
s(dp75
g16
S'line'
p76
sS'x'
I135
sg18
I0
sS'y'
I58
s(dp77
g16
S'line'
p78
sS'x'
I135
sg18
I0
sS'y'
I0
stp79
stp80
sS'components'
p81
(tsS'anchors'
p82
(tsss."
LayerCount: 2
Fore
SplineSet
754 1152 m 2
 979 1152 1101 1058 1101 871 c 0
 1101 734 1035 634 927 610 c 1
 1110 577 1170 448 1170 317 c 0
 1170 137 1053 0 839 0 c 2
 116 0 l 1
 116 55 l 1
 287 55 l 1
 287 1097 l 1
 116 1097 l 1
 116 1152 l 1
 754 1152 l 2
366 1097 m 1
 366 634 l 1
 800 634 l 2
 962 634 1026 733 1026 869 c 0
 1026 1029 929 1097 741 1097 c 0
 616 1097 491 1097 366 1097 c 1
366 578 m 1
 366 55 l 1
 521 55 676 55 831 55 c 0
 995 55 1091 159 1091 319 c 0
 1091 465 1004 578 806 578 c 2
 366 578 l 1
EndSplineSet
EndChar

StartChar: C
Encoding: 67 67 15
Width: 1397
VWidth: 0
Flags: HW
PickledData: "(dp1
S'org.robofab.postScriptHintData'
p2
(dp3
sS'com.typemytype.robofont.layerData'
p4
(dp5
S'b'
(dp6
S'name'
p7
S'C'
sS'lib'
p8
(dp9
sS'unicodes'
p10
(tsS'width'
p11
I1411
sS'contours'
p12
(tsS'components'
p13
(tsS'anchors'
p14
(tsss."
LayerCount: 2
Fore
SplineSet
712 -22 m 0
 419 -22 116 174 116 581 c 0
 116 912 354 1172 712 1172 c 0
 954 1172 1080 1080 1169 930 c 1
 1169 1153 l 1
 1237 1153 l 1
 1237 827 l 1
 1182 814 l 1
 1081 1016 955 1112 715 1112 c 0
 385 1112 195 860 195 580 c 0
 195 220 455 39 715 39 c 0
 894 39 1084 101 1189 298 c 1
 1242 264 l 1
 1126 55 938 -22 712 -22 c 0
EndSplineSet
EndChar

StartChar: D
Encoding: 68 68 22
Width: 1425
VWidth: 0
Flags: HW
PickledData: "(dp1
S'org.robofab.postScriptHintData'
p2
(dp3
sS'com.typemytype.robofont.layerData'
p4
(dp5
S'b'
(dp6
S'name'
p7
S'D'
sS'lib'
p8
(dp9
sS'unicodes'
p10
(tsS'width'
p11
I1434
sS'contours'
p12
(tsS'components'
p13
(tsS'anchors'
p14
(tsss."
LayerCount: 2
Fore
SplineSet
287 55 m 1
 287 1097 l 1
 116 1097 l 1
 116 1152 l 1
 793 1152 l 2
 1143 1152 1304 836 1304 575 c 0
 1304 300 1135 0 797 0 c 2
 116 0 l 1
 116 55 l 1
 287 55 l 1
366 1097 m 1
 366 55 l 1
 785 55 l 2
 1083 55 1225 319 1225 574 c 0
 1225 821 1082 1097 792 1097 c 2
 366 1097 l 1
EndSplineSet
EndChar

StartChar: Delta
Encoding: 266 916 26
Width: 1167
VWidth: 0
Flags: HW
PickledData: "(dp1
S'org.robofab.postScriptHintData'
p2
(dp3
s."
LayerCount: 2
Fore
SplineSet
84 0 m 257
 84 38 l 257
 532 1152 l 257
 605 1152 l 257
 1083 38 l 257
 1083 0 l 257
 84 0 l 257
157 56 m 257
 998 56 l 257
 562 1081 l 257
 157 56 l 257
EndSplineSet
EndChar

StartChar: E
Encoding: 69 69 29
Width: 1217
VWidth: 0
Flags: HW
PickledData: "(dp1
S'org.robofab.postScriptHintData'
p2
(dp3
sS'com.typemytype.robofont.layerData'
p4
(dp5
S'b'
(dp6
S'name'
p7
S'E'
sS'lib'
p8
(dp9
sS'unicodes'
p10
(tsS'width'
p11
I1227
sS'contours'
p12
(tsS'components'
p13
(tsS'anchors'
p14
(tsss."
LayerCount: 2
Fore
SplineSet
1001 822 m 5
 1001 1097 l 5
 366 1097 l 5
 366 618 l 5
 777 618 l 5
 777 782 l 5
 829 782 l 5
 829 387 l 5
 777 387 l 5
 777 561 l 5
 366 561 l 5
 366 55 l 5
 1024 55 l 5
 1024 337 l 5
 1089 337 l 5
 1089 0 l 5
 116 0 l 5
 116 55 l 5
 287 55 l 5
 287 1097 l 5
 116 1097 l 5
 116 1152 l 5
 1066 1152 l 5
 1066 822 l 5
 1001 822 l 5
EndSplineSet
EndChar

StartChar: Eng
Encoding: 273 330 38
Width: 1443
VWidth: 0
Flags: HW
PickledData: "(dp1
S'org.robofab.postScriptHintData'
p2
(dp3
s."
LayerCount: 2
Fore
SplineSet
849 -376 m 257
 851 -321 l 257
 1064 -321 1167 -214 1167 -33 c 258
 1167 234 l 257
 1235 234 l 257
 1235 -20 l 258
 1235 -269 1083 -376 849 -376 c 257
EndSplineSet
Refer: 78 78 N 1 0 0 1 0 0 2
EndChar

StartChar: Euro
Encoding: 276 8364 41
Width: 1395
VWidth: 0
Flags: HW
PickledData: "(dp1
S'org.robofab.postScriptHintData'
p2
(dp3
s."
LayerCount: 2
Fore
SplineSet
-25 436 m 257
 4 486 l 257
 631 486 l 257
 602 436 l 257
 -25 436 l 257
-25 636 m 257
 4 686 l 257
 631 686 l 257
 602 636 l 257
 -25 636 l 257
EndSplineSet
Refer: 15 67 N 1 0 0 1 0 0 2
EndChar

StartChar: F
Encoding: 70 70 42
Width: 1158
VWidth: 0
Flags: HW
PickledData: "(dp1
S'org.robofab.postScriptHintData'
p2
(dp3
sS'com.typemytype.robofont.layerData'
p4
(dp5
S'b'
(dp6
S'name'
p7
S'F'
sS'lib'
p8
(dp9
sS'unicodes'
p10
(tsS'width'
p11
I1177
sS'contours'
p12
((dp13
S'points'
p14
((dp15
S'segmentType'
p16
S'line'
p17
sS'x'
I990
sS'smooth'
p18
I0
sS'y'
I1086
s(dp19
g16
S'line'
p20
sS'x'
I990
sg18
I0
sS'y'
I802
s(dp21
g16
S'line'
p22
sS'x'
I1062
sg18
I0
sS'y'
I802
s(dp23
g16
S'line'
p24
sS'x'
I1062
sg18
I0
sS'y'
I1152
s(dp25
g16
S'line'
p26
sS'x'
I122
sg18
I0
sS'y'
I1152
s(dp27
g16
S'line'
p28
sS'x'
I122
sg18
I0
sS'y'
I1086
s(dp29
g16
S'line'
p30
sS'x'
I286
sg18
I0
sS'y'
I1086
s(dp31
g16
S'line'
p32
sS'x'
I286
sg18
I0
sS'y'
I1039
s(dp33
g16
S'line'
p34
sS'x'
I363
sg18
I0
sS'y'
I1039
s(dp35
g16
S'line'
p36
sS'x'
I363
sg18
I0
sS'y'
I1086
stp37
s(dp38
g14
((dp39
g16
S'line'
p40
sS'x'
I286
sg18
I0
sS'y'
I1039
s(dp41
g16
S'line'
p42
sS'x'
I286
sg18
I0
sS'y'
I677
s(dp43
g16
S'line'
p44
sS'x'
I363
sg18
I0
sS'y'
I677
s(dp45
g16
S'line'
p46
sS'x'
I363
sg18
I0
sS'y'
I1039
stp47
s(dp48
g14
((dp49
g16
S'line'
p50
sS'x'
I286
sg18
I0
sS'y'
I677
s(dp51
g16
S'line'
p52
sS'x'
I286
sg18
I0
sS'y'
I65
s(dp53
g16
S'line'
p54
sS'x'
I122
sg18
I0
sS'y'
I65
s(dp55
g16
S'line'
p56
sS'x'
I122
sg18
I0
sS'y'
I0
s(dp57
g16
S'line'
p58
sS'x'
I552
sg18
I0
sS'y'
I0
s(dp59
g16
S'line'
p60
sS'x'
I552
sg18
I0
sS'y'
I65
s(dp61
g16
S'line'
p62
sS'x'
I363
sg18
I0
sS'y'
I65
s(dp63
g16
S'line'
p64
sS'x'
I363
sg18
I0
sS'y'
I539
s(dp65
g16
S'line'
p66
sS'x'
I824
sg18
I0
sS'y'
I539
s(dp67
g16
S'line'
p68
sS'x'
I824
sg18
I0
sS'y'
I378
s(dp69
g16
S'line'
p70
sS'x'
I886
sg18
I0
sS'y'
I378
s(dp71
g16
S'line'
p72
sS'x'
I886
sg18
I0
sS'y'
I764
s(dp73
g16
S'line'
p74
sS'x'
I824
sg18
I0
sS'y'
I764
s(dp75
g16
S'line'
p76
sS'x'
I824
sg18
I0
sS'y'
I601
s(dp77
g16
S'line'
p78
sS'x'
I363
sg18
I0
sS'y'
I601
s(dp79
g16
S'line'
p80
sS'x'
I363
sg18
I0
sS'y'
I677
stp81
stp82
sS'components'
p83
(tsS'anchors'
p84
(tsss."
LayerCount: 2
Fore
SplineSet
1010 798 m 5
 1010 1097 l 5
 366 1097 l 5
 366 623 l 5
 824 623 l 5
 824 774 l 5
 874 774 l 5
 874 395 l 5
 824 395 l 5
 824 565 l 5
 366 565 l 5
 366 55 l 5
 538 55 l 5
 538 0 l 5
 116 0 l 5
 116 55 l 5
 287 55 l 5
 287 1097 l 5
 116 1097 l 5
 116 1152 l 5
 1072 1152 l 5
 1072 798 l 5
 1010 798 l 5
EndSplineSet
EndChar

StartChar: G
Encoding: 71 71 44
Width: 1396
VWidth: 0
Flags: HW
PickledData: "(dp1
S'org.robofab.postScriptHintData'
p2
(dp3
sS'com.typemytype.robofont.layerData'
p4
(dp5
S'b'
(dp6
S'name'
p7
S'G'
sS'lib'
p8
(dp9
sS'unicodes'
p10
(tsS'width'
p11
I1394
sS'contours'
p12
(tsS'components'
p13
(tsS'anchors'
p14
(tsss."
LayerCount: 2
Fore
SplineSet
714 -21 m 0
 347 -21 113 212 113 584 c 0
 113 947 349 1174 713 1174 c 0
 893 1174 1056 1098 1146 963 c 1
 1146 1153 l 1
 1216 1153 l 1
 1216 835 l 1
 1159 835 l 1
 1082 1014 914 1113 714 1113 c 0
 395 1113 194 910 194 584 c 0
 194 249 396 39 715 39 c 0
 905 40 1181 140 1186 497 c 1
 935 497 l 1
 935 554 l 1
 1263 554 l 1
 1262 80 940 -21 714 -21 c 0
EndSplineSet
EndChar

StartChar: H
Encoding: 72 72 51
Width: 1484
VWidth: 0
Flags: HW
PickledData: "(dp1
S'org.robofab.postScriptHintData'
p2
(dp3
sS'com.typemytype.robofont.layerData'
p4
(dp5
S'b'
(dp6
S'name'
p7
S'H'
sS'lib'
p8
(dp9
sS'unicodes'
p10
(tsS'width'
p11
I1506
sS'contours'
p12
(tsS'components'
p13
(tsS'anchors'
p14
(tsss."
LayerCount: 2
Fore
SplineSet
116 0 m 1
 116 55 l 1
 287 55 l 1
 287 1097 l 1
 116 1097 l 1
 116 1152 l 1
 538 1152 l 1
 538 1097 l 1
 366 1097 l 1
 366 613 l 1
 1116 613 l 1
 1116 1097 l 1
 945 1097 l 1
 945 1152 l 1
 1367 1152 l 1
 1367 1097 l 1
 1195 1097 l 1
 1195 55 l 1
 1367 55 l 1
 1367 0 l 1
 945 0 l 1
 945 55 l 1
 1116 55 l 1
 1116 555 l 1
 366 555 l 1
 366 55 l 1
 538 55 l 1
 538 0 l 1
 116 0 l 1
EndSplineSet
EndChar

StartChar: Hbar
Encoding: 282 294 52
Width: 1456
VWidth: 0
Flags: HW
PickledData: "(dp1
S'org.robofab.postScriptHintData'
p2
(dp3
sS'com.typemytype.robofont.layerData'
p4
(dp5
S'b'
(dp6
S'name'
p7
S'Hbar'
p8
sS'lib'
p9
(dp10
sS'unicodes'
p11
(tsS'width'
p12
I1471
sS'contours'
p13
(tsS'components'
p14
(tsS'anchors'
p15
(tsss."
LayerCount: 2
Fore
SplineSet
143 829 m 257
 143 881 l 257
 1317 881 l 257
 1317 829 l 257
 143 829 l 257
EndSplineSet
Refer: 51 72 N 1 0 0 1 0 0 2
EndChar

StartChar: I
Encoding: 73 73 54
Width: 645
VWidth: 0
Flags: HW
PickledData: "(dp1
S'org.robofab.postScriptHintData'
p2
(dp3
sS'com.typemytype.robofont.layerData'
p4
(dp5
S'b'
(dp6
S'name'
p7
S'I'
sS'lib'
p8
(dp9
sS'unicodes'
p10
(tsS'width'
p11
I626
sS'contours'
p12
(tsS'components'
p13
(tsS'anchors'
p14
(tsss."
LayerCount: 2
Fore
SplineSet
111 0 m 1
 111 55 l 1
 282 55 l 1
 282 1097 l 1
 111 1097 l 1
 111 1152 l 1
 533 1152 l 1
 533 1097 l 1
 361 1097 l 1
 361 55 l 1
 533 55 l 1
 533 0 l 1
 111 0 l 1
EndSplineSet
EndChar

StartChar: J
Encoding: 74 74 65
Width: 584
VWidth: 0
Flags: HW
PickledData: "(dp1
S'org.robofab.postScriptHintData'
p2
(dp3
sS'com.typemytype.robofont.layerData'
p4
(dp5
S'b'
(dp6
S'name'
p7
S'J'
sS'lib'
p8
(dp9
sS'unicodes'
p10
(tsS'width'
p11
I551
sS'contours'
p12
(tsS'components'
p13
(tsS'anchors'
p14
(tsss."
LayerCount: 2
Fore
SplineSet
96 -91 m 1
 96 -29 l 1
 218 -29 l 2
 302 -29 315 24 315 147 c 2
 315 1097 l 1
 178 1097 l 1
 178 1152 l 1
 523 1152 l 1
 523 1097 l 1
 394 1097 l 1
 394 139 l 2
 394 -48 339 -90 214 -91 c 1
 96 -91 l 1
EndSplineSet
EndChar

StartChar: K
Encoding: 75 75 67
Width: 1302
VWidth: 0
Flags: HW
PickledData: "(dp1
S'org.robofab.postScriptHintData'
p2
(dp3
sS'com.typemytype.robofont.guides'
p4
((dp5
S'y'
I593
sS'x'
I467
sS'magnetic'
p6
I5
sS'angle'
p7
I0
sS'isGlobal'
p8
I0
stp9
sS'com.typemytype.robofont.layerData'
p10
(dp11
S'b'
(dp12
S'name'
p13
S'K'
sS'lib'
p14
(dp15
sS'unicodes'
p16
(tsS'width'
p17
I1304
sS'contours'
p18
(tsS'components'
p19
(tsS'anchors'
p20
(tsss."
LayerCount: 2
Fore
SplineSet
813 0 m 1
 813 55 l 1
 964 55 l 1
 366 576 l 1
 366 55 l 1
 538 55 l 1
 538 0 l 1
 116 0 l 1
 116 55 l 1
 287 55 l 1
 287 1097 l 1
 116 1097 l 1
 116 1152 l 1
 538 1152 l 1
 538 1097 l 1
 366 1097 l 1
 366 594 l 1
 934 1097 l 1
 782 1097 l 1
 782 1152 l 1
 1193 1152 l 1
 1193 1097 l 1
 1025 1097 l 1
 456 586 l 1
 1061 55 l 1
 1222 55 l 1
 1222 0 l 1
 813 0 l 1
EndSplineSet
EndChar

StartChar: L
Encoding: 76 76 69
Width: 1061
VWidth: 0
Flags: HW
PickledData: "(dp1
S'org.robofab.postScriptHintData'
p2
(dp3
sS'com.typemytype.robofont.layerData'
p4
(dp5
S'b'
(dp6
S'name'
p7
S'L'
sS'lib'
p8
(dp9
sS'unicodes'
p10
(tsS'width'
p11
I1055
sS'contours'
p12
(tsS'components'
p13
(tsS'anchors'
p14
(tsss."
AnchorPoint: "caron.alt" 555 804 basechar 0
LayerCount: 2
Fore
SplineSet
366 55 m 5
 943 55 l 5
 943 388 l 5
 1008 388 l 5
 1008 0 l 5
 116 0 l 5
 116 55 l 5
 287 55 l 5
 287 1097 l 5
 116 1097 l 5
 116 1152 l 5
 538 1152 l 5
 538 1097 l 5
 366 1097 l 5
 366 55 l 5
EndSplineSet
EndChar

StartChar: Lslash
Encoding: 297 321 75
Width: 1232
VWidth: 0
Flags: HW
PickledData: "(dp1
S'org.robofab.postScriptHintData'
p2
(dp3
sS'com.typemytype.robofont.layerData'
p4
(dp5
S'b'
(dp6
S'name'
p7
S'Lslash'
p8
sS'lib'
p9
(dp10
sS'unicodes'
p11
(tsS'width'
p12
I1243
sS'contours'
p13
(tsS'components'
p14
(tsS'anchors'
p15
(tsss."
LayerCount: 2
Fore
SplineSet
125 427 m 257
 125 490 l 257
 556 759 l 257
 556 691 l 257
 125 427 l 257
EndSplineSet
Refer: 69 76 N 1 0 0 1 0 0 2
EndChar

StartChar: M
Encoding: 77 77 76
Width: 1629
VWidth: 0
Flags: HW
PickledData: "(dp1
S'org.robofab.postScriptHintData'
p2
(dp3
sS'com.typemytype.robofont.layerData'
p4
(dp5
S'b'
(dp6
S'name'
p7
S'M'
sS'lib'
p8
(dp9
sS'unicodes'
p10
(tsS'width'
p11
I1606
sS'contours'
p12
(tsS'components'
p13
(tsS'anchors'
p14
(tsss."
LayerCount: 2
Fore
SplineSet
128 0 m 1
 128 55 l 1
 282 55 l 1
 282 1097 l 1
 128 1097 l 1
 128 1152 l 1
 380 1152 l 1
 828 234 l 1
 1251 1152 l 1
 1507 1152 l 1
 1507 1097 l 1
 1353 1097 l 1
 1353 55 l 1
 1507 55 l 1
 1507 0 l 1
 1121 0 l 1
 1121 55 l 1
 1276 55 l 1
 1276 1046 l 1
 832 92 l 1
 814 92 l 1
 349 1046 l 1
 349 55 l 1
 503 55 l 1
 503 0 l 1
 128 0 l 1
EndSplineSet
EndChar

StartChar: N
Encoding: 78 78 78
Width: 1443
VWidth: 0
Flags: HW
PickledData: "(dp1
S'org.robofab.postScriptHintData'
p2
(dp3
sS'com.typemytype.robofont.layerData'
p4
(dp5
S'b'
(dp6
S'name'
p7
S'N'
sS'lib'
p8
(dp9
sS'unicodes'
p10
(tsS'width'
p11
I1444
sS'contours'
p12
(tsS'components'
p13
(tsS'anchors'
p14
(tsss."
LayerCount: 2
Fore
SplineSet
124 0 m 1
 124 55 l 1
 273 55 l 1
 273 1097 l 1
 124 1097 l 1
 124 1152 l 1
 353 1152 l 1
 1167 108 l 1
 1167 1097 l 1
 1012 1097 l 1
 1012 1152 l 1
 1369 1152 l 1
 1369 1097 l 1
 1235 1097 l 1
 1235 0 l 1
 1157 0 l 1
 341 1047 l 1
 341 55 l 1
 494 55 l 1
 494 0 l 1
 124 0 l 1
EndSplineSet
EndChar

StartChar: O
Encoding: 79 79 84
Width: 1455
VWidth: 0
Flags: HW
PickledData: "(dp1
S'org.robofab.postScriptHintData'
p2
(dp3
sS'com.typemytype.robofont.layerData'
p4
(dp5
S'b'
(dp6
S'name'
p7
S'O'
sS'lib'
p8
(dp9
sS'unicodes'
p10
(tsS'width'
p11
I1456
sS'contours'
p12
(tsS'components'
p13
(tsS'anchors'
p14
(tsss."
LayerCount: 2
Fore
SplineSet
727 -22 m 0
 726 -22 726 -22 725 -22 c 0
 319 -22 120 279 120 572 c 0
 120 865 323 1174 727 1174 c 0
 1133 1174 1334 864 1334 572 c 0
 1334 278 1135 -22 727 -22 c 0
727 39 m 0
 1078 39 1253 313 1253 572 c 0
 1253 831 1078 1114 727 1114 c 0
 372 1114 201 831 201 572 c 0
 201 305 369 39 727 39 c 0
EndSplineSet
EndChar

StartChar: OE
Encoding: 302 338 85
Width: 1972
VWidth: 0
Flags: HW
PickledData: "(dp1
S'org.robofab.postScriptHintData'
p2
(dp3
sS'com.typemytype.robofont.layerData'
p4
(dp5
S'b'
(dp6
S'name'
p7
S'OE'
p8
sS'lib'
p9
(dp10
sS'unicodes'
p11
(tsS'width'
p12
I1953
sS'contours'
p13
(tsS'components'
p14
(tsS'anchors'
p15
(tsss."
LayerCount: 2
Fore
SplineSet
787 0 m 258
 382 0 136 215 135 573 c 256
 136 935 382 1152 786 1152 c 258
 1815 1152 l 257
 1815 789 l 257
 1749 789 l 257
 1749 1093 l 257
 1093 1093 l 257
 1093 598 l 257
 1545 598 l 257
 1545 763 l 257
 1598 763 l 257
 1598 358 l 257
 1545 358 l 257
 1545 539 l 257
 1092 539 l 257
 1092 59 l 257
 1774 59 l 257
 1774 384 l 257
 1839 384 l 257
 1839 0 l 257
 787 0 l 258
790 59 m 258
 1014 59 l 257
 1014 1093 l 257
 790 1093 l 258
 439 1093 216 900 216 572 c 256
 216 254 435 59 790 59 c 258
EndSplineSet
EndChar

StartChar: Omega
Encoding: 306 937 93
Width: 1426
VWidth: 0
Flags: HW
PickledData: "(dp1
S'org.robofab.postScriptHintData'
p2
(dp3
s."
LayerCount: 2
Fore
SplineSet
173 0 m 257
 173 55 l 257
 487 55 l 257
 265 187 158 416 158 627 c 256
 158 911 351 1174 713 1174 c 256
 1075 1174 1268 911 1268 627 c 256
 1268 416 1161 187 939 55 c 257
 1253 55 l 257
 1253 0 l 257
 860 0 l 257
 860 57 l 257
 1082 187 1190 421 1190 631 c 256
 1190 885 1030 1113 713 1113 c 256
 395 1113 236 885 236 631 c 256
 236 421 344 187 566 57 c 257
 566 0 l 257
 173 0 l 257
EndSplineSet
EndChar

StartChar: Oslash
Encoding: 216 216 94
Width: 1568
VWidth: 0
Flags: HW
PickledData: "(dp1
S'org.robofab.postScriptHintData'
p2
(dp3
sS'com.typemytype.robofont.layerData'
p4
(dp5
S'b'
(dp6
S'name'
p7
S'Oslash'
p8
sS'lib'
p9
(dp10
sS'unicodes'
p11
(tsS'width'
p12
I1598
sS'contours'
p13
(tsS'components'
p14
(tsS'anchors'
p15
(tsss."
LayerCount: 2
Fore
SplineSet
273 -72 m 257
 232 -42 l 257
 1207 1215 l 257
 1246 1186 l 257
 273 -72 l 257
EndSplineSet
Refer: 84 79 N 1 0 0 1 6 -8 2
EndChar

StartChar: P
Encoding: 80 80 97
Width: 1205
VWidth: 0
Flags: HW
PickledData: "(dp1
S'org.robofab.postScriptHintData'
p2
(dp3
sS'com.typemytype.robofont.layerData'
p4
(dp5
S'b'
(dp6
S'name'
p7
S'P'
sS'lib'
p8
(dp9
sS'unicodes'
p10
(tsS'width'
p11
I1226
sS'contours'
p12
((dp13
S'points'
p14
((dp15
S'segmentType'
p16
S'line'
p17
sS'x'
I353
sS'smooth'
p18
I0
sS'y'
I1095
s(dp19
g16
S'line'
p20
sS'x'
I759
sg18
I1
sS'y'
I1095
s(dp21
S'y'
I1095
sS'x'
I936
sg18
I0
s(dp22
S'y'
I960
sS'x'
I1024
sg18
I0
s(dp23
g16
S'curve'
p24
sS'x'
I1024
sg18
I1
sS'y'
I823
s(dp25
S'y'
I683
sS'x'
I1024
sg18
I0
s(dp26
S'y'
I544
sS'x'
I934
sg18
I0
s(dp27
g16
S'curve'
p28
sS'x'
I759
sg18
I1
sS'y'
I544
s(dp29
g16
S'line'
p30
sS'x'
I353
sg18
I0
sS'y'
I544
stp31
s(dp32
g14
((dp33
g16
S'line'
p34
sS'x'
I135
sg18
I0
sS'y'
I0
s(dp35
g16
S'line'
p36
sS'x'
I512
sg18
I0
sS'y'
I0
s(dp37
g16
S'line'
p38
sS'x'
I512
sg18
I0
sS'y'
I58
s(dp39
g16
S'line'
p40
sS'x'
I353
sg18
I0
sS'y'
I58
s(dp41
g16
S'line'
p42
sS'x'
I353
sg18
I0
sS'y'
I483
s(dp43
g16
S'line'
p44
sS'x'
I759
sg18
I1
sS'y'
I483
s(dp45
S'y'
I483
sS'x'
I984
sg18
I0
s(dp46
S'y'
I656
sS'x'
I1098
sg18
I0
s(dp47
g16
S'curve'
p48
sS'x'
I1098
sg18
I1
sS'y'
I826
s(dp49
S'y'
I989
sS'x'
I1098
sg18
I0
s(dp50
S'y'
I1154
sS'x'
I984
sg18
I0
s(dp51
g16
S'curve'
p52
sS'x'
I759
sg18
I1
sS'y'
I1154
s(dp53
g16
S'line'
p54
sS'x'
I122
sg18
I0
sS'y'
I1154
s(dp55
g16
S'line'
p56
sS'x'
I122
sg18
I0
sS'y'
I1095
s(dp57
g16
S'line'
p58
sS'x'
I278
sg18
I0
sS'y'
I1095
s(dp59
g16
S'line'
p60
sS'x'
I278
sg18
I0
sS'y'
I58
s(dp61
g16
S'line'
p62
sS'x'
I135
sg18
I0
sS'y'
I58
stp63
stp64
sS'components'
p65
(tsS'anchors'
p66
(tsss."
LayerCount: 2
Fore
SplineSet
459 493 m 1
 459 549 l 1
 729 549 l 2
 898 549 996 656 996 841 c 0
 996 1003 898 1097 729 1097 c 6
 366 1097 l 5
 366 55 l 1
 538 55 l 1
 538 0 l 1
 116 0 l 1
 116 55 l 1
 287 55 l 1
 287 1097 l 5
 116 1097 l 5
 116 1152 l 5
 724 1152 l 6
 949 1152 1077 1040 1077 844 c 0
 1077 622 950 493 730 493 c 2
 459 493 l 1
EndSplineSet
EndChar

StartChar: Q
Encoding: 81 81 99
Width: 1440
VWidth: 0
Flags: HW
PickledData: "(dp1
S'org.robofab.postScriptHintData'
p2
(dp3
sS'com.typemytype.robofont.layerData'
p4
(dp5
S'b'
(dp6
S'name'
p7
S'Q'
sS'lib'
p8
(dp9
sS'unicodes'
p10
(tsS'width'
p11
I1438
sS'contours'
p12
(tsS'components'
p13
(tsS'anchors'
p14
(tsss."
LayerCount: 2
Fore
SplineSet
1166 -198 m 257
 1119 -213 1077 -220 1040 -220 c 0
 904 -220 819 -129 680 7 c 257
 756 7 l 257
 866 -92 929 -166 1043 -166 c 0
 1076 -166 1113 -159 1157 -146 c 257
 1166 -198 l 257
EndSplineSet
Refer: 84 79 N 1 0 0 1 0 0 2
EndChar

StartChar: R
Encoding: 82 82 100
Width: 1288
VWidth: 0
Flags: HW
PickledData: "(dp1
S'org.robofab.postScriptHintData'
p2
(dp3
sS'com.typemytype.robofont.layerData'
p4
(dp5
S'b'
(dp6
S'name'
p7
S'R'
sS'lib'
p8
(dp9
sS'unicodes'
p10
(tsS'width'
p11
I1296
sS'contours'
p12
((dp13
S'points'
p14
((dp15
S'segmentType'
p16
S'line'
p17
sS'x'
I135
sS'smooth'
p18
I0
sS'y'
I0
s(dp19
g16
S'line'
p20
sS'x'
I512
sg18
I0
sS'y'
I0
s(dp21
g16
S'line'
p22
sS'x'
I512
sg18
I0
sS'y'
I58
s(dp23
g16
S'line'
p24
sS'x'
I353
sg18
I0
sS'y'
I58
s(dp25
g16
S'line'
p26
sS'x'
I353
sg18
I0
sS'y'
I539
s(dp27
g16
S'line'
p28
sS'x'
I641
sg18
I0
sS'y'
I539
s(dp29
g16
S'line'
p30
sS'x'
I961
sg18
I0
sS'y'
I0
s(dp31
g16
S'line'
p32
sS'x'
I1178
sg18
I0
sS'y'
I0
s(dp33
g16
S'line'
p34
sS'x'
I1178
sg18
I0
sS'y'
I58
s(dp35
g16
S'line'
p36
sS'x'
I1015
sg18
I0
sS'y'
I58
s(dp37
g16
S'line'
p38
sS'x'
I721
sg18
I0
sS'y'
I539
s(dp39
S'y'
I539
sS'x'
I945
sg18
I0
s(dp40
S'y'
I696
sS'x'
I1059
sg18
I0
s(dp41
g16
S'curve'
p42
sS'x'
I1059
sg18
I1
sS'y'
I848
s(dp43
S'y'
I1000
sS'x'
I1059
sg18
I0
s(dp44
S'y'
I1154
sS'x'
I945
sg18
I0
s(dp45
g16
S'curve'
p46
sS'x'
I721
sg18
I1
sS'y'
I1154
s(dp47
g16
S'line'
p48
sS'x'
I122
sg18
I0
sS'y'
I1154
s(dp49
g16
S'line'
p50
sS'x'
I122
sg18
I0
sS'y'
I1095
s(dp51
g16
S'line'
p52
sS'x'
I278
sg18
I0
sS'y'
I1095
s(dp53
g16
S'line'
p54
sS'x'
I278
sg18
I0
sS'y'
I58
s(dp55
g16
S'line'
p56
sS'x'
I135
sg18
I0
sS'y'
I58
stp57
s(dp58
g14
((dp59
g16
S'line'
p60
sS'x'
I353
sg18
I0
sS'y'
I1095
s(dp61
g16
S'line'
p62
sS'x'
I721
sg18
I1
sS'y'
I1095
s(dp63
S'y'
I1095
sS'x'
I898
sg18
I0
s(dp64
S'y'
I971
sS'x'
I985
sg18
I0
s(dp65
g16
S'curve'
p66
sS'x'
I985
sg18
I1
sS'y'
I845
s(dp67
S'y'
I723
sS'x'
I985
sg18
I0
s(dp68
S'y'
I600
sS'x'
I896
sg18
I0
s(dp69
g16
S'curve'
p70
sS'x'
I721
sg18
I1
sS'y'
I600
s(dp71
g16
S'line'
p72
sS'x'
I353
sg18
I0
sS'y'
I600
stp73
stp74
sS'components'
p75
(tsS'anchors'
p76
(tsss."
LayerCount: 2
Fore
SplineSet
980 0 m 1
 649 536 l 1
 433 536 l 1
 433 592 l 1
 690 592 l 2
 944 592 1000 733 1000 846 c 0
 1000 968 935 1097 742 1097 c 2
 366 1097 l 1
 366 55 l 1
 538 55 l 1
 538 0 l 1
 116 0 l 1
 116 55 l 1
 287 55 l 1
 287 1097 l 1
 116 1097 l 1
 116 1152 l 1
 738 1152 l 2
 976 1152 1078 1006 1078 847 c 0
 1078 697 995 550 731 541 c 1
 1033 55 l 1
 1203 55 l 1
 1203 0 l 1
 980 0 l 1
EndSplineSet
EndChar

StartChar: S
Encoding: 83 83 104
Width: 1122
VWidth: 0
Flags: HW
PickledData: "(dp1
S'org.robofab.postScriptHintData'
p2
(dp3
sS'com.typemytype.robofont.layerData'
p4
(dp5
S'b'
(dp6
S'name'
p7
S'S'
sS'lib'
p8
(dp9
sS'unicodes'
p10
(tsS'width'
p11
I1143
sS'contours'
p12
((dp13
S'points'
p14
((dp15
S'segmentType'
p16
S'curve'
p17
sS'x'
I636
sS'smooth'
p18
I1
sS'y'
S'-23'
p19
s(dp20
S'y'
S'-23'
p21
sS'x'
I930
sg18
I0
s(dp22
S'y'
I171
sS'x'
I1026
sg18
I0
s(dp23
g16
S'curve'
p24
sS'x'
I1026
sg18
I1
sS'y'
I295
s(dp25
S'y'
I543
sS'x'
I1026
sg18
I0
s(dp26
S'y'
I599
sS'x'
I829
sg18
I0
s(dp27
g16
S'curve'
p28
sS'x'
I606
sg18
I1
sS'y'
I622
s(dp29
S'y'
I643
sS'x'
I405
sg18
I0
s(dp30
S'y'
I667
sS'x'
I269
sg18
I0
s(dp31
g16
S'curve'
p32
sS'x'
I269
sg18
I1
sS'y'
I851
s(dp33
S'y'
I998
sS'x'
I269
sg18
I0
s(dp34
S'y'
I1104
sS'x'
I360
sg18
I0
s(dp35
g16
S'curve'
p36
sS'x'
I573
sg18
I1
sS'y'
I1104
s(dp37
S'y'
I1104
sS'x'
I719
sg18
I0
s(dp38
S'y'
I1024
sS'x'
I885
sg18
I0
s(dp39
g16
S'curve'
p40
sS'x'
I885
sg18
I1
sS'y'
I941
s(dp41
g16
S'line'
p42
sS'x'
I885
sg18
I0
sS'y'
I839
s(dp43
g16
S'line'
p44
sS'x'
I959
sg18
I0
sS'y'
I839
s(dp45
g16
S'line'
p46
sS'x'
I959
sg18
I0
sS'y'
I1152
s(dp47
g16
S'line'
p48
sS'x'
I885
sg18
I0
sS'y'
I1152
s(dp49
g16
S'line'
p50
sS'x'
I885
sg18
I0
sS'y'
I1049
s(dp51
S'y'
I1131
sS'x'
I828
sg18
I0
s(dp52
S'y'
I1172
sS'x'
I673
sg18
I0
s(dp53
g16
S'curve'
p54
sS'x'
I561
sg18
I1
sS'y'
I1172
s(dp55
S'y'
I1172
sS'x'
I360
sg18
I0
s(dp56
S'y'
I1066
sS'x'
I184
sg18
I0
s(dp57
g16
S'curve'
p58
sS'x'
I184
sg18
I1
sS'y'
I863
s(dp59
S'y'
I635
sS'x'
I184
sg18
I0
s(dp60
S'y'
I579
sS'x'
I332
sg18
I0
s(dp61
g16
S'curve'
p62
sS'x'
I584
sg18
I1
sS'y'
I553
s(dp63
S'y'
I531
sS'x'
I805
sg18
I0
s(dp64
S'y'
I488
sS'x'
I942
sg18
I0
s(dp65
g16
S'curve'
p66
sS'x'
I942
sg18
I1
sS'y'
I300
s(dp67
S'y'
I169
sS'x'
I942
sg18
I0
s(dp68
S'y'
I47
sS'x'
I831
sg18
I0
s(dp69
g16
S'curve'
p70
sS'x'
I644
sg18
I1
sS'y'
I47
s(dp71
S'y'
I47
sS'x'
I448
sg18
I0
s(dp72
S'y'
I118
sS'x'
I261
sg18
I0
s(dp73
g16
S'curve'
p74
sS'x'
I261
sg18
I1
sS'y'
I247
s(dp75
g16
S'line'
p76
sS'x'
I261
sg18
I0
sS'y'
I387
s(dp77
g16
S'line'
p78
sS'x'
I187
sg18
I0
sS'y'
I387
s(dp79
g16
S'line'
p80
sS'x'
I187
sg18
I0
sS'y'
S'-1'
p81
s(dp82
g16
S'line'
p83
sS'x'
I261
sg18
I0
sS'y'
S'-1'
p84
s(dp85
g16
S'line'
p86
sS'x'
I261
sg18
I0
sS'y'
I122
s(dp87
S'y'
I22
sS'x'
I335
sg18
I0
s(dp88
S'y'
S'-23'
p89
sS'x'
I496
sg18
I0
stp90
stp91
sS'components'
p92
(tsS'anchors'
p93
(tsss."
LayerCount: 2
Fore
SplineSet
630 -21 m 0
 442 -21 297 24 240 141 c 1
 240 -1 l 1
 171 -1 l 1
 171 388 l 1
 240 388 l 1
 240 238 l 1
 281 105 403 38 629 38 c 0
 864 38 944 168 944 302 c 0
 944 495 809 530 593 550 c 0
 382 570 168 603 168 859 c 0
 168 1073 341 1174 558 1174 c 0
 670 1174 830 1130 883 1046 c 1
 883 1153 l 1
 952 1153 l 1
 952 842 l 1
 883 842 l 1
 883 951 l 1
 872 1034 746 1115 565 1115 c 0
 337 1115 241 1001 241 858 c 0
 241 662 407 637 605 615 c 0
 826 591 1020 565 1020 297 c 0
 1020 179 947 -21 630 -21 c 0
EndSplineSet
EndChar

StartChar: Sigma
Encoding: 317 931 112
Width: 865
VWidth: 0
Flags: HW
PickledData: "(dp1
S'org.robofab.postScriptHintData'
p2
(dp3
s."
LayerCount: 2
Fore
SplineSet
111 0 m 257
 111 45 l 257
 538 569 l 257
 128 1110 l 257
 128 1152 l 257
 798 1152 l 257
 798 1094 l 257
 227 1094 l 257
 632 569 l 257
 212 59 l 257
 832 59 l 257
 832 0 l 257
 111 0 l 257
EndSplineSet
EndChar

StartChar: T
Encoding: 84 84 113
Width: 1146
VWidth: 0
Flags: HW
PickledData: "(dp1
S'org.robofab.postScriptHintData'
p2
(dp3
sS'com.typemytype.robofont.layerData'
p4
(dp5
S'b'
(dp6
S'name'
p7
S'T'
sS'lib'
p8
(dp9
sS'unicodes'
p10
(tsS'width'
p11
I1147
sS'contours'
p12
(tsS'components'
p13
(tsS'anchors'
p14
(tsss."
LayerCount: 2
Fore
SplineSet
52 770 m 5
 52 1152 l 5
 1096 1152 l 5
 1096 770 l 5
 1028 770 l 5
 1028 1097 l 5
 607 1097 l 5
 607 55 l 5
 779 55 l 5
 779 0 l 5
 357 0 l 5
 357 55 l 5
 528 55 l 5
 528 1097 l 5
 116 1097 l 5
 116 770 l 5
 52 770 l 5
EndSplineSet
EndChar

StartChar: Thorn
Encoding: 321 222 118
Width: 1198
VWidth: 0
Flags: HW
PickledData: "(dp1
S'org.robofab.postScriptHintData'
p2
(dp3
sS'com.typemytype.robofont.layerData'
p4
(dp5
S'b'
(dp6
S'name'
p7
S'Thorn'
p8
sS'lib'
p9
(dp10
sS'unicodes'
p11
(tsS'width'
p12
I1226
sS'contours'
p13
(tsS'components'
p14
(tsS'anchors'
p15
(tsss."
LayerCount: 2
Fore
SplineSet
116 0 m 257
 116 55 l 257
 287 55 l 257
 287 1097 l 257
 116 1097 l 257
 116 1152 l 257
 538 1152 l 257
 538 1097 l 257
 366 1097 l 257
 366 55 l 257
 538 55 l 257
 538 0 l 257
 116 0 l 257
460 338 m 257
 461 390 l 257
 726 390 l 258
 886 390 979 483 979 646 c 256
 978 780 880 859 715 859 c 258
 326 859 l 257
 326 914 l 257
 716 914 l 258
 931 914 1056 814 1056 646 c 256
 1056 451 934 338 725 338 c 258
 460 338 l 257
EndSplineSet
EndChar

StartChar: U
Encoding: 85 85 119
Width: 1473
VWidth: 0
Flags: HW
PickledData: "(dp1
S'org.robofab.postScriptHintData'
p2
(dp3
sS'com.typemytype.robofont.layerData'
p4
(dp5
S'b'
(dp6
S'name'
p7
S'U'
sS'lib'
p8
(dp9
sS'unicodes'
p10
(tsS'width'
p11
I1514
sS'contours'
p12
(tsS'components'
p13
(tsS'anchors'
p14
(tsss."
LayerCount: 2
Fore
SplineSet
730 -21 m 0
 422 -21 233 145 233 382 c 2
 233 1097 l 1
 80 1097 l 1
 80 1152 l 1
 465 1152 l 1
 465 1097 l 1
 313 1097 l 1
 313 379 l 2
 313 175 479 39 731 39 c 0
 999 39 1180 173 1180 377 c 2
 1180 1097 l 1
 1029 1097 l 1
 1029 1152 l 1
 1410 1152 l 1
 1410 1097 l 1
 1252 1097 l 1
 1252 378 l 2
 1252 131 1036 -21 730 -21 c 0
EndSplineSet
EndChar

StartChar: V
Encoding: 86 86 130
Width: 1255
VWidth: 0
Flags: HW
PickledData: "(dp1
S'org.robofab.postScriptHintData'
p2
(dp3
sS'com.typemytype.robofont.layerData'
p4
(dp5
S'b'
(dp6
S'name'
p7
S'V'
sS'lib'
p8
(dp9
sS'unicodes'
p10
(tsS'width'
p11
I1228
sS'contours'
p12
(tsS'components'
p13
(tsS'anchors'
p14
(tsss."
LayerCount: 2
Fore
SplineSet
591 0 m 1
 176 1097 l 1
 37 1097 l 1
 37 1152 l 1
 418 1152 l 1
 418 1097 l 1
 260 1097 l 1
 632 94 l 1
 1002 1097 l 1
 848 1097 l 1
 848 1152 l 1
 1214 1152 l 1
 1214 1097 l 1
 1087 1097 l 1
 669 0 l 1
 591 0 l 1
EndSplineSet
EndChar

StartChar: W
Encoding: 87 87 131
Width: 1941
VWidth: 0
Flags: HW
PickledData: "(dp1
S'org.robofab.postScriptHintData'
p2
(dp3
sS'com.typemytype.robofont.layerData'
p4
(dp5
S'b'
(dp6
S'name'
p7
S'W'
sS'lib'
p8
(dp9
sS'unicodes'
p10
(tsS'width'
p11
I1962
sS'contours'
p12
(tsS'components'
p13
(tsS'anchors'
p14
(tsss."
LayerCount: 2
Fore
SplineSet
578 0 m 1
 207 1097 l 1
 68 1097 l 1
 68 1152 l 1
 448 1152 l 1
 448 1097 l 1
 289 1097 l 1
 620 95 l 1
 940 1100 l 1
 999 1100 l 1
 1336 95 l 1
 1654 1097 l 1
 1500 1097 l 1
 1500 1152 l 1
 1873 1152 l 1
 1873 1097 l 1
 1734 1097 l 1
 1372 0 l 1
 1295 0 l 1
 970 950 l 1
 656 0 l 1
 578 0 l 1
EndSplineSet
EndChar

StartChar: X
Encoding: 88 88 136
Width: 1296
VWidth: 0
Flags: HW
PickledData: "(dp1
S'org.robofab.postScriptHintData'
p2
(dp3
sS'com.typemytype.robofont.layerData'
p4
(dp5
S'b'
(dp6
S'name'
p7
S'X'
sS'lib'
p8
(dp9
sS'unicodes'
p10
(tsS'width'
p11
I1293
sS'contours'
p12
(tsS'components'
p13
(tsS'anchors'
p14
(tsss."
LayerCount: 2
Fore
SplineSet
102 0 m 1
 102 54 l 1
 245 54 l 1
 606 595 l 1
 265 1098 l 1
 114 1098 l 1
 114 1152 l 1
 492 1152 l 1
 492 1098 l 1
 342 1098 l 1
 647 645 l 1
 950 1098 l 1
 801 1098 l 1
 801 1152 l 1
 1177 1152 l 1
 1177 1098 l 1
 1027 1098 l 1
 687 587 l 1
 1047 54 l 1
 1198 54 l 1
 1198 0 l 1
 819 0 l 1
 819 54 l 1
 971 54 l 1
 646 538 l 1
 327 54 l 1
 475 54 l 1
 475 0 l 1
 102 0 l 1
EndSplineSet
EndChar

StartChar: Y
Encoding: 89 89 137
Width: 1266
VWidth: 0
Flags: HW
PickledData: "(dp1
S'org.robofab.postScriptHintData'
p2
(dp3
sS'com.typemytype.robofont.layerData'
p4
(dp5
S'b'
(dp6
S'name'
p7
S'Y'
sS'lib'
p8
(dp9
sS'unicodes'
p10
(tsS'width'
p11
I1254
sS'contours'
p12
(tsS'components'
p13
(tsS'anchors'
p14
(tsss."
LayerCount: 2
Fore
SplineSet
426 0 m 1
 426 55 l 1
 594 55 l 1
 594 469 l 1
 173 1097 l 1
 17 1097 l 1
 17 1152 l 1
 409 1152 l 1
 409 1097 l 1
 258 1097 l 1
 637 530 l 1
 1013 1097 l 1
 855 1097 l 1
 855 1152 l 1
 1245 1152 l 1
 1245 1097 l 1
 1092 1097 l 1
 672 469 l 1
 672 55 l 1
 841 55 l 1
 841 0 l 1
 426 0 l 1
EndSplineSet
EndChar

StartChar: Z
Encoding: 90 90 142
Width: 1223
VWidth: 0
Flags: HW
PickledData: "(dp1
S'org.robofab.postScriptHintData'
p2
(dp3
sS'com.typemytype.robofont.layerData'
p4
(dp5
S'b'
(dp6
S'name'
p7
S'Z'
sS'lib'
p8
(dp9
sS'unicodes'
p10
(tsS'width'
p11
I1241
sS'contours'
p12
(tsS'components'
p13
(tsS'anchors'
p14
(tsss."
LayerCount: 2
Fore
SplineSet
138 0 m 1
 138 59 l 1
 968 1097 l 1
 231 1097 l 1
 231 798 l 1
 167 798 l 1
 167 1152 l 1
 1060 1152 l 1
 1060 1097 l 1
 229 55 l 1
 1022 55 l 1
 1022 370 l 1
 1085 370 l 1
 1085 0 l 1
 138 0 l 1
EndSplineSet
EndChar

StartChar: a
Encoding: 97 97 146
Width: 946
VWidth: 0
Flags: HW
PickledData: "(dp1
S'org.robofab.postScriptHintData'
p2
(dp3
sS'com.typemytype.robofont.layerData'
p4
(dp5
S'b'
(dp6
S'name'
p7
S'a'
sS'lib'
p8
(dp9
sS'unicodes'
p10
(tsS'width'
p11
I951
sS'contours'
p12
((dp13
S'points'
p14
((dp15
S'segmentType'
p16
S'curve'
p17
sS'x'
I391
sS'smooth'
p18
I1
sS'y'
S'-14'
p19
s(dp20
S'y'
S'-14'
p21
sS'x'
I507
sg18
I0
s(dp22
S'y'
I21
sS'x'
I593
sg18
I0
s(dp23
g16
S'curve'
p24
sS'x'
I687
sg18
I0
sS'y'
I91
s(dp25
g16
S'line'
p26
sS'x'
I703
sg18
I0
sS'y'
S'-1'
p27
s(dp28
g16
S'line'
p29
sS'x'
I890
sg18
I0
sS'y'
S'-1'
p30
s(dp31
g16
S'line'
p32
sS'x'
I890
sg18
I0
sS'y'
I57
s(dp33
g16
S'line'
p34
sS'x'
I764
sg18
I0
sS'y'
I57
s(dp35
g16
S'line'
p36
sS'x'
I764
sg18
I1
sS'y'
I569
s(dp37
S'y'
I672
sS'x'
I764
sg18
I0
s(dp38
S'y'
I819
sS'x'
I710
sg18
I0
s(dp39
g16
S'curve'
p40
sS'x'
I461
sg18
I1
sS'y'
I819
s(dp41
S'y'
I819
sS'x'
I332
sg18
I0
s(dp42
S'y'
I792
sS'x'
I226
sg18
I0
s(dp43
g16
S'curve'
p44
sS'x'
I155
sg18
I0
sS'y'
I724
s(dp45
g16
S'line'
p46
sS'x'
I190
sg18
I0
sS'y'
I668
s(dp47
S'y'
I726
sS'x'
I247
sg18
I0
s(dp48
S'y'
I755
sS'x'
I339
sg18
I0
s(dp49
g16
S'curve'
p50
sS'x'
I459
sg18
I1
sS'y'
I755
s(dp51
S'y'
I755
sS'x'
I600
sg18
I0
s(dp52
S'y'
I706
sS'x'
I687
sg18
I0
s(dp53
g16
S'curve'
p54
sS'x'
I687
sg18
I1
sS'y'
I551
s(dp55
g16
S'line'
p56
sS'x'
I687
sg18
I0
sS'y'
I428
s(dp57
S'y'
I443
sS'x'
I609
sg18
I0
s(dp58
S'y'
I455
sS'x'
I539
sg18
I0
s(dp59
g16
S'curve'
p60
sS'x'
I465
sg18
I1
sS'y'
I455
s(dp61
S'y'
I455
sS'x'
I295
sg18
I0
s(dp62
S'y'
I433
sS'x'
I117
sg18
I0
s(dp63
g16
S'curve'
p64
sS'x'
I117
sg18
I1
sS'y'
I222
s(dp65
S'y'
I96
sS'x'
I117
sg18
I0
s(dp66
S'y'
S'-14'
p67
sS'x'
I206
sg18
I0
stp68
s(dp69
g14
((dp70
g16
S'curve'
p71
sS'x'
I401
sg18
I1
sS'y'
I50
s(dp72
S'y'
I50
sS'x'
I246
sg18
I0
s(dp73
S'y'
I142
sS'x'
I195
sg18
I0
s(dp74
g16
S'curve'
p75
sS'x'
I195
sg18
I1
sS'y'
I220
s(dp76
S'y'
I390
sS'x'
I195
sg18
I0
s(dp77
S'y'
I393
sS'x'
I346
sg18
I0
s(dp78
g16
S'curve'
p79
sS'x'
I462
sg18
I1
sS'y'
I393
s(dp80
S'y'
I393
sS'x'
I559
sg18
I0
s(dp81
S'y'
I368
sS'x'
I687
sg18
I0
s(dp82
g16
S'curve'
p83
sS'x'
I687
sg18
I0
sS'y'
I368
s(dp84
g16
S'line'
p85
sS'x'
I687
sg18
I0
sS'y'
I151
s(dp86
S'y'
I76
sS'x'
I606
sg18
I0
s(dp87
S'y'
I50
sS'x'
I511
sg18
I0
stp88
stp89
sS'components'
p90
(tsS'anchors'
p91
(tsss."
LayerCount: 2
Fore
SplineSet
394 32 m 0
 487 32 568 61 693 133 c 1
 693 371 l 1
 596 386 501 405 409 405 c 0
 293 405 189 358 189 218 c 0
 189 118 262 32 394 32 c 0
389 -22 m 0
 225 -22 118 76 118 217 c 0
 118 397 252 455 405 455 c 0
 497 455 598 439 693 422 c 1
 693 536 l 2
 693 697 599 769 465 769 c 0
 372 769 270 738 185 701 c 1
 163 756 l 1
 269 803 382 826 460 826 c 0
 696 826 767 682 767 553 c 2
 767 55 l 1
 891 55 l 1
 891 0 l 1
 709 0 l 1
 696 81 l 1
 582 10 485 -22 389 -22 c 0
EndSplineSet
EndChar

StartChar: acute
Encoding: 332 180 150
Width: 219
VWidth: 0
Flags: HW
PickledData: "(dp1
S'org.robofab.postScriptHintData'
p2
(dp3
sS'com.typemytype.robofont.layerData'
p4
(dp5
S'b'
(dp6
S'name'
p7
S'acute'
p8
sS'lib'
p9
(dp10
sS'unicodes'
p11
(tsS'width'
p12
I45
sS'contours'
p13
(tsS'components'
p14
(tsS'anchors'
p15
(tsss."
LayerCount: 2
Fore
SplineSet
106 1183 m 257
 164 1247 l 257
 123 1051 l 257
 63 987 l 257
 106 1183 l 257
EndSplineSet
EndChar

StartChar: ae
Encoding: 230 230 152
Width: 1618
VWidth: 0
Flags: HW
PickledData: "(dp1
S'org.robofab.postScriptHintData'
p2
(dp3
sS'com.typemytype.robofont.layerData'
p4
(dp5
S'b'
(dp6
S'name'
p7
S'ae'
p8
sS'lib'
p9
(dp10
sS'unicodes'
p11
(tsS'width'
p12
I1657
sS'contours'
p13
(tsS'components'
p14
(tsS'anchors'
p15
(tsss."
LayerCount: 2
Fore
SplineSet
423 -22 m 256
 246 -22 133 54 133 215 c 256
 133 394 303 437 529 437 c 256
 541 437 717 436 730 433 c 257
 730 532 l 258
 730 709 647 769 485 769 c 256
 369 769 265 725 199 666 c 257
 169 714 l 257
 245 784 360 826 487 826 c 256
 683 826 767 746 781 583 c 257
 823 742 960 826 1127 826 c 256
 1344 826 1490 675 1490 388 c 257
 802 388 l 257
 803 158 904 36 1126 36 c 256
 1249 36 1371 87 1467 187 c 257
 1495 139 l 257
 1382 30 1297 -21 1125 -21 c 256
 995 -21 889 15 813 108 c 257
 678 -9 534 -22 423 -22 c 256
429 30 m 256
 582 30 695 66 782 152 c 257
 748 218 732 318 730 384 c 257
 720 385 540 387 529 387 c 256
 333 387 204 359 204 217 c 256
 204 93 280 30 429 30 c 256
1421 438 m 257
 1419 644 1308 770 1126 770 c 256
 917 770 812 610 803 439 c 257
 1421 438 l 257
EndSplineSet
EndChar

StartChar: ampersand
Encoding: 38 38 157
Width: 1143
VWidth: 0
Flags: HW
PickledData: "(dp1
S'org.robofab.postScriptHintData'
p2
(dp3
sS'com.typemytype.robofont.layerData'
p4
(dp5
S'b'
(dp6
S'name'
p7
S'ampersand'
p8
sS'lib'
p9
(dp10
sS'unicodes'
p11
(tsS'width'
p12
I1088
sS'contours'
p13
(tsS'components'
p14
(tsS'anchors'
p15
(tsss."
LayerCount: 2
Fore
SplineSet
485 -21 m 256
 253 -21 115 102 115 313 c 256
 115 479 204 596 384 655 c 257
 289 772 227 871 227 966 c 256
 227 1103 329 1184 501 1184 c 256
 667 1184 767 1103 767 968 c 256
 767 829 659 708 478 635 c 257
 825 206 l 257
 865 271 903 408 908 479 c 257
 1092 479 l 257
 1092 423 l 257
 959 423 l 257
 952 361 906 224 861 157 c 257
 941 57 l 257
 1092 57 l 257
 1092 0 l 257
 903 0 l 257
 818 110 l 257
 745 27 626 -21 485 -21 c 256
492 40 m 256
 610 40 714 80 780 157 c 257
 419 607 l 257
 264 560 189 459 189 315 c 256
 189 141 300 40 492 40 c 256
446 681 m 257
 603 741 700 844 700 966 c 256
 700 1069 627 1128 500 1128 c 256
 374 1128 292 1068 292 968 c 256
 292 878 362 787 446 681 c 257
EndSplineSet
EndChar

StartChar: apostrophemod
Encoding: 337 700 159
Width: 600
VWidth: 0
Flags: HW
PickledData: "(dp1
S'org.robofab.postScriptHintData'
p2
(dp3
s."
LayerCount: 2
Fore
SplineSet
53 918 m 257
 53 950 l 257
 110 958 128 981 128 1086 c 257
 61 1086 l 257
 61 1208 l 257
 176 1207 l 257
 175 1081 l 257
 176 990 150 918 53 918 c 257
EndSplineSet
EndChar

StartChar: approxequal
Encoding: 338 8776 160
Width: 729
VWidth: 0
Flags: HW
PickledData: "(dp1
S'org.robofab.postScriptHintData'
p2
(dp3
s."
LayerCount: 2
Fore
SplineSet
657 762 m 257
 657 688 l 257
 604 648 555 630 500 630 c 256
 453 630 410 642 341 670 c 256
 277 695 234 710 188 710 c 256
 145 710 100 691 55 655 c 257
 55 730 l 257
 101 768 148 784 198 784 c 256
 252 784 301 768 374 739 c 256
 435 714 471 704 509 704 c 256
 556 704 601 727 657 762 c 257
657 533 m 257
 657 459 l 257
 604 420 555 402 500 402 c 256
 453 402 410 413 341 442 c 256
 277 466 234 481 188 481 c 256
 145 481 100 462 55 427 c 257
 55 502 l 257
 101 539 148 555 198 555 c 256
 252 555 301 540 374 511 c 256
 435 486 471 475 509 475 c 256
 556 475 601 498 657 533 c 257
EndSplineSet
EndChar

StartChar: asciicircum
Encoding: 94 94 162
Width: 915
VWidth: 0
Flags: HW
PickledData: "(dp1
S'org.robofab.postScriptHintData'
p2
(dp3
sS'com.typemytype.robofont.layerData'
p4
(dp5
S'b'
(dp6
S'name'
p7
S'asciicircum'
p8
sS'lib'
p9
(dp10
sS'unicodes'
p11
(tsS'width'
p12
I911
sS'contours'
p13
(tsS'components'
p14
(tsS'anchors'
p15
(tsss."
LayerCount: 2
Fore
SplineSet
71 776 m 257
 423 1278 l 257
 504 1278 l 257
 840 776 l 257
 771 776 l 257
 464 1210 l 257
 142 776 l 257
 71 776 l 257
EndSplineSet
EndChar

StartChar: asciitilde
Encoding: 126 126 163
Width: 810
VWidth: 0
Flags: HW
PickledData: "(dp1
S'org.robofab.postScriptHintData'
p2
(dp3
sS'com.typemytype.robofont.layerData'
p4
(dp5
S'b'
(dp6
S'name'
p7
S'asciitilde'
p8
sS'lib'
p9
(dp10
sS'unicodes'
p11
(tsS'width'
p12
I708
sS'contours'
p13
(tsS'components'
p14
(tsS'anchors'
p15
(tsss."
LayerCount: 2
Fore
SplineSet
676 622 m 257
 691 622 705 594 718 607 c 257
 684 582 666 543 619 543 c 0
 618 543 618 543 617 543 c 256
 604 541 591 541 579 541 c 0
 488 541 419 582 340 587 c 256
 300 589 262 594 225 594 c 0
 191 594 158 590 124 577 c 257
 108 577 96 605 81 591 c 257
 132 621 159 653 196 653 c 0
 198 653 200 653 202 653 c 256
 210 654 219 654 227 654 c 0
 308 654 388 610 480 609 c 256
 513 609 545 607 575 607 c 0
 612 607 646 610 676 622 c 257
EndSplineSet
EndChar

StartChar: asterisk
Encoding: 42 42 164
Width: 939
VWidth: 0
Flags: HW
PickledData: "(dp1
S'org.robofab.postScriptHintData'
p2
(dp3
sS'com.typemytype.robofont.layerData'
p4
(dp5
S'b'
(dp6
S'name'
p7
S'asterisk'
p8
sS'lib'
p9
(dp10
sS'unicodes'
p11
(tsS'width'
p12
I941
sS'contours'
p13
(tsS'components'
p14
(tsS'anchors'
p15
(tsss."
LayerCount: 2
Fore
SplineSet
251 415 m 257
 173 473 l 257
 441 784 l 257
 46 903 l 257
 78 992 l 257
 451 818 l 257
 418 1228 l 257
 521 1228 l 257
 488 818 l 257
 860 992 l 257
 892 903 l 257
 497 784 l 257
 766 473 l 257
 688 415 l 257
 470 760 l 257
 251 415 l 257
EndSplineSet
EndChar

StartChar: at
Encoding: 64 64 165
Width: 1399
VWidth: 0
Flags: HW
PickledData: "(dp1
S'org.robofab.postScriptHintData'
p2
(dp3
sS'com.typemytype.robofont.layerData'
p4
(dp5
S'b'
(dp6
S'name'
p7
S'at'
p8
sS'lib'
p9
(dp10
sS'unicodes'
p11
(tsS'width'
p12
I1379
sS'contours'
p13
(tsS'components'
p14
(tsS'anchors'
p15
(tsss."
LayerCount: 2
Fore
SplineSet
863 347 m 0
 863 374 869 408 881 449 c 257
 836 329 751 243 631 243 c 256
 501 243 389 338 389 522 c 256
 389 706 495 908 716 908 c 256
 831 908 917 836 925 715 c 257
 959 889 l 257
 1022 889 l 257
 931 474 l 258
 920 423 914 386 914 358 c 0
 914 309 932 290 969 290 c 0
 1060 290 1234 431 1234 682 c 256
 1234 909 1081 1125 746 1125 c 256
 416 1125 179 877 179 546 c 256
 179 226 390 13 760 13 c 256
 909 13 1028 44 1122 109 c 257
 1147 77 l 257
 1048 5 929 -33 760 -33 c 256
 318 -33 115 249 115 548 c 256
 115 854 341 1171 750 1171 c 256
 1133 1171 1288 927 1288 683 c 256
 1288 432 1116 243 958 243 c 0
 908 243 863 265 863 347 c 0
641 289 m 256
 795 289 898 488 898 654 c 256
 898 792 825 859 710 859 c 256
 550 859 450 700 450 520 c 256
 450 389 513 289 641 289 c 256
EndSplineSet
EndChar

StartChar: b
Encoding: 98 98 167
Width: 1046
VWidth: 0
Flags: HW
PickledData: "(dp1
S'org.robofab.postScriptHintData'
p2
(dp3
sS'com.typemytype.robofont.layerData'
p4
(dp5
S'b'
(dp6
S'name'
p7
S'b'
sS'lib'
p8
(dp9
sS'unicodes'
p10
(tsS'width'
p11
I1037
sS'contours'
p12
(tsS'components'
p13
(tsS'anchors'
p14
(tsss."
LayerCount: 2
Fore
SplineSet
561 -22 m 0
 461 -22 357 19 279 89 c 1
 279 0 l 1
 62 0 l 1
 62 55 l 1
 205 55 l 1
 205 1119 l 1
 69 1119 l 1
 69 1174 l 1
 279 1174 l 1
 279 718 l 1
 369 786 481 826 579 826 c 0
 823 826 986 670 986 412 c 0
 986 142 812 -22 561 -22 c 0
279 658 m 1
 279 148 l 1
 358 76 458 35 553 35 c 0
 769 35 911 173 911 400 c 0
 911 629 775 768 567 768 c 0
 476 768 369 728 279 658 c 1
EndSplineSet
EndChar

StartChar: backslash
Encoding: 92 92 168
Width: 391
VWidth: 0
Flags: HW
PickledData: "(dp1
S'org.robofab.postScriptHintData'
p2
(dp3
sS'com.typemytype.robofont.layerData'
p4
(dp5
S'b'
(dp6
S'name'
p7
S'backslash'
p8
sS'lib'
p9
(dp10
sS'unicodes'
p11
(tsS'width'
p12
I296
sS'contours'
p13
(tsS'components'
p14
(tsS'anchors'
p15
(tsss."
LayerCount: 2
Fore
SplineSet
334 -24 m 257
 -24 1182 l 257
 44 1182 l 257
 407 -24 l 257
 334 -24 l 257
EndSplineSet
EndChar

StartChar: bar
Encoding: 124 124 169
Width: 380
VWidth: 0
Flags: HW
PickledData: "(dp1
S'org.robofab.postScriptHintData'
p2
(dp3
sS'com.typemytype.robofont.layerData'
p4
(dp5
S'b'
(dp6
S'name'
p7
S'bar'
p8
sS'lib'
p9
(dp10
sS'unicodes'
p11
(tsS'width'
p12
I348
sS'contours'
p13
(tsS'components'
p14
(tsS'anchors'
p15
(tsss."
LayerCount: 2
Fore
SplineSet
162 -45 m 257
 162 1189 l 257
 227 1189 l 257
 227 -45 l 257
 162 -45 l 257
EndSplineSet
EndChar

StartChar: braceleft
Encoding: 123 123 171
Width: 454
VWidth: 0
Flags: HW
PickledData: "(dp1
S'org.robofab.postScriptHintData'
p2
(dp3
sS'com.typemytype.robofont.layerData'
p4
(dp5
S'b'
(dp6
S'name'
p7
S'braceleft'
p8
sS'lib'
p9
(dp10
sS'unicodes'
p11
(tsS'width'
p12
I404
sS'contours'
p13
(tsS'components'
p14
(tsS'anchors'
p15
(tsss."
LayerCount: 2
Fore
SplineSet
347 -30 m 258
 167 -30 163 93 163 318 c 256
 163 481 155 533 24 533 c 257
 24 615 l 257
 162 615 163 674 163 849 c 256
 163 1055 168 1178 347 1178 c 258
 409 1178 l 257
 409 1124 l 257
 276 1124 245 1100 245 941 c 256
 245 706 233 583 117 574 c 257
 232 564 245 443 245 211 c 256
 245 49 275 23 409 23 c 257
 409 -30 l 257
 347 -30 l 258
EndSplineSet
EndChar

StartChar: braceright
Encoding: 125 125 172
Width: 456
VWidth: 0
Flags: HW
PickledData: "(dp1
S'org.robofab.postScriptHintData'
p2
(dp3
sS'com.typemytype.robofont.layerData'
p4
(dp5
S'b'
(dp6
S'name'
p7
S'braceright'
p8
sS'lib'
p9
(dp10
sS'unicodes'
p11
(tsS'width'
p12
I406
sS'contours'
p13
(tsS'components'
p14
(tsS'anchors'
p15
(tsss."
LayerCount: 2
Fore
SplineSet
47 -30 m 257
 47 23 l 257
 182 23 211 49 211 211 c 256
 211 443 225 565 340 574 c 257
 224 583 212 706 212 941 c 256
 212 1100 181 1124 47 1124 c 257
 47 1178 l 257
 109 1178 l 258
 290 1178 295 1055 295 879 c 256
 295 668 303 615 433 615 c 257
 433 533 l 257
 295 533 295 476 295 268 c 256
 295 93 290 -30 109 -30 c 258
 47 -30 l 257
EndSplineSet
EndChar

StartChar: bracketleft
Encoding: 91 91 173
Width: 392
VWidth: 0
Flags: HW
PickledData: "(dp1
S'org.robofab.postScriptHintData'
p2
(dp3
sS'com.typemytype.robofont.layerData'
p4
(dp5
S'b'
(dp6
S'name'
p7
S'bracketleft'
p8
sS'lib'
p9
(dp10
sS'unicodes'
p11
(tsS'width'
p12
I318
sS'contours'
p13
(tsS'components'
p14
(tsS'anchors'
p15
(tsss."
LayerCount: 2
Fore
SplineSet
161 -141 m 257
 161 1205 l 257
 370 1205 l 257
 370 1145 l 257
 243 1145 l 257
 243 -80 l 257
 370 -80 l 257
 370 -141 l 257
 161 -141 l 257
EndSplineSet
EndChar

StartChar: bracketright
Encoding: 93 93 174
Width: 390
VWidth: 0
Flags: HW
PickledData: "(dp1
S'org.robofab.postScriptHintData'
p2
(dp3
sS'com.typemytype.robofont.layerData'
p4
(dp5
S'b'
(dp6
S'name'
p7
S'bracketright'
p8
sS'lib'
p9
(dp10
sS'unicodes'
p11
(tsS'width'
p12
I316
sS'contours'
p13
(tsS'components'
p14
(tsS'anchors'
p15
(tsss."
LayerCount: 2
Fore
SplineSet
13 -141 m 257
 13 -80 l 257
 140 -80 l 257
 140 1145 l 257
 13 1145 l 257
 13 1205 l 257
 223 1205 l 257
 223 -141 l 257
 13 -141 l 257
EndSplineSet
EndChar

StartChar: breve
Encoding: 339 728 175
Width: 301
VWidth: 0
Flags: HW
PickledData: "(dp1
S'org.robofab.postScriptHintData'
p2
(dp3
sS'com.typemytype.robofont.layerData'
p4
(dp5
S'b'
(dp6
S'name'
p7
S'breve'
p8
sS'lib'
p9
(dp10
sS'unicodes'
p11
(tsS'width'
p12
I233
sS'contours'
p13
(tsS'components'
p14
(tsS'anchors'
p15
(tsss."
LayerCount: 2
Fore
SplineSet
153 930 m 256
 152 930 152 930 151 930 c 0
 66 930 10 982 -7 1078 c 257
 43 1078 l 257
 60 1013 96 980 153 980 c 256
 209 980 247 1013 263 1078 c 257
 312 1078 l 257
 297 982 244 930 156 930 c 0
 155 930 154 930 153 930 c 256
EndSplineSet
EndChar

StartChar: breveinvertedcomb
Encoding: 340 785 176
Width: 886
VWidth: 0
Flags: W
PickledData: "(dp1
S'org.robofab.postScriptHintData'
p2
(dp3
sS'com.typemytype.robofont.layerData'
p4
(dp5
S'b'
(dp6
S'name'
p7
S'uni0311'
p8
sS'lib'
p9
(dp10
sS'unicodes'
p11
(tsS'width'
p12
I962
sS'contours'
p13
(tsS'components'
p14
(tsS'anchors'
p15
(tsss."
LayerCount: 2
Fore
SplineSet
282 939 m 257
 338 939 l 257
 354 1003 390 1035 446 1035 c 256
 501 1035 538 1003 554 939 c 257
 609 939 l 257
 594 1038 537 1092 446 1091 c 256
 358 1092 299 1038 282 939 c 257
EndSplineSet
EndChar

StartChar: brokenbar
Encoding: 341 166 177
Width: 428
VWidth: 0
Flags: HW
PickledData: "(dp1
S'org.robofab.postScriptHintData'
p2
(dp3
sS'com.typemytype.robofont.layerData'
p4
(dp5
S'b'
(dp6
S'name'
p7
S'brokenbar'
p8
sS'lib'
p9
(dp10
sS'unicodes'
p11
(tsS'width'
p12
I418
sS'contours'
p13
(tsS'components'
p14
(tsS'anchors'
p15
(tsss."
LayerCount: 2
Fore
SplineSet
182 -65 m 257
 182 500 l 257
 244 500 l 257
 244 -65 l 257
 182 -65 l 257
182 714 m 257
 182 1280 l 257
 244 1280 l 257
 244 714 l 257
 182 714 l 257
EndSplineSet
EndChar

StartChar: bullet
Encoding: 342 8226 178
Width: 726
VWidth: 0
Flags: HW
PickledData: "(dp1
S'org.robofab.postScriptHintData'
p2
(dp3
sS'com.typemytype.robofont.layerData'
p4
(dp5
S'b'
(dp6
S'name'
p7
S'bullet'
p8
sS'lib'
p9
(dp10
sS'unicodes'
p11
(tsS'width'
p12
I768
sS'contours'
p13
(tsS'components'
p14
(tsS'anchors'
p15
(tsss."
LayerCount: 2
Fore
SplineSet
363 451 m 256
 226 451 118 558 118 688 c 256
 118 820 226 923 363 923 c 256
 500 923 609 820 609 688 c 256
 609 557 500 451 363 451 c 256
EndSplineSet
EndChar

StartChar: c
Encoding: 99 99 179
Width: 957
VWidth: 0
Flags: HW
PickledData: "(dp1
S'org.robofab.postScriptHintData'
p2
(dp3
sS'com.typemytype.robofont.layerData'
p4
(dp5
S'b'
(dp6
S'name'
p7
S'c'
sS'lib'
p8
(dp9
sS'unicodes'
p10
(tsS'width'
p11
I956
sS'contours'
p12
((dp13
S'points'
p14
((dp15
S'y'
S'-14'
p16
sS'x'
I633
sS'smooth'
p17
I0
s(dp18
S'y'
I33
sS'x'
I758
sg17
I0
s(dp19
S'segmentType'
p20
S'curve'
p21
sS'x'
I868
sg17
I0
sS'y'
I142
s(dp22
g20
S'line'
p23
sS'x'
I845
sg17
I0
sS'y'
I213
s(dp24
S'y'
I105
sS'x'
I763
sg17
I0
s(dp25
S'y'
I51
sS'x'
I637
sg17
I0
s(dp26
g20
S'curve'
p27
sS'x'
I515
sg17
I1
sS'y'
I51
s(dp28
S'y'
I51
sS'x'
I316
sg17
I0
s(dp29
S'y'
I193
sS'x'
I169
sg17
I0
s(dp30
g20
S'curve'
p31
sS'x'
I169
sg17
I1
sS'y'
I406
s(dp32
S'y'
I630
sS'x'
I169
sg17
I0
s(dp33
S'y'
I755
sS'x'
I336
sg17
I0
s(dp34
g20
S'curve'
p35
sS'x'
I515
sg17
I1
sS'y'
I755
s(dp36
S'y'
I755
sS'x'
I705
sg17
I0
s(dp37
S'y'
I657
sS'x'
I768
sg17
I0
s(dp38
g20
S'curve'
p39
sS'x'
I776
sg17
I0
sS'y'
I570
s(dp40
g20
S'line'
p41
sS'x'
I840
sg17
I0
sS'y'
I570
s(dp42
g20
S'line'
p43
sS'x'
I840
sg17
I0
sS'y'
I825
s(dp44
g20
S'line'
p45
sS'x'
I767
sg17
I0
sS'y'
I825
s(dp46
g20
S'line'
p47
sS'x'
I767
sg17
I0
sS'y'
I714
s(dp48
S'y'
I764
sS'x'
I736
sg17
I0
s(dp49
S'y'
I819
sS'x'
I645
sg17
I0
s(dp50
g20
S'curve'
p51
sS'x'
I522
sg17
I1
sS'y'
I819
s(dp52
S'y'
I819
sS'x'
F268.96812951340218
sg17
I0
s(dp53
S'y'
I650
sS'x'
I90
sg17
I0
s(dp54
g20
S'curve'
p55
sS'x'
I90
sg17
I1
sS'y'
I406
s(dp56
S'y'
I145
sS'x'
I90
sg17
I0
s(dp57
S'y'
S'-14'
p58
sS'x'
I286
sg17
I0
s(dp59
g20
S'curve'
p60
sS'x'
I515
sg17
I1
sS'y'
S'-14'
p61
stp62
stp63
sS'components'
p64
(tsS'anchors'
p65
(tsss."
LayerCount: 2
Fore
SplineSet
135 405 m 0
 135 190 280 37 483 37 c 0
 624 37 714 83 807 180 c 1
 825 125 l 1
 736 28 628 -21 480 -21 c 0
 234 -21 60 156 60 406 c 0
 60 652 238 826 488 826 c 0
 603 826 714 772 752 699 c 1
 754 805 l 1
 822 805 l 1
 822 561 l 1
 762 561 l 1
 741 684 632 768 493 768 c 0
 283 768 135 618 135 405 c 0
EndSplineSet
EndChar

StartChar: caron
Encoding: 344 711 181
Width: 398
VWidth: 0
Flags: HW
PickledData: "(dp1
S'org.robofab.postScriptHintData'
p2
(dp3
sS'com.typemytype.robofont.layerData'
p4
(dp5
S'b'
(dp6
S'name'
p7
S'caron'
p8
sS'lib'
p9
(dp10
sS'unicodes'
p11
(tsS'width'
p12
I351
sS'contours'
p13
(tsS'components'
p14
(tsS'anchors'
p15
(tsss."
LayerCount: 2
Fore
SplineSet
166 926 m 257
 -7 1233 l 257
 51 1233 l 257
 196 979 l 257
 338 1233 l 257
 394 1233 l 257
 224 926 l 257
 166 926 l 257
EndSplineSet
EndChar

StartChar: caron.alt
Encoding: 345 -1 182
Width: 600
VWidth: 0
Flags: HW
PickledData: "(dp1
S'org.robofab.postScriptHintData'
p2
(dp3
s."
AnchorPoint: "caron.alt" 188 804 mark 0
LayerCount: 2
Fore
SplineSet
279 879 m 257
 279 912 l 257
 350 918 357 980 357 1064 c 257
 291 1064 l 257
 291 1174 l 257
 406 1174 l 257
 406 1052 l 258
 406 958 384 879 279 879 c 257
EndSplineSet
EndChar

StartChar: cedilla
Encoding: 348 184 187
Width: 571
VWidth: 0
Flags: HW
PickledData: "(dp1
S'org.robofab.postScriptHintData'
p2
(dp3
s."
LayerCount: 2
Fore
SplineSet
279 -301 m 256
 238 -301 195 -291 158 -273 c 257
 158 -237 l 257
 191 -248 221 -253 247 -253 c 256
 294 -253 322 -235 322 -201 c 256
 322 -172 292 -150 202 -148 c 257
 262 6 l 257
 301 6 l 257
 264 -110 l 257
 361 -113 396 -158 396 -208 c 256
 396 -274 342 -301 279 -301 c 256
EndSplineSet
EndChar

StartChar: cent
Encoding: 349 162 188
Width: 919
VWidth: 0
Flags: HW
PickledData: "(dp1
S'org.robofab.postScriptHintData'
p2
(dp3
sS'com.typemytype.robofont.layerData'
p4
(dp5
S'b'
(dp6
S'name'
p7
S'cent'
p8
sS'lib'
p9
(dp10
sS'unicodes'
p11
(tsS'width'
p12
I909
sS'contours'
p13
(tsS'components'
p14
(tsS'anchors'
p15
(tsss."
LayerCount: 2
Fore
SplineSet
336 -241 m 257
 298 -234 l 257
 612 1043 l 257
 650 1038 l 257
 336 -241 l 257
EndSplineSet
Refer: 179 99 N 1 0 0 1 0 0 2
EndChar

StartChar: circumflex
Encoding: 350 710 189
Width: 401
VWidth: 0
Flags: HW
PickledData: "(dp1
S'org.robofab.postScriptHintData'
p2
(dp3
sS'com.typemytype.robofont.layerData'
p4
(dp5
S'b'
(dp6
S'name'
p7
S'circumflex'
p8
sS'lib'
p9
(dp10
sS'unicodes'
p11
(tsS'width'
p12
I347
sS'contours'
p13
(tsS'components'
p14
(tsS'anchors'
p15
(tsss."
LayerCount: 2
Fore
SplineSet
52 927 m 257
 -7 927 l 257
 166 1237 l 257
 229 1237 l 257
 402 927 l 257
 343 927 l 257
 198 1191 l 257
 52 927 l 257
EndSplineSet
EndChar

StartChar: colon
Encoding: 58 58 190
Width: 474
VWidth: 0
Flags: HW
PickledData: "(dp1
S'org.robofab.postScriptHintData'
p2
(dp3
sS'com.typemytype.robofont.layerData'
p4
(dp5
S'b'
(dp6
S'name'
p7
S'colon'
p8
sS'lib'
p9
(dp10
sS'unicodes'
p11
(tsS'width'
p12
I453
sS'contours'
p13
(tsS'components'
p14
(tsS'anchors'
p15
(tsss."
LayerCount: 2
Fore
SplineSet
186 234 m 257
 186 349 l 257
 295 349 l 257
 295 234 l 257
 186 234 l 257
186 707 m 257
 186 824 l 257
 295 824 l 257
 295 707 l 257
 186 707 l 257
EndSplineSet
EndChar

StartChar: comma
Encoding: 44 44 191
Width: 404
VWidth: 0
Flags: HW
PickledData: "(dp1
S'org.robofab.postScriptHintData'
p2
(dp3
sS'com.typemytype.robofont.layerData'
p4
(dp5
S'b'
(dp6
S'name'
p7
S'comma'
p8
sS'lib'
p9
(dp10
sS'unicodes'
p11
(tsS'width'
p12
I374
sS'contours'
p13
(tsS'components'
p14
(tsS'anchors'
p15
(tsss."
LayerCount: 2
Fore
SplineSet
167 -180 m 257
 167 -145 l 257
 226 -137 241 -111 241 0 c 257
 176 0 l 257
 176 125 l 257
 179 125 191 125 207 125 c 0
 239 125 284 125 292 125 c 257
 292 -1 l 258
 292 -102 272 -180 167 -180 c 257
EndSplineSet
EndChar

StartChar: commaaccent
Encoding: 351 806 192
Width: 405
VWidth: 0
Flags: HW
PickledData: "(dp1
S'org.robofab.postScriptHintData'
p2
(dp3
sS'com.typemytype.robofont.layerData'
p4
(dp5
S'b'
(dp6
S'name'
p7
S'uni0326'
p8
sS'lib'
p9
(dp10
sS'unicodes'
p11
(tsS'width'
p12
I418
sS'contours'
p13
(tsS'components'
p14
(tsS'anchors'
p15
(tsss."
LayerCount: 2
Fore
SplineSet
167 -419 m 258
 167 -387 l 257
 238 -381 245 -318 245 -235 c 257
 179 -235 l 257
 179 -125 l 257
 294 -125 l 257
 294 -247 l 258
 294 -339 272 -419 169 -419 c 0
 168 -419 168 -419 167 -419 c 258
EndSplineSet
EndChar

StartChar: commaturnedabovecomb
Encoding: 352 786 193
Width: 600
VWidth: 0
Flags: HW
PickledData: "(dp1
S'org.robofab.postScriptHintData'
p2
(dp3
s."
LayerCount: 2
Fore
SplineSet
330 926 m 257
 215 927 l 257
 215 1052 l 258
 215 1143 240 1216 338 1216 c 257
 338 1184 l 257
 280 1175 263 1152 263 1047 c 257
 330 1047 l 257
 330 926 l 257
EndSplineSet
EndChar

StartChar: copyright
Encoding: 169 169 194
Width: 1517
VWidth: 0
Flags: HW
PickledData: "(dp1
S'org.robofab.postScriptHintData'
p2
(dp3
sS'com.typemytype.robofont.layerData'
p4
(dp5
S'b'
(dp6
S'name'
p7
S'copyright'
p8
sS'lib'
p9
(dp10
sS'unicodes'
p11
(tsS'width'
p12
I1512
sS'contours'
p13
(tsS'components'
p14
(tsS'anchors'
p15
(tsss."
LayerCount: 2
Fore
SplineSet
762 178 m 256
 546 178 366 340 366 585 c 256
 366 865 584 987 769 987 c 256
 879 987 978 952 1027 867 c 257
 1028 967 l 257
 1080 967 l 257
 1080 740 l 257
 1027 740 l 257
 1014 862 922 937 773 937 c 256
 616 937 430 832 430 584 c 256
 430 372 583 229 764 229 c 0
 765 229 765 229 766 229 c 256
 886 229 983 276 1068 365 c 257
 1087 318 l 257
 1006 228 886 178 762 178 c 256
758 -43 m 256
 397 -43 117 227 117 582 c 256
 117 937 397 1207 758 1207 c 256
 1120 1207 1401 937 1401 582 c 256
 1401 227 1120 -43 758 -43 c 256
758 9 m 256
 1082 9 1333 259 1333 582 c 256
 1333 907 1082 1155 758 1155 c 256
 435 1155 184 907 184 582 c 256
 184 256 435 9 758 9 c 256
EndSplineSet
EndChar

StartChar: currency
Encoding: 353 164 195
Width: 1101
VWidth: 0
Flags: HW
PickledData: "(dp1
S'org.robofab.postScriptHintData'
p2
(dp3
sS'com.typemytype.robofont.layerData'
p4
(dp5
S'b'
(dp6
S'name'
p7
S'currency'
p8
sS'lib'
p9
(dp10
sS'unicodes'
p11
(tsS'width'
p12
I1124
sS'contours'
p13
(tsS'components'
p14
(tsS'anchors'
p15
(tsss."
LayerCount: 2
Fore
SplineSet
897 574 m 257
 799 682 l 257
 714 634 632 609 549 609 c 256
 470 609 390 632 308 680 c 257
 210 575 l 257
 154 622 l 257
 259 725 l 257
 192 799 157 898 157 998 c 256
 157 1098 191 1201 259 1281 c 257
 154 1385 l 257
 210 1431 l 257
 309 1326 l 257
 388 1374 467 1398 545 1398 c 256
 627 1398 710 1372 799 1324 c 257
 897 1432 l 257
 947 1385 l 257
 839 1279 l 257
 903 1195 935 1100 935 1005 c 256
 935 911 903 816 840 727 c 257
 947 622 l 257
 897 574 l 257
546 670 m 256
 709 670 878 779 878 1004 c 256
 878 1229 708 1337 547 1337 c 256
 387 1337 221 1224 221 1004 c 256
 221 783 386 670 546 670 c 256
EndSplineSet
EndChar

StartChar: d
Encoding: 100 100 196
Width: 1022
VWidth: 0
Flags: HW
PickledData: "(dp1
S'org.robofab.postScriptHintData'
p2
(dp3
sS'com.typemytype.robofont.layerData'
p4
(dp5
S'b'
(dp6
S'name'
p7
S'd'
sS'lib'
p8
(dp9
sS'unicodes'
p10
(tsS'width'
p11
I1011
sS'contours'
p12
(tsS'components'
p13
(tsS'anchors'
p14
(tsss."
AnchorPoint: "caron.alt" 864 804 basechar 0
LayerCount: 2
Fore
SplineSet
62 405 m 0
 62 659 232 826 461 826 c 0
 568 826 687 785 774 720 c 1
 774 1119 l 1
 639 1119 l 1
 639 1174 l 1
 849 1174 l 1
 849 55 l 1
 985 55 l 1
 985 0 l 1
 774 0 l 1
 774 82 l 1
 692 18 583 -22 484 -22 c 0
 242 -22 62 149 62 405 c 0
774 140 m 1
 774 665 l 1
 686 729 571 769 470 769 c 0
 276 769 137 620 137 395 c 0
 137 180 287 35 493 35 c 0
 586 35 693 76 774 140 c 1
EndSplineSet
EndChar

StartChar: dagger
Encoding: 354 8224 197
Width: 458
VWidth: 0
Flags: HW
PickledData: "(dp1
S'org.robofab.postScriptHintData'
p2
(dp3
sS'com.typemytype.robofont.layerData'
p4
(dp5
S'b'
(dp6
S'name'
p7
S'dagger'
p8
sS'lib'
p9
(dp10
sS'unicodes'
p11
(tsS'width'
p12
I364
sS'contours'
p13
(tsS'components'
p14
(tsS'anchors'
p15
(tsss."
LayerCount: 2
Fore
SplineSet
191 574 m 0
 191 656 192 723 212 825 c 257
 5 806 l 257
 5 878 l 257
 212 866 l 257
 180 1105 l 257
 278 1105 l 257
 247 866 l 257
 451 878 l 257
 451 806 l 257
 247 825 l 257
 266 725 267 659 267 578 c 0
 267 563 267 548 267 532 c 257
 268 513 269 494 269 474 c 0
 269 348 247 216 247 30 c 257
 212 30 l 257
 212 221 190 351 190 477 c 0
 190 508 191 542 191 574 c 0
EndSplineSet
EndChar

StartChar: daggerdbl
Encoding: 355 8225 198
Width: 546
VWidth: 0
Flags: HW
PickledData: "(dp1
S'org.robofab.postScriptHintData'
p2
(dp3
sS'com.typemytype.robofont.layerData'
p4
(dp5
S'b'
(dp6
S'name'
p7
S'daggerdbl'
p8
sS'lib'
p9
(dp10
sS'unicodes'
p11
(tsS'width'
p12
I486
sS'contours'
p13
(tsS'components'
p14
(tsS'anchors'
p15
(tsss."
LayerCount: 2
Fore
SplineSet
219 -32 m 257
 253 254 l 257
 20 235 l 257
 20 319 l 257
 252 293 l 257
 242 342 239 474 239 590 c 256
 239 706 242 836 252 886 c 257
 20 860 l 257
 20 944 l 257
 253 925 l 257
 219 1211 l 257
 329 1211 l 257
 295 925 l 257
 524 944 l 257
 524 860 l 257
 296 886 l 257
 304 835 309 701 309 584 c 256
 309 468 304 341 296 293 c 257
 524 319 l 257
 524 235 l 257
 295 254 l 257
 329 -32 l 257
 219 -32 l 257
EndSplineSet
EndChar

StartChar: dblgravecmb
Encoding: 356 783 199
Width: 650
VWidth: 0
Flags: HW
PickledData: "(dp1
S'org.robofab.postScriptHintData'
p2
(dp3
sS'com.typemytype.robofont.layerData'
p4
(dp5
S'b'
(dp6
S'name'
p7
S'uni030F'
p8
sS'lib'
p9
(dp10
sS'unicodes'
p11
(tsS'width'
p12
I643
sS'contours'
p13
(tsS'components'
p14
(tsS'anchors'
p15
(tsss."
LayerCount: 2
Fore
SplineSet
203 987 m 257
 57 1287 l 257
 136 1287 l 257
 246 987 l 257
 203 987 l 257
411 987 m 257
 265 1287 l 257
 344 1287 l 257
 454 987 l 257
 411 987 l 257
EndSplineSet
EndChar

StartChar: degree
Encoding: 359 176 203
Width: 868
VWidth: 0
Flags: HW
PickledData: "(dp1
S'org.robofab.postScriptHintData'
p2
(dp3
sS'com.typemytype.robofont.layerData'
p4
(dp5
S'b'
(dp6
S'name'
p7
S'degree'
p8
sS'lib'
p9
(dp10
sS'unicodes'
p11
(tsS'width'
p12
I922
sS'contours'
p13
(tsS'components'
p14
(tsS'anchors'
p15
(tsss."
LayerCount: 2
Fore
SplineSet
435 782 m 256
 546 782 625 860 625 962 c 256
 625 1062 546 1140 434 1140 c 256
 323 1140 245 1062 244 961 c 256
 244 860 323 782 435 782 c 256
434 729 m 256
 287 729 182 831 182 961 c 256
 182 1091 287 1193 434 1193 c 256
 582 1193 687 1091 687 961 c 256
 687 831 582 729 434 729 c 256
EndSplineSet
EndChar

StartChar: dieresis
Encoding: 360 168 204
Width: 368
VWidth: 0
Flags: HW
PickledData: "(dp1
S'org.robofab.postScriptHintData'
p2
(dp3
sS'com.typemytype.robofont.layerData'
p4
(dp5
S'b'
(dp6
S'name'
p7
S'dieresis'
p8
sS'lib'
p9
(dp10
sS'unicodes'
p11
(tsS'width'
p12
I295
sS'contours'
p13
(tsS'components'
p14
(tsS'anchors'
p15
(tsss."
LayerCount: 2
Fore
SplineSet
14 944 m 256
 -18 944 -38 963 -38 995 c 256
 -38 1026 -18 1046 14 1046 c 256
 47 1046 68 1026 68 995 c 256
 68 963 47 944 14 944 c 256
348 943 m 256
 316 943 296 962 296 994 c 256
 296 1026 316 1046 348 1046 c 256
 382 1046 403 1026 403 994 c 256
 402 962 381 943 348 943 c 256
EndSplineSet
EndChar

StartChar: divide
Encoding: 361 247 205
Width: 749
VWidth: 0
Flags: HW
PickledData: "(dp1
S'org.robofab.postScriptHintData'
p2
(dp3
sS'com.typemytype.robofont.layerData'
p4
(dp5
S'b'
(dp6
S'name'
p7
S'divide'
p8
sS'lib'
p9
(dp10
sS'unicodes'
p11
(tsS'width'
p12
I339
sS'contours'
p13
(tsS'components'
p14
(tsS'anchors'
p15
(tsss."
LayerCount: 2
Fore
SplineSet
334 247 m 257
 334 366 l 257
 417 366 l 257
 417 247 l 257
 334 247 l 257
108 493 m 257
 108 545 l 257
 641 545 l 257
 641 493 l 257
 108 493 l 257
334 660 m 257
 334 779 l 257
 417 779 l 257
 417 660 l 257
 334 660 l 257
EndSplineSet
EndChar

StartChar: dollar
Encoding: 36 36 206
Width: 1121
VWidth: 0
Flags: HW
PickledData: "(dp1
S'org.robofab.postScriptHintData'
p2
(dp3
s."
LayerCount: 2
Fore
SplineSet
558 -182 m 257
 558 1333 l 257
 604 1333 l 257
 604 -182 l 257
 558 -182 l 257
EndSplineSet
Refer: 104 83 N 1 0 0 1 -12 0 2
EndChar

StartChar: dotaccent
Encoding: 363 729 208
Width: 461
VWidth: 0
Flags: HW
PickledData: "(dp1
S'org.robofab.postScriptHintData'
p2
(dp3
s."
LayerCount: 2
Fore
SplineSet
234 1008 m 256
 198 1008 171 1033 171 1068 c 256
 171 1102 198 1127 234 1127 c 256
 272 1127 299 1102 299 1068 c 256
 299 1033 272 1008 234 1008 c 256
EndSplineSet
EndChar

StartChar: dotlessi
Encoding: 364 305 209
Width: 562
VWidth: 0
Flags: HW
PickledData: "(dp1
S'org.robofab.postScriptHintData'
p2
(dp3
sS'com.typemytype.robofont.layerData'
p4
(dp5
S'b'
(dp6
S'name'
p7
S'dotlessi'
p8
sS'lib'
p9
(dp10
sS'unicodes'
p11
(tsS'width'
p12
I513
sS'contours'
p13
(tsS'components'
p14
(tsS'anchors'
p15
(tsss."
LayerCount: 2
Fore
SplineSet
103 0 m 257
 103 55 l 257
 277 55 l 257
 277 749 l 257
 106 749 l 257
 106 804 l 257
 351 804 l 257
 351 554 351 305 351 55 c 257
 518 55 l 257
 518 0 l 257
 103 0 l 257
EndSplineSet
EndChar

StartChar: dotlessj
Encoding: 365 567 210
Width: 430
VWidth: 0
Flags: W
PickledData: "(dp1
S'org.robofab.postScriptHintData'
p2
(dp3
sS'com.typemytype.robofont.layerData'
p4
(dp5
S'b'
(dp6
S'name'
p7
S'uni0237'
p8
sS'lib'
p9
(dp10
sS'unicodes'
p11
(tsS'width'
p12
I398
sS'contours'
p13
(tsS'components'
p14
(tsS'anchors'
p15
(tsss."
LayerCount: 2
Fore
SplineSet
19 -260 m 257
 96 -260 l 258
 315 -260 301 -118 301 -18 c 258
 301 805 l 257
 64 805 l 257
 64 752 l 257
 223 752 l 257
 223 -34 l 258
 223 -148 223 -204 88 -204 c 258
 19 -204 l 257
 19 -260 l 257
EndSplineSet
EndChar

StartChar: e
Encoding: 101 101 213
Width: 966
VWidth: 0
Flags: HW
PickledData: "(dp1
S'org.robofab.postScriptHintData'
p2
(dp3
sS'com.typemytype.robofont.layerData'
p4
(dp5
S'b'
(dp6
S'name'
p7
S'e'
sS'lib'
p8
(dp9
sS'unicodes'
p10
(tsS'width'
p11
I975
sS'contours'
p12
((dp13
S'points'
p14
((dp15
S'segmentType'
p16
S'line'
p17
sS'x'
I171
sS'smooth'
p18
I0
sS'y'
I442
s(dp19
S'y'
I592
sS'x'
I182
sg18
I0
s(dp20
S'y'
I755
sS'x'
I296
sg18
I0
s(dp21
g16
S'curve'
p22
sS'x'
I507
sg18
I1
sS'y'
I755
s(dp23
S'y'
I755
sS'x'
I699
sg18
I0
s(dp24
S'y'
I616
sS'x'
I803
sg18
I0
s(dp25
g16
S'curve'
p26
sS'x'
I820
sg18
I0
sS'y'
I442
stp27
s(dp28
g14
((dp29
g16
S'line'
p30
sS'x'
I890
sg18
I0
sS'y'
I383
s(dp31
S'y'
I601
sS'x'
I889
sg18
I0
s(dp32
S'y'
I819
sS'x'
F778.76831688899995
sg18
I0
s(dp33
g16
S'curve'
p34
sS'x'
I502
sg18
I1
sS'y'
I819
s(dp35
S'y'
I819
sS'x'
I232
sg18
I0
s(dp36
S'y'
I618
sS'x'
I90
sg18
I0
s(dp37
g16
S'curve'
p38
sS'x'
I90
sg18
I1
sS'y'
I403
s(dp39
S'y'
I150
sS'x'
I90
sg18
I0
s(dp40
S'y'
S'-14'
p41
sS'x'
I284
sg18
I0
s(dp42
g16
S'curve'
p43
sS'x'
I511
sg18
I1
sS'y'
S'-14'
p44
s(dp45
S'y'
S'-14'
p46
sS'x'
I657
sg18
I0
s(dp47
S'y'
I34
sS'x'
I761
sg18
I0
s(dp48
g16
S'curve'
p49
sS'x'
I868
sg18
I0
sS'y'
I139
s(dp50
g16
S'line'
p51
sS'x'
I836
sg18
I0
sS'y'
I197
s(dp52
S'y'
I103
sS'x'
I747
sg18
I0
s(dp53
S'y'
I50
sS'x'
I652
sg18
I0
s(dp54
g16
S'curve'
p55
sS'x'
I515
sg18
I1
sS'y'
I50
s(dp56
S'y'
I50
sS'x'
I347
sg18
I0
s(dp57
S'y'
I162
sS'x'
I182
sg18
I0
s(dp58
g16
S'curve'
p59
sS'x'
I169
sg18
I0
sS'y'
I383
stp60
stp61
sS'components'
p62
(tsS'anchors'
p63
(tsss."
LayerCount: 2
Fore
SplineSet
136 435 m 1
 792 435 l 1
 771 662 628 770 469 770 c 0
 292 770 145 639 136 435 c 1
487 -21 m 0
 262 -21 60 137 60 402 c 0
 60 680 261 826 469 826 c 0
 656 826 857 701 864 385 c 1
 136 385 l 1
 147 158 317 36 489 36 c 0
 616 36 749 101 820 182 c 1
 845 129 l 1
 748 30 615 -21 487 -21 c 0
EndSplineSet
EndChar

StartChar: eight
Encoding: 56 56 221
Width: 993
VWidth: 0
Flags: HW
PickledData: "(dp1
S'org.robofab.postScriptHintData'
p2
(dp3
sS'com.typemytype.robofont.layerData'
p4
(dp5
S'b'
(dp6
S'name'
p7
S'eight'
p8
sS'lib'
p9
(dp10
sS'unicodes'
p11
(tsS'width'
p12
I964
sS'contours'
p13
(tsS'components'
p14
(tsS'anchors'
p15
(tsss."
LayerCount: 2
Fore
SplineSet
497 -22 m 256
 257 -22 114 106 114 298 c 256
 114 454 190 583 357 612 c 257
 210 662 153 750 153 883 c 256
 153 1060 285 1174 494 1174 c 0
 495 1174 496 1174 497 1174 c 256
 498 1174 499 1174 500 1174 c 0
 709 1174 842 1060 842 883 c 256
 842 746 777 633 630 602 c 257
 792 569 879 455 879 298 c 256
 879 105 734 -22 497 -22 c 256
497 37 m 256
 684 37 802 139 802 300 c 256
 802 471 701 566 416 586 c 257
 273 563 191 466 191 300 c 256
 191 139 309 37 497 37 c 256
588 626 m 257
 693 658 767 720 767 879 c 256
 767 1023 665 1115 497 1115 c 256
 330 1115 227 1024 227 879 c 256
 227 723 331 639 588 626 c 257
EndSplineSet
EndChar

StartChar: emdash
Encoding: 373 8212 224
Width: 1018
VWidth: 0
Flags: HW
PickledData: "(dp1
S'org.robofab.postScriptHintData'
p2
(dp3
sS'com.typemytype.robofont.layerData'
p4
(dp5
S'b'
(dp6
S'name'
p7
S'emdash'
p8
sS'lib'
p9
(dp10
sS'unicodes'
p11
(tsS'width'
p12
I1309
sS'contours'
p13
(tsS'components'
p14
(tsS'anchors'
p15
(tsss."
LayerCount: 2
Fore
SplineSet
0 454 m 257
 0 508 l 257
 1018 508 l 257
 1018 454 l 257
 0 454 l 257
EndSplineSet
EndChar

StartChar: emptyset
Encoding: 374 8709 225
Width: 1347
VWidth: 0
Flags: HW
PickledData: "(dp1
S'org.robofab.postScriptHintData'
p2
(dp3
s."
LayerCount: 2
Fore
SplineSet
232 -46 m 257
 199 -15 l 257
 309 115 l 257
 196 214 125 360 125 525 c 256
 125 832 371 1073 673 1073 c 256
 803 1073 923 1027 1017 951 c 257
 1139 1094 l 257
 1173 1063 l 257
 1053 921 l 257
 1157 821 1222 681 1222 525 c 256
 1222 223 976 -22 673 -22 c 256
 550 -22 436 18 344 86 c 257
 232 -46 l 257
343 155 m 257
 984 911 l 257
 899 980 791 1021 673 1021 c 256
 399 1021 179 801 179 525 c 256
 179 377 242 245 343 155 c 257
673 30 m 256
 947 30 1168 253 1168 525 c 256
 1168 663 1111 789 1018 880 c 257
 379 126 l 257
 461 65 562 30 673 30 c 256
EndSplineSet
EndChar

StartChar: endash
Encoding: 375 8211 226
Width: 697
VWidth: 0
Flags: HW
PickledData: "(dp1
S'org.robofab.postScriptHintData'
p2
(dp3
sS'com.typemytype.robofont.layerData'
p4
(dp5
S'b'
(dp6
S'name'
p7
S'endash'
p8
sS'lib'
p9
(dp10
sS'unicodes'
p11
(tsS'width'
p12
I1113
sS'contours'
p13
(tsS'components'
p14
(tsS'anchors'
p15
(tsss."
LayerCount: 2
Fore
SplineSet
0 449 m 257
 0 504 l 257
 697 504 l 257
 697 449 l 257
 0 449 l 257
EndSplineSet
EndChar

StartChar: eng
Encoding: 376 331 227
Width: 1023
VWidth: 0
Flags: HW
PickledData: "(dp1
S'org.robofab.postScriptHintData'
p2
(dp3
s."
LayerCount: 2
Fore
SplineSet
37 0 m 257
 37 55 l 257
 211 55 l 257
 211 749 l 257
 40 749 l 257
 40 804 l 257
 285 804 l 257
 285 554 285 305 285 55 c 257
 452 55 l 257
 452 0 l 257
 37 0 l 257
480 -360 m 257
 482 -305 l 257
 695 -305 792 -198 792 -17 c 258
 792 583 l 258
 792 697 719 766 602 766 c 256
 516 766 377 712 241 630 c 257
 241 685 l 257
 370 768 511 826 617 826 c 256
 765 826 866 732 866 575 c 258
 866 -4 l 258
 866 -253 714 -360 480 -360 c 257
EndSplineSet
EndChar

StartChar: equal
Encoding: 61 61 229
Width: 814
VWidth: 0
Flags: HW
PickledData: "(dp1
S'org.robofab.postScriptHintData'
p2
(dp3
sS'com.typemytype.robofont.layerData'
p4
(dp5
S'b'
(dp6
S'name'
p7
S'equal'
p8
sS'lib'
p9
(dp10
sS'unicodes'
p11
(tsS'width'
p12
I715
sS'contours'
p13
(tsS'components'
p14
(tsS'anchors'
p15
(tsss."
LayerCount: 2
Fore
SplineSet
173 298 m 257
 173 360 l 257
 642 360 l 257
 642 298 l 257
 173 298 l 257
173 561 m 257
 173 621 l 257
 642 621 l 257
 642 561 l 257
 173 561 l 257
EndSplineSet
EndChar

StartChar: estimated
Encoding: 378 8494 230
Width: 704
VWidth: 0
Flags: HW
PickledData: "(dp1
S'org.robofab.postScriptHintData'
p2
(dp3
s."
LayerCount: 2
Fore
SplineSet
536 -15 m 256
 294 -15 112 156 112 406 c 256
 112 649 274 820 514 820 c 256
 736 820 889 648 889 395 c 257
 218 395 l 257
 227 182 359 32 549 32 c 0
 676 32 786 87 862 166 c 257
 890 135 l 257
 800 47 681 -15 536 -15 c 256
218 436 m 257
 827 436 l 257
 818 644 684 787 523 788 c 256
 351 788 226 644 218 436 c 257
EndSplineSet
EndChar

StartChar: eth
Encoding: 379 240 231
Width: 913
VWidth: 0
Flags: HW
PickledData: "(dp1
S'org.robofab.postScriptHintData'
p2
(dp3
sS'com.typemytype.robofont.layerData'
p4
(dp5
S'b'
(dp6
S'name'
p7
S'eth'
p8
sS'lib'
p9
(dp10
sS'unicodes'
p11
(tsS'width'
p12
I886
sS'contours'
p13
(tsS'components'
p14
(tsS'anchors'
p15
(tsss."
LayerCount: 2
Fore
SplineSet
451 -22 m 256
 179 -22 52 201 52 432 c 256
 52 629 225 802 437 802 c 256
 526 802 627 759 691 701 c 257
 571 956 319 1154 126 1313 c 257
 168 1358 l 257
 408 1152 842 818 842 396 c 256
 842 129 662 -22 451 -22 c 256
451 41 m 256
 680 41 771 228 771 404 c 256
 771 640 602 744 445 744 c 256
 288 744 127 636 127 411 c 256
 127 231 226 41 451 41 c 256
184 908 m 257
 155 961 l 257
 718 1204 l 257
 747 1153 l 257
 184 908 l 257
EndSplineSet
EndChar

StartChar: exclam
Encoding: 33 33 232
Width: 220
VWidth: 0
Flags: HW
PickledData: "(dp1
S'org.robofab.postScriptHintData'
p2
(dp3
sS'com.typemytype.robofont.layerData'
p4
(dp5
S'b'
(dp6
S'name'
p7
S'exclam'
p8
sS'lib'
p9
(dp10
sS'unicodes'
p11
(tsS'width'
p12
I150
sS'contours'
p13
(tsS'components'
p14
(tsS'anchors'
p15
(tsss."
LayerCount: 2
Fore
SplineSet
96 339 m 257
 72 765 l 257
 72 1169 l 257
 151 1169 l 257
 151 765 l 257
 129 339 l 257
 96 339 l 257
112 -14 m 256
 76 -14 49 11 49 45 c 256
 49 79 76 104 112 104 c 256
 150 104 177 79 177 45 c 256
 177 11 150 -14 112 -14 c 256
EndSplineSet
EndChar

StartChar: f
Encoding: 102 102 234
Width: 679
VWidth: 0
Flags: HW
PickledData: "(dp1
S'org.robofab.postScriptHintData'
p2
(dp3
sS'com.typemytype.robofont.layerData'
p4
(dp5
S'b'
(dp6
S'name'
p7
S'f'
sS'lib'
p8
(dp9
sS'unicodes'
p10
(tsS'width'
p11
I671
sS'contours'
p12
(tsS'components'
p13
(tsS'anchors'
p14
(tsss."
LayerCount: 2
Fore
SplineSet
105 0 m 1
 105 55 l 1
 258 55 l 1
 258 749 l 1
 103 749 l 1
 103 804 l 1
 258 804 l 1
 258 1019 l 2
 258 1131 324 1199 440 1199 c 0
 535 1199 602 1151 611 1053 c 1
 554 1033 l 1
 544 1105 508 1143 443 1143 c 0
 379 1143 336 1101 336 1018 c 2
 336 804 l 1
 566 804 l 1
 566 749 l 1
 336 749 l 1
 336 55 l 1
 532 55 l 1
 532 0 l 1
 105 0 l 1
EndSplineSet
EndChar

StartChar: ff
Encoding: 381 64256 236
Width: 1251
VWidth: 0
Flags: HW
PickledData: "(dp1
S'org.robofab.postScriptHintData'
p2
(dp3
sS'com.typemytype.robofont.layerData'
p4
(dp5
S'b'
(dp6
S'name'
p7
S'ff'
p8
sS'lib'
p9
(dp10
sS'unicodes'
p11
(tsS'width'
p12
I1226
sS'contours'
p13
(tsS'components'
p14
(tsS'anchors'
p15
(tsss."
LayerCount: 2
Fore
SplineSet
675 0 m 257
 675 55 l 257
 823 55 l 257
 823 750 l 257
 509 750 l 257
 509 805 l 257
 823 805 l 257
 823 1017 l 258
 823 1135 906 1199 995 1199 c 256
 1072 1199 1154 1169 1166 1053 c 257
 1110 1033 l 257
 1099 1123 1048 1142 997 1142 c 256
 948 1142 898 1100 898 1021 c 258
 898 805 l 257
 1122 805 l 257
 1122 750 l 257
 898 750 l 257
 898 55 l 257
 1086 55 l 257
 1086 0 l 257
 675 0 l 257
EndSplineSet
Refer: 234 102 N 1 0 0 1 0 0 2
Ligature2: "'liga' Standard Ligatures lookup 0-1" f f
EndChar

StartChar: ffi
Encoding: 382 64259 237
Width: 1709
VWidth: 0
Flags: HW
PickledData: "(dp1
S'org.robofab.postScriptHintData'
p2
(dp3
sS'com.typemytype.robofont.layerData'
p4
(dp5
S'b'
(dp6
S'name'
p7
S'ffi'
p8
sS'lib'
p9
(dp10
sS'unicodes'
p11
(tsS'width'
p12
I1699
sS'contours'
p13
(tsS'components'
p14
(tsS'anchors'
p15
(tsss."
LayerCount: 2
Fore
SplineSet
178 0 m 257
 178 55 l 257
 327 55 l 257
 327 749 l 257
 174 749 l 257
 174 804 l 257
 327 804 l 257
 327 994 l 258
 327 1133 457 1214 644 1214 c 256
 759 1214 897 1170 1002 1097 c 257
 971 1055 l 257
 875 1119 751 1159 652 1159 c 256
 502 1159 402 1100 402 996 c 258
 402 804 l 257
 822 804 l 257
 822 749 l 257
 402 749 l 257
 402 55 l 257
 582 55 l 257
 582 0 l 257
 178 0 l 257
EndSplineSet
Refer: 239 64257 N 1 0 0 1 643 0 2
Ligature2: "'liga' Standard Ligatures lookup 0-1" f f i
EndChar

StartChar: ffl
Encoding: 383 64260 238
Width: 1795
VWidth: 0
Flags: HW
PickledData: "(dp1
S'org.robofab.postScriptHintData'
p2
(dp3
sS'com.typemytype.robofont.layerData'
p4
(dp5
S'b'
(dp6
S'name'
p7
S'ffl'
p8
sS'lib'
p9
(dp10
sS'unicodes'
p11
(tsS'width'
p12
I1801
sS'contours'
p13
(tsS'components'
p14
(tsS'anchors'
p15
(tsss."
LayerCount: 2
Fore
SplineSet
100 0 m 257
 100 55 l 257
 248 55 l 257
 248 749 l 257
 95 749 l 257
 95 804 l 257
 248 804 l 257
 248 994 l 258
 248 1133 379 1214 566 1214 c 256
 680 1214 818 1170 923 1097 c 257
 892 1055 l 257
 797 1119 673 1159 574 1159 c 256
 423 1159 323 1100 323 996 c 258
 323 804 l 257
 743 804 l 257
 743 749 l 257
 323 749 l 257
 323 55 l 257
 503 55 l 257
 503 0 l 257
 100 0 l 257
EndSplineSet
Refer: 242 64258 N 1 0 0 1 562 0 2
Ligature2: "'liga' Standard Ligatures lookup 0-1" f f l
EndChar

StartChar: fi
Encoding: 384 64257 239
Width: 1080
VWidth: 0
Flags: HW
PickledData: "(dp1
S'org.robofab.postScriptHintData'
p2
(dp3
sS'com.typemytype.robofont.layerData'
p4
(dp5
S'b'
(dp6
S'name'
p7
S'fi'
p8
sS'lib'
p9
(dp10
sS'unicodes'
p11
(tsS'width'
p12
I1044
sS'contours'
p13
(tsS'components'
p14
(tsS'anchors'
p15
(tsss."
LayerCount: 2
Fore
SplineSet
111 0 m 257
 111 55 l 257
 271 55 l 257
 271 749 l 257
 106 749 l 257
 106 804 l 257
 271 804 l 257
 271 940 l 258
 271 1121 422 1220 649 1220 c 256
 815 1220 933 1160 933 1066 c 256
 933 1026 909 999 869 999 c 256
 830 999 800 1022 800 1055 c 256
 800 1076 810 1098 835 1106 c 257
 809 1153 713 1169 646 1169 c 256
 463 1169 346 1089 346 941 c 258
 346 804 l 257
 912 804 l 257
 912 55 l 257
 1064 55 l 257
 1064 0 l 257
 687 0 l 257
 687 55 l 257
 838 55 l 257
 838 749 l 257
 346 749 l 257
 346 55 l 257
 541 55 l 257
 541 0 l 257
 111 0 l 257
EndSplineSet
Ligature2: "'liga' Standard Ligatures lookup 0-1" f i
EndChar

StartChar: five
Encoding: 53 53 240
Width: 982
VWidth: 0
Flags: HW
PickledData: "(dp1
S'org.robofab.postScriptHintData'
p2
(dp3
sS'com.typemytype.robofont.layerData'
p4
(dp5
S'b'
(dp6
S'name'
p7
S'five'
p8
sS'lib'
p9
(dp10
sS'unicodes'
p11
(tsS'width'
p12
I964
sS'contours'
p13
(tsS'components'
p14
(tsS'anchors'
p15
(tsss."
LayerCount: 2
Fore
SplineSet
485 -22 m 256
 329 -22 198 48 105 169 c 257
 150 219 l 257
 231 105 348 40 485 40 c 256
 709 40 835 152 835 352 c 256
 835 554 717 666 505 666 c 256
 412 666 301 627 229 546 c 257
 162 573 l 257
 166 1152 l 257
 841 1152 l 257
 841 902 l 257
 770 902 l 257
 770 1094 l 257
 236 1094 l 257
 232 613 l 257
 293 688 392 730 508 730 c 256
 765 730 910 595 910 354 c 256
 910 114 757 -22 485 -22 c 256
EndSplineSet
EndChar

StartChar: fj
Encoding: 385 -1 241
Width: 1076
VWidth: 0
Flags: HW
PickledData: "(dp1
S'org.robofab.postScriptHintData'
p2
(dp3
s."
LayerCount: 2
Fore
SplineSet
637 -260 m 257
 637 -204 l 257
 706 -204 l 258
 841 -204 842 -148 842 -34 c 258
 842 749 l 257
 346 749 l 257
 346 55 l 257
 541 55 l 257
 541 0 l 257
 111 0 l 257
 111 55 l 257
 271 55 l 257
 271 749 l 257
 106 749 l 257
 106 804 l 257
 271 804 l 257
 271 940 l 258
 271 1121 422 1220 649 1220 c 256
 815 1220 933 1160 933 1066 c 256
 933 1026 909 999 869 999 c 256
 830 999 800 1022 800 1055 c 256
 800 1076 810 1098 835 1106 c 257
 809 1153 713 1169 646 1169 c 256
 463 1169 346 1089 346 941 c 258
 346 804 l 257
 919 804 l 257
 919 -18 l 258
 919 -29 919 -41 919 -53 c 0
 919 -148 908 -260 714 -260 c 258
 637 -260 l 257
EndSplineSet
EndChar

StartChar: fl
Encoding: 386 64258 242
Width: 1228
VWidth: 0
Flags: HW
PickledData: "(dp1
S'org.robofab.postScriptHintData'
p2
(dp3
sS'com.typemytype.robofont.layerData'
p4
(dp5
S'b'
(dp6
S'name'
p7
S'fl'
p8
sS'lib'
p9
(dp10
sS'unicodes'
p11
(tsS'width'
p12
I1223
sS'contours'
p13
(tsS'components'
p14
(tsS'anchors'
p15
(tsss."
LayerCount: 2
Fore
SplineSet
111 0 m 257
 111 55 l 257
 271 55 l 257
 271 749 l 257
 106 749 l 257
 106 804 l 257
 271 804 l 257
 271 955 l 258
 271 1139 435 1245 661 1245 c 256
 830 1245 947 1196 947 1117 c 258
 947 55 l 257
 1142 55 l 257
 1142 0 l 257
 899 0 l 258
 883 0 872 42 872 55 c 258
 872 1110 l 258
 872 1155 787 1184 658 1184 c 256
 475 1184 346 1102 346 963 c 258
 346 804 l 257
 554 804 l 257
 554 749 l 257
 346 749 l 257
 346 55 l 257
 541 55 l 257
 541 0 l 257
 111 0 l 257
EndSplineSet
Ligature2: "'liga' Standard Ligatures lookup 0-1" f l
EndChar

StartChar: florin
Encoding: 387 402 243
Width: 794
VWidth: 0
Flags: HW
PickledData: "(dp1
S'org.robofab.postScriptHintData'
p2
(dp3
s."
LayerCount: 2
Fore
SplineSet
770 1116 m 0
 770 1089 755 1059 703 1059 c 257
 701 1124 679 1163 624 1163 c 0
 568 1163 526 1127 505 1009 c 258
 467 800 l 257
 683 800 l 257
 677 752 l 257
 460 752 l 257
 337 55 l 257
 311 -104 236 -137 148 -137 c 0
 130 -137 112 -136 93 -134 c 257
 95 -91 l 257
 108 -92 120 -92 132 -92 c 0
 202 -92 247 -70 268 55 c 257
 389 752 l 257
 216 752 l 257
 223 800 l 257
 395 800 l 257
 435 1010 l 257
 457 1132 520 1202 636 1202 c 0
 706 1202 770 1170 770 1116 c 0
EndSplineSet
EndChar

StartChar: foundryicon
Encoding: 388 -1 244
Width: 1347
VWidth: 0
Flags: HW
PickledData: "(dp1
S'org.robofab.postScriptHintData'
p2
(dp3
sS'com.typemytype.robofont.layerData'
p4
(dp5
S'b'
(dp6
S'name'
p7
S'foundryicon'
p8
sS'lib'
p9
(dp10
sS'unicodes'
p11
(tsS'width'
p12
I313
sS'contours'
p13
(tsS'components'
p14
(tsS'anchors'
p15
(tsss."
LayerCount: 2
Fore
SplineSet
485 405 m 257
 591 405 l 257
 591 552 l 257
 761 405 l 257
 867 405 l 257
 867 672 l 257
 761 672 l 257
 761 523 l 257
 591 672 l 257
 485 672 l 257
 485 405 l 257
280 2 m 257
 423 461 l 257
 34 755 l 257
 519 755 l 257
 669 1215 l 257
 828 755 l 257
 1313 755 l 257
 922 461 l 257
 1066 2 l 257
 669 278 l 257
 280 2 l 257
EndSplineSet
EndChar

StartChar: four
Encoding: 52 52 245
Width: 966
VWidth: 0
Flags: HW
PickledData: "(dp1
S'org.robofab.postScriptHintData'
p2
(dp3
sS'com.typemytype.robofont.layerData'
p4
(dp5
S'b'
(dp6
S'name'
p7
S'four'
p8
sS'lib'
p9
(dp10
sS'unicodes'
p11
(tsS'width'
p12
I964
sS'contours'
p13
(tsS'components'
p14
(tsS'anchors'
p15
(tsss."
LayerCount: 2
Fore
SplineSet
434 0 m 257
 434 55 l 257
 580 55 l 257
 580 363 l 257
 109 363 l 257
 97 426 l 257
 571 1152 l 257
 651 1152 l 257
 651 418 l 257
 862 418 l 257
 862 363 l 257
 651 363 l 257
 651 55 l 257
 794 55 l 257
 794 0 l 257
 434 0 l 257
170 418 m 257
 580 418 l 257
 580 1064 l 257
 170 418 l 257
EndSplineSet
EndChar

StartChar: foursuperior
Encoding: 389 8308 246
Width: 769
VWidth: 0
Flags: HW
PickledData: "(dp1
S'org.robofab.postScriptHintData'
p2
(dp3
sS'com.typemytype.robofont.layerData'
p4
(dp5
S'b'
(dp6
S'name'
p7
S'uni2074'
p8
sS'lib'
p9
(dp10
sS'unicodes'
p11
(tsS'width'
p12
I718
sS'contours'
p13
(tsS'components'
p14
(tsS'anchors'
p15
(tsss."
LayerCount: 2
Fore
SplineSet
325 546 m 257
 325 593 l 257
 444 593 l 257
 444 779 l 257
 80 779 l 257
 68 826 l 257
 436 1326 l 257
 501 1326 l 257
 501 826 l 257
 683 826 l 257
 683 779 l 257
 501 779 l 257
 501 593 l 257
 620 593 l 257
 620 546 l 257
 325 546 l 257
134 826 m 257
 444 826 l 257
 444 1256 l 257
 134 826 l 257
EndSplineSet
EndChar

StartChar: fraction
Encoding: 390 8260 247
Width: 411
VWidth: 0
Flags: HW
PickledData: "(dp1
S'org.robofab.postScriptHintData'
p2
(dp3
sS'com.typemytype.robofont.layerData'
p4
(dp5
S'b'
(dp6
S'name'
p7
S'fraction'
p8
sS'lib'
p9
(dp10
sS'unicodes'
p11
(tsS'width'
p12
I337
sS'contours'
p13
(tsS'components'
p14
(tsS'anchors'
p15
(tsss."
LayerCount: 2
Fore
SplineSet
-54 -30 m 257
 389 1282 l 257
 453 1282 l 257
 16 -30 l 257
 -54 -30 l 257
EndSplineSet
EndChar

StartChar: g
Encoding: 103 103 248
Width: 1024
VWidth: 0
Flags: HW
PickledData: "(dp1
S'org.robofab.postScriptHintData'
p2
(dp3
sS'com.typemytype.robofont.layerData'
p4
(dp5
S'b'
(dp6
S'name'
p7
S'g'
sS'lib'
p8
(dp9
sS'unicodes'
p10
(tsS'width'
p11
I1013
sS'contours'
p12
((dp13
S'points'
p14
((dp15
S'segmentType'
p16
S'curve'
p17
sS'x'
I510
sS'smooth'
p18
I1
sS'y'
S'-333'
p19
s(dp20
S'y'
S'-333'
p21
sS'x'
I722
sg18
I0
s(dp22
S'y'
S'-225'
p23
sS'x'
I880
sg18
I0
s(dp24
g16
S'curve'
p25
sS'x'
I880
sg18
I0
sS'y'
I15
s(dp26
g16
S'line'
p27
sS'x'
I880
sg18
I0
sS'y'
I735
s(dp28
g16
S'line'
p29
sS'x'
I1005
sg18
I0
sS'y'
I735
s(dp30
g16
S'line'
p31
sS'x'
I1005
sg18
I0
sS'y'
I789
s(dp32
g16
S'line'
p33
sS'x'
I804
sg18
I0
sS'y'
I789
s(dp34
g16
S'line'
p35
sS'x'
I804
sg18
I0
sS'y'
I673
s(dp36
S'y'
I673
sS'x'
I804
sg18
I0
s(dp37
S'y'
S'-2'
p38
sS'x'
I804
sg18
I0
s(dp39
g16
S'curve'
p40
sS'x'
I804
sg18
I1
sS'y'
S'-2'
p41
s(dp42
S'y'
S'-173'
p43
sS'x'
I804
sg18
I0
s(dp44
S'y'
S'-271'
p45
sS'x'
I695
sg18
I0
s(dp46
g16
S'curve'
p47
sS'x'
I515
sg18
I1
sS'y'
S'-271'
p48
s(dp49
S'y'
S'-271'
p50
sS'x'
I444
sg18
I0
s(dp51
S'y'
S'-255'
p52
sS'x'
I362
sg18
I0
s(dp53
g16
S'curve'
p54
sS'x'
I272
sg18
I0
sS'y'
S'-224'
p55
s(dp56
g16
S'line'
p57
sS'x'
I257
sg18
I0
sS'y'
S'-289'
p58
s(dp59
S'y'
S'-318'
p60
sS'x'
I345
sg18
I0
s(dp61
S'y'
S'-333'
p62
sS'x'
I431
sg18
I0
stp63
stp64
sS'components'
p65
(tsS'anchors'
p66
(tsss."
LayerCount: 2
Fore
SplineSet
63 412 m 0
 63 661 233 824 462 824 c 0
 573 824 698 780 786 712 c 1
 786 804 l 1
 997 804 l 1
 997 749 l 1
 861 749 l 1
 861 -17 l 2
 861 -267 712 -377 478 -377 c 0
 391 -377 293 -358 189 -330 c 1
 202 -272 l 1
 311 -303 403 -318 479 -318 c 0
 685 -318 787 -212 787 -30 c 2
 787 105 l 1
 704 37 589 -7 485 -7 c 0
 244 -7 63 161 63 412 c 0
786 659 m 1
 697 726 576 769 471 769 c 0
 277 769 138 622 138 402 c 0
 138 191 288 49 494 49 c 0
 592 49 704 93 787 161 c 1
 786 659 l 1
EndSplineSet
EndChar

StartChar: germandbls
Encoding: 223 223 255
Width: 1187
VWidth: 0
Flags: HW
PickledData: "(dp1
S'org.robofab.postScriptHintData'
p2
(dp3
sS'com.typemytype.robofont.layerData'
p4
(dp5
S'b'
(dp6
S'name'
p7
S'germandbls'
p8
sS'lib'
p9
(dp10
sS'unicodes'
p11
(tsS'width'
p12
I1198
sS'contours'
p13
(tsS'components'
p14
(tsS'anchors'
p15
(tsss."
LayerCount: 2
Fore
SplineSet
97 0 m 257
 97 60 l 257
 250 60 l 257
 250 866 l 258
 250 1119 375 1258 604 1258 c 256
 824 1258 950 1160 950 975 c 256
 950 826 866 717 732 685 c 257
 987 660 1097 528 1097 356 c 256
 1097 141 903 0 583 0 c 257
 583 60 l 257
 841 60 1020 165 1020 356 c 256
 1020 540 863 652 597 653 c 257
 597 700 l 257
 779 709 876 812 876 974 c 256
 876 1112 788 1200 604 1200 c 256
 418 1200 329 1073 329 871 c 258
 329 60 l 257
 450 60 l 257
 450 0 l 257
 97 0 l 257
EndSplineSet
EndChar

StartChar: grave
Encoding: 96 96 256
Width: 191
VWidth: 0
Flags: HW
PickledData: "(dp1
S'org.robofab.postScriptHintData'
p2
(dp3
sS'com.typemytype.robofont.layerData'
p4
(dp5
S'b'
(dp6
S'name'
p7
S'grave'
p8
sS'lib'
p9
(dp10
sS'unicodes'
p11
(tsS'width'
p12
I50
sS'contours'
p13
(tsS'components'
p14
(tsS'anchors'
p15
(tsss."
LayerCount: 2
Fore
SplineSet
131 987 m 257
 1 1247 l 257
 80 1247 l 257
 173 987 l 257
 131 987 l 257
EndSplineSet
EndChar

StartChar: greater
Encoding: 62 62 257
Width: 933
VWidth: 0
Flags: HW
PickledData: "(dp1
S'org.robofab.postScriptHintData'
p2
(dp3
sS'com.typemytype.robofont.layerData'
p4
(dp5
S'b'
(dp6
S'name'
p7
S'greater'
p8
sS'lib'
p9
(dp10
sS'unicodes'
p11
(tsS'width'
p12
I896
sS'contours'
p13
(tsS'components'
p14
(tsS'anchors'
p15
(tsss."
LayerCount: 2
Fore
SplineSet
144 -77 m 257
 144 14 l 257
 889 573 l 257
 144 1134 l 257
 144 1227 l 257
 970 593 l 257
 970 551 l 257
 144 -77 l 257
EndSplineSet
EndChar

StartChar: greaterequal
Encoding: 396 8805 258
Width: 683
VWidth: 0
Flags: HW
PickledData: "(dp1
S'org.robofab.postScriptHintData'
p2
(dp3
sS'com.typemytype.robofont.layerData'
p4
(dp5
S'b'
(dp6
S'name'
p7
S'greaterequal'
p8
sS'lib'
p9
(dp10
sS'unicodes'
p11
(tsS'width'
p12
I595
sS'contours'
p13
(tsS'components'
p14
(tsS'anchors'
p15
(tsss."
LayerCount: 2
Fore
SplineSet
25 188 m 257
 25 253 l 257
 588 552 l 257
 25 853 l 257
 25 919 l 257
 689 570 l 257
 689 535 l 257
 25 188 l 257
25 0 m 257
 25 55 l 257
 689 55 l 257
 689 0 l 257
 25 0 l 257
EndSplineSet
EndChar

StartChar: guillemotleft
Encoding: 397 171 259
Width: 786
VWidth: 0
Flags: HW
PickledData: "(dp1
S'org.robofab.postScriptHintData'
p2
(dp3
sS'com.typemytype.robofont.layerData'
p4
(dp5
S'b'
(dp6
S'name'
p7
S'guillemotleft'
p8
sS'lib'
p9
(dp10
sS'unicodes'
p11
(tsS'width'
p12
I744
sS'contours'
p13
(tsS'components'
p14
(tsS'anchors'
p15
(tsss."
LayerCount: 2
Fore
SplineSet
330 276 m 257
 56 659 l 257
 330 1040 l 257
 382 1040 l 257
 170 659 l 257
 382 276 l 257
 330 276 l 257
605 276 m 257
 330 659 l 257
 605 1040 l 257
 657 1040 l 257
 443 659 l 257
 657 276 l 257
 605 276 l 257
EndSplineSet
EndChar

StartChar: guillemotright
Encoding: 398 187 260
Width: 786
VWidth: 0
Flags: HW
PickledData: "(dp1
S'org.robofab.postScriptHintData'
p2
(dp3
sS'com.typemytype.robofont.layerData'
p4
(dp5
S'b'
(dp6
S'name'
p7
S'guillemotright'
p8
sS'lib'
p9
(dp10
sS'unicodes'
p11
(tsS'width'
p12
I744
sS'contours'
p13
(tsS'components'
p14
(tsS'anchors'
p15
(tsss."
LayerCount: 2
Fore
SplineSet
129 276 m 257
 341 659 l 257
 129 1040 l 257
 181 1040 l 257
 455 659 l 257
 181 276 l 257
 129 276 l 257
404 276 m 257
 616 659 l 257
 404 1040 l 257
 456 1040 l 257
 730 659 l 257
 456 276 l 257
 404 276 l 257
EndSplineSet
EndChar

StartChar: guilsinglleft
Encoding: 399 8249 261
Width: 448
VWidth: 0
Flags: HW
PickledData: "(dp1
S'org.robofab.postScriptHintData'
p2
(dp3
sS'com.typemytype.robofont.layerData'
p4
(dp5
S'b'
(dp6
S'name'
p7
S'guilsinglleft'
p8
sS'lib'
p9
(dp10
sS'unicodes'
p11
(tsS'width'
p12
I405
sS'contours'
p13
(tsS'components'
p14
(tsS'anchors'
p15
(tsss."
LayerCount: 2
Fore
SplineSet
284 276 m 257
 11 659 l 257
 284 1040 l 257
 336 1040 l 257
 124 659 l 257
 336 276 l 257
 284 276 l 257
EndSplineSet
EndChar

StartChar: guilsinglright
Encoding: 400 8250 262
Width: 448
VWidth: 0
Flags: HW
PickledData: "(dp1
S'org.robofab.postScriptHintData'
p2
(dp3
sS'com.typemytype.robofont.layerData'
p4
(dp5
S'b'
(dp6
S'name'
p7
S'guilsinglright'
p8
sS'lib'
p9
(dp10
sS'unicodes'
p11
(tsS'width'
p12
I405
sS'contours'
p13
(tsS'components'
p14
(tsS'anchors'
p15
(tsss."
LayerCount: 2
Fore
SplineSet
112 276 m 257
 324 659 l 257
 112 1040 l 257
 164 1040 l 257
 438 660 l 257
 164 276 l 257
 112 276 l 257
EndSplineSet
EndChar

StartChar: h
Encoding: 104 104 263
Width: 994
VWidth: 0
Flags: HW
PickledData: "(dp1
S'org.robofab.postScriptHintData'
p2
(dp3
sS'com.typemytype.robofont.layerData'
p4
(dp5
S'b'
(dp6
S'name'
p7
S'h'
sS'lib'
p8
(dp9
sS'unicodes'
p10
(tsS'width'
p11
I965
sS'contours'
p12
(tsS'components'
p13
(tsS'anchors'
p14
(tsss."
LayerCount: 2
Fore
SplineSet
30 0 m 1
 30 55 l 1
 179 55 l 1
 179 1119 l 1
 36 1119 l 1
 36 1174 l 1
 254 1174 l 1
 254 712 l 1
 370 781 492 826 586 826 c 0
 734 826 835 732 835 575 c 2
 835 55 l 1
 988 55 l 1
 988 0 l 1
 594 0 l 1
 594 55 l 1
 761 55 l 1
 761 583 l 2
 761 697 688 766 572 766 c 0
 495 766 375 723 254 655 c 1
 254 55 l 1
 398 55 l 1
 398 0 l 1
 30 0 l 1
EndSplineSet
EndChar

StartChar: hungarumlaut
Encoding: 403 733 266
Width: 436
VWidth: 0
Flags: HW
PickledData: "(dp1
S'org.robofab.postScriptHintData'
p2
(dp3
sS'com.typemytype.robofont.layerData'
p4
(dp5
S'b'
(dp6
S'name'
p7
S'hungarumlaut'
p8
sS'lib'
p9
(dp10
sS'unicodes'
p11
(tsS'width'
p12
I356
sS'contours'
p13
(tsS'components'
p14
(tsS'anchors'
p15
(tsss."
LayerCount: 2
Fore
SplineSet
376 1287 m 257
 455 1287 l 257
 309 987 l 257
 267 987 l 257
 376 1287 l 257
168 1287 m 257
 247 1287 l 257
 101 987 l 257
 59 987 l 257
 168 1287 l 257
EndSplineSet
EndChar

StartChar: hyphen
Encoding: 45 45 267
Width: 857
VWidth: 0
Flags: HW
PickledData: "(dp1
S'org.robofab.postScriptHintData'
p2
(dp3
sS'com.typemytype.robofont.layerData'
p4
(dp5
S'b'
(dp6
S'name'
p7
S'hyphen'
p8
sS'lib'
p9
(dp10
sS'unicodes'
p11
(tsS'width'
p12
I915
sS'contours'
p13
(tsS'components'
p14
(tsS'anchors'
p15
(tsss."
LayerCount: 2
Fore
SplineSet
171 421 m 257
 171 478 l 257
 684 478 l 257
 684 421 l 257
 171 421 l 257
EndSplineSet
EndChar

StartChar: i
Encoding: 105 105 268
Width: 562
VWidth: 0
Flags: HW
PickledData: "(dp1
S'org.robofab.postScriptHintData'
p2
(dp3
sS'com.typemytype.robofont.layerData'
p4
(dp5
S'b'
(dp6
S'name'
p7
S'i'
sS'lib'
p8
(dp9
sS'unicodes'
p10
(tsS'width'
p11
I531
sS'contours'
p12
(tsS'components'
p13
(tsS'anchors'
p14
(tsss."
LayerCount: 2
Fore
SplineSet
297 1008 m 0
 261 1008 234 1033 234 1068 c 0
 234 1102 261 1127 297 1127 c 0
 335 1127 362 1102 362 1068 c 0
 362 1033 335 1008 297 1008 c 0
103 0 m 1
 103 55 l 1
 277 55 l 1
 277 749 l 1
 106 749 l 1
 106 804 l 1
 351 804 l 1
 351 554 351 305 351 55 c 1
 518 55 l 1
 518 0 l 1
 103 0 l 1
EndSplineSet
EndChar

StartChar: infinity
Encoding: 407 8734 276
Width: 1315
VWidth: 0
Flags: HW
PickledData: "(dp1
S'org.robofab.postScriptHintData'
p2
(dp3
sS'com.typemytype.robofont.layerData'
p4
(dp5
S'b'
(dp6
S'name'
p7
S'infinity'
p8
sS'lib'
p9
(dp10
sS'unicodes'
p11
(tsS'width'
p12
I1244
sS'contours'
p13
(tsS'components'
p14
(tsS'anchors'
p15
(tsss."
LayerCount: 2
Fore
SplineSet
924 263 m 256
 828 263 733 312 660 461 c 257
 585 324 489 268 394 268 c 256
 223 268 139 396 139 555 c 256
 139 707 236 842 394 842 c 256
 477 842 587 787 658 648 c 257
 722 769 811 838 926 838 c 256
 1053 838 1176 742 1176 550 c 256
 1176 365 1049 263 924 263 c 256
389 321 m 256
 478 321 554 391 629 555 c 257
 564 704 485 788 386 788 c 256
 266 788 210 664 210 554 c 256
 210 423 270 321 389 321 c 256
927 317 m 256
 1032 317 1105 411 1105 552 c 256
 1105 681 1034 783 926 783 c 256
 829 783 757 705 685 550 c 257
 759 384 825 317 927 317 c 256
EndSplineSet
EndChar

StartChar: integral
Encoding: 408 8747 277
Width: 671
VWidth: 0
Flags: HW
PickledData: "(dp1
S'org.robofab.postScriptHintData'
p2
(dp3
s."
LayerCount: 2
Fore
SplineSet
700 1116 m 0
 700 1089 685 1059 633 1059 c 257
 631 1124 609 1163 554 1163 c 0
 497 1163 454 1126 435 1009 c 258
 274 65 l 258
 255 -47 215 -136 88 -136 c 256
 19 -136 -40 -98 -40 -46 c 0
 -40 -21 -23 8 27 8 c 257
 28 -58 52 -97 100 -97 c 256
 160 -97 186 -49 202 57 c 257
 365 1010 l 257
 385 1131 450 1202 566 1202 c 0
 636 1202 700 1169 700 1116 c 0
EndSplineSet
EndChar

StartChar: j
Encoding: 106 106 280
Width: 430
VWidth: 0
Flags: HW
PickledData: "(dp1
S'org.robofab.postScriptHintData'
p2
(dp3
sS'com.typemytype.robofont.layerData'
p4
(dp5
S'b'
(dp6
S'name'
p7
S'j'
sS'lib'
p8
(dp9
sS'unicodes'
p10
(tsS'width'
p11
I398
sS'contours'
p12
(tsS'components'
p13
(tsS'anchors'
p14
(tsss."
LayerCount: 2
Fore
SplineSet
241 1009 m 0
 205 1009 178 1034 178 1069 c 0
 178 1103 205 1128 241 1128 c 0
 279 1128 306 1103 306 1069 c 0
 306 1034 279 1009 241 1009 c 0
19 -260 m 1
 19 -204 l 1
 88 -204 l 2
 223 -204 223 -148 223 -34 c 2
 223 752 l 1
 64 752 l 1
 64 805 l 1
 301 805 l 1
 301 -18 l 2
 301 -29 301 -41 301 -53 c 0
 301 -148 290 -260 96 -260 c 2
 19 -260 l 1
EndSplineSet
EndChar

StartChar: k
Encoding: 107 107 282
Width: 986
VWidth: 0
Flags: HW
PickledData: "(dp1
S'org.robofab.postScriptHintData'
p2
(dp3
sS'com.typemytype.robofont.guides'
p4
((dp5
S'y'
I421
sS'x'
I474
sS'magnetic'
p6
I5
sS'angle'
p7
I0
sS'isGlobal'
p8
I0
stp9
sS'com.typemytype.robofont.layerData'
p10
(dp11
S'b'
(dp12
S'name'
p13
S'k'
sS'lib'
p14
(dp15
sS'unicodes'
p16
(tsS'width'
p17
I927
sS'contours'
p18
(tsS'components'
p19
(tsS'anchors'
p20
(tsss."
LayerCount: 2
Fore
SplineSet
731 0 m 1
 285 415 l 1
 285 55 l 1
 429 55 l 1
 429 0 l 1
 61 0 l 1
 61 55 l 1
 210 55 l 1
 210 1119 l 1
 67 1119 l 1
 67 1174 l 1
 285 1174 l 1
 285 426 l 1
 710 749 l 1
 548 749 l 1
 548 804 l 1
 939 804 l 1
 939 749 l 1
 794 749 l 1
 370 419 l 1
 767 55 l 1
 944 55 l 1
 944 0 l 1
 731 0 l 1
EndSplineSet
EndChar

StartChar: kgreenlandic
Encoding: 413 312 284
Width: 967
VWidth: 0
Flags: HW
PickledData: "(dp1
S'org.robofab.postScriptHintData'
p2
(dp3
sS'com.typemytype.robofont.layerData'
p4
(dp5
S'b'
(dp6
S'name'
p7
S'kgreenlandic'
p8
sS'lib'
p9
(dp10
sS'unicodes'
p11
(tsS'width'
p12
I927
sS'contours'
p13
(tsS'components'
p14
(tsS'anchors'
p15
(tsss."
LayerCount: 2
Fore
SplineSet
720 0 m 257
 308 408 l 257
 686 749 l 257
 538 749 l 257
 538 804 l 257
 917 804 l 257
 917 749 l 257
 775 749 l 257
 399 409 l 257
 757 55 l 257
 923 55 l 257
 923 0 l 257
 720 0 l 257
74 0 m 257
 74 55 l 257
 216 55 l 257
 216 749 l 257
 80 749 l 257
 80 804 l 257
 290 804 l 257
 290 55 l 257
 423 55 l 257
 423 0 l 257
 74 0 l 257
EndSplineSet
EndChar

StartChar: l
Encoding: 108 108 285
Width: 470
VWidth: 0
Flags: HW
PickledData: "(dp1
S'org.robofab.postScriptHintData'
p2
(dp3
sS'com.typemytype.robofont.layerData'
p4
(dp5
S'b'
(dp6
S'name'
p7
S'l'
sS'lib'
p8
(dp9
sS'unicodes'
p10
(tsS'width'
p11
I563
sS'contours'
p12
(tsS'components'
p13
(tsS'anchors'
p14
(tsss."
LayerCount: 2
Fore
SplineSet
57 0 m 1
 57 55 l 1
 206 55 l 1
 206 1119 l 1
 63 1119 l 1
 63 1174 l 1
 281 1174 l 1
 281 55 l 1
 425 55 l 1
 425 0 l 1
 57 0 l 1
EndSplineSet
EndChar

StartChar: less
Encoding: 60 60 290
Width: 932
VWidth: 0
Flags: HW
PickledData: "(dp1
S'org.robofab.postScriptHintData'
p2
(dp3
sS'com.typemytype.robofont.layerData'
p4
(dp5
S'b'
(dp6
S'name'
p7
S'less'
p8
sS'lib'
p9
(dp10
sS'unicodes'
p11
(tsS'width'
p12
I896
sS'contours'
p13
(tsS'components'
p14
(tsS'anchors'
p15
(tsss."
LayerCount: 2
Fore
SplineSet
791 -77 m 257
 -37 553 l 257
 -37 591 l 257
 791 1227 l 257
 791 1134 l 257
 45 573 l 257
 791 14 l 257
 791 -77 l 257
EndSplineSet
EndChar

StartChar: lessequal
Encoding: 418 8804 291
Width: 681
VWidth: 0
Flags: HW
PickledData: "(dp1
S'org.robofab.postScriptHintData'
p2
(dp3
sS'com.typemytype.robofont.layerData'
p4
(dp5
S'b'
(dp6
S'name'
p7
S'lessequal'
p8
sS'lib'
p9
(dp10
sS'unicodes'
p11
(tsS'width'
p12
I593
sS'contours'
p13
(tsS'components'
p14
(tsS'anchors'
p15
(tsss."
LayerCount: 2
Fore
SplineSet
667 188 m 257
 2 535 l 257
 2 570 l 257
 667 919 l 257
 667 853 l 257
 104 552 l 257
 667 253 l 257
 667 188 l 257
2 0 m 257
 2 55 l 257
 667 55 l 257
 667 0 l 257
 2 0 l 257
EndSplineSet
EndChar

StartChar: logicalnot
Encoding: 420 172 293
Width: 886
VWidth: 0
Flags: HW
PickledData: "(dp1
S'org.robofab.postScriptHintData'
p2
(dp3
sS'com.typemytype.robofont.layerData'
p4
(dp5
S'b'
(dp6
S'name'
p7
S'logicalnot'
p8
sS'lib'
p9
(dp10
sS'unicodes'
p11
(tsS'width'
p12
I827
sS'contours'
p13
(tsS'components'
p14
(tsS'anchors'
p15
(tsss."
LayerCount: 2
Fore
SplineSet
725 309 m 257
 725 627 l 257
 83 627 l 257
 83 684 l 257
 778 684 l 257
 778 309 l 257
 725 309 l 257
EndSplineSet
EndChar

StartChar: lozenge
Encoding: 421 9674 294
Width: 986
VWidth: 0
Flags: HW
PickledData: "(dp1
S'org.robofab.postScriptHintData'
p2
(dp3
sS'com.typemytype.robofont.layerData'
p4
(dp5
S'b'
(dp6
S'name'
p7
S'lozenge'
p8
sS'lib'
p9
(dp10
sS'unicodes'
p11
(tsS'width'
p12
I948
sS'contours'
p13
(tsS'components'
p14
(tsS'anchors'
p15
(tsss."
LayerCount: 2
Fore
SplineSet
468 -26 m 257
 39 620 l 257
 468 1268 l 257
 518 1268 l 257
 947 622 l 257
 518 -26 l 257
 468 -26 l 257
496 38 m 257
 861 622 l 257
 496 1203 l 257
 130 622 l 257
 496 38 l 257
EndSplineSet
EndChar

StartChar: lslash
Encoding: 422 322 295
Width: 467
VWidth: 0
Flags: HW
PickledData: "(dp1
S'org.robofab.postScriptHintData'
p2
(dp3
sS'com.typemytype.robofont.layerData'
p4
(dp5
S'b'
(dp6
S'name'
p7
S'lslash'
p8
sS'lib'
p9
(dp10
sS'unicodes'
p11
(tsS'width'
p12
I506
sS'contours'
p13
(tsS'components'
p14
(tsS'anchors'
p15
(tsss."
LayerCount: 2
Fore
SplineSet
52 441 m 257
 51 509 l 257
 425 736 l 257
 425 665 l 257
 52 441 l 257
EndSplineSet
Refer: 285 108 N 1 0 0 1 0 0 2
EndChar

StartChar: m
Encoding: 109 109 296
Width: 1583
VWidth: 0
Flags: HW
PickledData: "(dp1
S'org.robofab.postScriptHintData'
p2
(dp3
sS'com.typemytype.robofont.layerData'
p4
(dp5
S'b'
(dp6
S'name'
p7
S'm'
sS'lib'
p8
(dp9
sS'unicodes'
p10
(tsS'width'
p11
I1571
sS'contours'
p12
(tsS'components'
p13
(tsS'anchors'
p14
(tsss."
LayerCount: 2
Fore
SplineSet
37 0 m 1
 37 55 l 1
 211 55 l 1
 211 749 l 1
 40 749 l 1
 40 804 l 1
 285 804 l 1
 285 720 l 1
 397 784 513 826 603 826 c 0
 706 826 786 780 825 700 c 1
 946 775 1077 826 1176 826 c 0
 1324 826 1425 732 1425 575 c 2
 1425 55 l 1
 1578 55 l 1
 1578 0 l 1
 1184 0 l 1
 1184 55 l 1
 1351 55 l 1
 1351 583 l 2
 1351 697 1278 766 1162 766 c 0
 1085 766 964 722 842 654 c 1
 848 630 852 604 852 575 c 2
 852 55 l 1
 1005 55 l 1
 1005 0 l 1
 611 0 l 1
 611 55 l 1
 778 55 l 1
 778 583 l 2
 778 697 705 766 589 766 c 0
 515 766 401 726 285 663 c 1
 285 460 285 258 285 55 c 1
 452 55 l 1
 452 0 l 1
 37 0 l 1
EndSplineSet
EndChar

StartChar: macron
Encoding: 423 175 297
Width: 331
VWidth: 0
Flags: HW
PickledData: "(dp1
S'org.robofab.postScriptHintData'
p2
(dp3
sS'com.typemytype.robofont.layerData'
p4
(dp5
S'b'
(dp6
S'name'
p7
S'macron'
p8
sS'lib'
p9
(dp10
sS'unicodes'
p11
(tsS'width'
p12
I316
sS'contours'
p13
(tsS'components'
p14
(tsS'anchors'
p15
(tsss."
LayerCount: 2
Fore
SplineSet
-24 925 m 257
 -24 974 l 257
 362 974 l 257
 362 925 l 257
 -24 925 l 257
EndSplineSet
EndChar

StartChar: minus
Encoding: 424 8722 299
Width: 916
VWidth: 0
Flags: HW
PickledData: "(dp1
S'org.robofab.postScriptHintData'
p2
(dp3
sS'com.typemytype.robofont.layerData'
p4
(dp5
S'b'
(dp6
S'name'
p7
S'minus'
p8
sS'lib'
p9
(dp10
sS'unicodes'
p11
(tsS'width'
p12
I912
sS'contours'
p13
(tsS'components'
p14
(tsS'anchors'
p15
(tsss."
LayerCount: 2
Fore
SplineSet
99 541 m 257
 99 607 l 257
 817 607 l 257
 817 541 l 257
 99 541 l 257
EndSplineSet
EndChar

StartChar: mu
Encoding: 425 956 300
Width: 1031
VWidth: 0
Flags: HW
PickledData: "(dp1
S'org.robofab.postScriptHintData'
p2
(dp3
s."
LayerCount: 2
Fore
SplineSet
187 -303 m 257
 187 385 l 257
 262 385 l 257
 262 -303 l 257
 187 -303 l 257
EndSplineSet
Refer: 392 117 N 1 0 0 1 0 0 2
EndChar

StartChar: multiply
Encoding: 426 215 301
Width: 615
VWidth: 0
Flags: HW
PickledData: "(dp1
S'org.robofab.postScriptHintData'
p2
(dp3
sS'com.typemytype.robofont.layerData'
p4
(dp5
S'b'
(dp6
S'name'
p7
S'multiply'
p8
sS'lib'
p9
(dp10
sS'unicodes'
p11
(tsS'width'
p12
I520
sS'contours'
p13
(tsS'components'
p14
(tsS'anchors'
p15
(tsss."
LayerCount: 2
Fore
SplineSet
528 337 m 257
 312 553 l 257
 95 337 l 257
 54 379 l 257
 271 594 l 257
 55 809 l 257
 97 850 l 257
 313 637 l 257
 530 853 l 257
 570 811 l 257
 356 594 l 257
 569 379 l 257
 528 337 l 257
EndSplineSet
EndChar

StartChar: n
Encoding: 110 110 302
Width: 1024
VWidth: 0
Flags: HW
PickledData: "(dp1
S'org.robofab.postScriptHintData'
p2
(dp3
sS'com.typemytype.robofont.layerData'
p4
(dp5
S'b'
(dp6
S'name'
p7
S'n'
sS'lib'
p8
(dp9
sS'unicodes'
p10
(tsS'width'
p11
I1010
sS'contours'
p12
(tsS'components'
p13
(tsS'anchors'
p14
(tsss."
LayerCount: 2
Fore
SplineSet
37 0 m 1
 37 55 l 1
 211 55 l 1
 211 749 l 1
 40 749 l 1
 40 804 l 1
 285 804 l 1
 285 712 l 1
 401 781 523 826 617 826 c 0
 765 826 866 732 866 575 c 2
 866 55 l 1
 1019 55 l 1
 1019 0 l 1
 625 0 l 1
 625 55 l 1
 792 55 l 1
 792 583 l 2
 792 697 719 766 603 766 c 0
 526 766 406 723 285 655 c 1
 285 455 285 255 285 55 c 1
 452 55 l 1
 452 0 l 1
 37 0 l 1
EndSplineSet
EndChar

StartChar: nine
Encoding: 57 57 307
Width: 862
VWidth: 0
Flags: HW
PickledData: "(dp1
S'org.robofab.postScriptHintData'
p2
(dp3
sS'com.typemytype.robofont.layerData'
p4
(dp5
S'b'
(dp6
S'name'
p7
S'nine'
p8
sS'lib'
p9
(dp10
sS'unicodes'
p11
(tsS'width'
p12
I830
sS'contours'
p13
(tsS'components'
p14
(tsS'anchors'
p15
(tsss."
LayerCount: 2
Fore
SplineSet
355 -82 m 257
 290 -44 l 257
 659 559 l 257
 610 508 506 471 426 471 c 256
 214 471 68 605 68 817 c 256
 68 1034 210 1174 441 1174 c 256
 654 1174 807 1034 807 833 c 256
 807 700 761 595 716 524 c 257
 355 -82 l 257
432 525 m 256
 584 525 732 636 732 832 c 256
 732 997 617 1118 440 1118 c 256
 255 1118 139 1001 139 820 c 256
 139 640 251 525 432 525 c 256
EndSplineSet
EndChar

StartChar: notequal
Encoding: 432 8800 309
Width: 863
VWidth: 0
Flags: HW
PickledData: "(dp1
S'org.robofab.postScriptHintData'
p2
(dp3
sS'com.typemytype.robofont.layerData'
p4
(dp5
S'b'
(dp6
S'name'
p7
S'notequal'
p8
sS'lib'
p9
(dp10
sS'unicodes'
p11
(tsS'width'
p12
I570
sS'contours'
p13
(tsS'components'
p14
(tsS'anchors'
p15
(tsss."
LayerCount: 2
Fore
SplineSet
313 70 m 257
 363 257 l 257
 98 257 l 257
 98 308 l 257
 377 308 l 257
 437 535 l 257
 88 535 l 257
 88 589 l 257
 452 589 l 257
 503 774 l 257
 554 774 l 257
 504 589 l 257
 772 589 l 257
 772 535 l 257
 491 535 l 257
 431 308 l 257
 782 308 l 257
 782 257 l 257
 417 257 l 257
 368 70 l 257
 313 70 l 257
EndSplineSet
EndChar

StartChar: numbersign
Encoding: 35 35 311
Width: 979
VWidth: 0
Flags: HW
PickledData: "(dp1
S'org.robofab.postScriptHintData'
p2
(dp3
sS'com.typemytype.robofont.layerData'
p4
(dp5
S'b'
(dp6
S'name'
p7
S'numbersign'
p8
sS'lib'
p9
(dp10
sS'unicodes'
p11
(tsS'width'
p12
I917
sS'contours'
p13
(tsS'components'
p14
(tsS'anchors'
p15
(tsss."
LayerCount: 2
Fore
SplineSet
187 -2 m 257
 222 378 l 257
 60 378 l 257
 63 431 l 257
 229 431 l 257
 259 777 l 257
 95 777 l 257
 97 831 l 257
 264 831 l 257
 294 1165 l 257
 368 1165 l 257
 337 831 l 257
 680 831 l 257
 711 1165 l 257
 783 1165 l 257
 753 831 l 257
 922 831 l 257
 921 777 l 257
 748 777 l 257
 717 431 l 257
 889 431 l 257
 888 378 l 257
 711 378 l 257
 676 -2 l 257
 602 -2 l 257
 638 378 l 257
 296 378 l 257
 261 -2 l 257
 187 -2 l 257
300 431 m 257
 643 431 l 257
 675 777 l 257
 333 777 l 257
 300 431 l 257
EndSplineSet
EndChar

StartChar: o
Encoding: 111 111 312
Width: 983
VWidth: 0
Flags: HW
PickledData: "(dp1
S'org.robofab.postScriptHintData'
p2
(dp3
sS'com.typemytype.robofont.layerData'
p4
(dp5
S'b'
(dp6
S'name'
p7
S'o'
sS'lib'
p8
(dp9
sS'unicodes'
p10
(tsS'width'
p11
I986
sS'contours'
p12
(tsS'components'
p13
(tsS'anchors'
p14
(tsss."
LayerCount: 2
Fore
SplineSet
490 -22 m 0
 237 -22 60 155 60 406 c 0
 60 652 238 826 490 826 c 0
 744 826 924 653 924 407 c 0
 924 156 744 -22 490 -22 c 0
490 36 m 0
 700 36 849 190 849 407 c 0
 849 618 700 768 490 768 c 0
 282 768 134 618 134 406 c 0
 134 190 282 36 490 36 c 0
EndSplineSet
EndChar

StartChar: oe
Encoding: 434 339 317
Width: 1773
VWidth: 0
Flags: HW
PickledData: "(dp1
S'org.robofab.postScriptHintData'
p2
(dp3
sS'com.typemytype.robofont.layerData'
p4
(dp5
S'b'
(dp6
S'name'
p7
S'oe'
p8
sS'lib'
p9
(dp10
sS'unicodes'
p11
(tsS'width'
p12
I1961
sS'contours'
p13
(tsS'components'
p14
(tsS'anchors'
p15
(tsss."
LayerCount: 2
Fore
SplineSet
497 -22 m 256
 245 -22 69 155 69 405 c 256
 69 651 246 826 497 826 c 256
 686 826 834 726 893 570 c 257
 954 740 1110 826 1267 826 c 256
 1461 826 1653 698 1659 384 c 257
 930 384 l 257
 941 157 1108 34 1285 34 c 256
 1406 34 1541 97 1609 178 c 257
 1640 128 l 257
 1542 27 1412 -22 1284 -22 c 256
 1112 -22 954 72 892 239 c 257
 833 81 686 -22 497 -22 c 256
497 35 m 256
 708 35 856 188 856 406 c 256
 856 618 708 768 497 768 c 256
 287 768 141 618 141 405 c 256
 141 188 287 35 497 35 c 256
930 434 m 257
 1591 434 l 257
 1568 661 1430 770 1266 770 c 256
 1083 770 940 639 930 434 c 257
EndSplineSet
EndChar

StartChar: ogonek
Encoding: 435 731 318
Width: 409
VWidth: 0
Flags: HW
PickledData: "(dp1
S'org.robofab.postScriptHintData'
p2
(dp3
sS'com.typemytype.robofont.layerData'
p4
(dp5
S'b'
(dp6
S'name'
p7
S'ogonek'
p8
sS'lib'
p9
(dp10
sS'unicodes'
p11
(tsS'width'
p12
I390
sS'contours'
p13
(tsS'components'
p14
(tsS'anchors'
p15
(tsss."
LayerCount: 2
Fore
SplineSet
248 -317 m 256
 174 -317 110 -271 110 -189 c 256
 110 -132 148 -63 222 2 c 257
 270 2 l 257
 208 -57 175 -118 175 -167 c 256
 175 -231 215 -264 269 -264 c 256
 300 -264 333 -253 364 -231 c 257
 364 -279 l 257
 326 -305 287 -317 248 -317 c 256
EndSplineSet
EndChar

StartChar: one
Encoding: 49 49 322
Width: 592
VWidth: 0
Flags: HW
PickledData: "(dp1
S'org.robofab.postScriptHintData'
p2
(dp3
sS'com.typemytype.robofont.layerData'
p4
(dp5
S'b'
(dp6
S'name'
p7
S'one'
p8
sS'lib'
p9
(dp10
sS'unicodes'
p11
(tsS'width'
p12
I559
sS'contours'
p13
(tsS'components'
p14
(tsS'anchors'
p15
(tsss."
LayerCount: 2
Fore
SplineSet
125 0 m 257
 125 55 l 257
 291 55 l 257
 291 1080 l 257
 140 1039 l 257
 128 1093 l 257
 365 1154 l 257
 365 55 l 257
 526 55 l 257
 526 0 l 257
 125 0 l 257
EndSplineSet
EndChar

StartChar: onehalf
Encoding: 438 189 323
Width: 1746
VWidth: 0
Flags: HW
PickledData: "(dp1
S'org.robofab.postScriptHintData'
p2
(dp3
s."
LayerCount: 2
Fore
SplineSet
1114 0 m 257
 1114 48 l 257
 1419 340 l 258
 1516 433 1562 487 1562 584 c 0
 1562 690 1487 754 1367 754 c 256
 1227 754 1160 664 1160 550 c 256
 1160 527 1163 502 1170 476 c 257
 1114 476 l 257
 1108 503 1104 529 1104 555 c 256
 1104 690 1191 803 1367 803 c 256
 1511 803 1620 728 1620 585 c 256
 1620 474 1555 395 1453 299 c 258
 1189 47 l 257
 1592 47 l 257
 1591 195 l 257
 1642 195 l 257
 1642 0 l 257
 1114 0 l 257
137 360 m 257
 137 407 l 257
 259 407 l 257
 259 1101 l 257
 136 1098 l 257
 136 1145 l 257
 317 1152 l 257
 317 407 l 257
 438 407 l 257
 438 360 l 257
 137 360 l 257
395 -10 m 257
 1182 1172 l 257
 1239 1172 l 257
 455 -10 l 257
 395 -10 l 257
EndSplineSet
EndChar

StartChar: onequarter
Encoding: 439 188 324
Width: 1534
VWidth: 0
Flags: HW
PickledData: "(dp1
S'org.robofab.postScriptHintData'
p2
(dp3
sS'com.typemytype.robofont.layerData'
p4
(dp5
S'b'
(dp6
S'name'
p7
S'onequarter'
p8
sS'lib'
p9
(dp10
sS'unicodes'
p11
(tsS'width'
p12
I1395
sS'contours'
p13
(tsS'components'
p14
(tsS'anchors'
p15
(tsss."
LayerCount: 2
Fore
SplineSet
1171 0 m 257
 1171 47 l 257
 1289 47 l 257
 1289 257 l 257
 937 257 l 257
 924 300 l 257
 1281 807 l 257
 1345 807 l 257
 1345 304 l 257
 1456 304 l 257
 1456 257 l 257
 1345 257 l 257
 1345 47 l 257
 1451 47 l 257
 1451 0 l 257
 1171 0 l 257
137 360 m 257
 137 407 l 257
 258 407 l 257
 258 1101 l 257
 136 1098 l 257
 135 1145 l 257
 316 1152 l 257
 316 407 l 257
 437 407 l 257
 437 360 l 257
 137 360 l 257
386 -10 m 257
 1173 1172 l 257
 1230 1172 l 257
 446 -10 l 257
 386 -10 l 257
987 304 m 257
 1289 304 l 257
 1289 737 l 257
 987 304 l 257
EndSplineSet
EndChar

StartChar: onesuperior
Encoding: 440 185 325
Width: 620
VWidth: 0
Flags: HW
PickledData: "(dp1
S'org.robofab.postScriptHintData'
p2
(dp3
sS'com.typemytype.robofont.layerData'
p4
(dp5
S'b'
(dp6
S'name'
p7
S'uni00B9'
p8
sS'lib'
p9
(dp10
sS'unicodes'
p11
(tsS'width'
p12
I531
sS'contours'
p13
(tsS'components'
p14
(tsS'anchors'
p15
(tsss."
LayerCount: 2
Fore
SplineSet
154 546 m 257
 154 593 l 257
 283 593 l 257
 283 1255 l 257
 168 1232 l 257
 159 1281 l 257
 346 1316 l 257
 346 593 l 257
 470 593 l 257
 470 546 l 257
 154 546 l 257
EndSplineSet
EndChar

StartChar: ordfeminine
Encoding: 441 170 326
Width: 797
VWidth: 0
Flags: HW
PickledData: "(dp1
S'org.robofab.postScriptHintData'
p2
(dp3
sS'com.typemytype.robofont.layerData'
p4
(dp5
S'b'
(dp6
S'name'
p7
S'ordfeminine'
p8
sS'lib'
p9
(dp10
sS'unicodes'
p11
(tsS'width'
p12
I801
sS'contours'
p13
(tsS'components'
p14
(tsS'anchors'
p15
(tsss."
LayerCount: 2
Fore
SplineSet
324 551 m 256
 182 551 115 636 115 729 c 256
 115 867 233 905 362 905 c 256
 425 905 490 896 544 888 c 257
 544 967 l 258
 544 1070 490 1121 378 1121 c 256
 307 1121 228 1103 169 1058 c 257
 142 1105 l 257
 210 1156 294 1174 377 1174 c 256
 563 1174 612 1064 612 978 c 258
 612 613 l 257
 716 613 l 257
 716 561 l 257
 548 561 l 257
 546 624 l 257
 494 582 404 551 324 551 c 256
329 602 m 256
 405 602 487 628 544 677 c 257
 544 843 l 257
 490 850 431 857 372 857 c 256
 267 857 182 832 182 731 c 256
 182 655 231 602 329 602 c 256
EndSplineSet
EndChar

StartChar: ordmasculine
Encoding: 442 186 327
Width: 833
VWidth: 0
Flags: HW
PickledData: "(dp1
S'org.robofab.postScriptHintData'
p2
(dp3
sS'com.typemytype.robofont.layerData'
p4
(dp5
S'b'
(dp6
S'name'
p7
S'ordmasculine'
p8
sS'lib'
p9
(dp10
sS'unicodes'
p11
(tsS'width'
p12
I809
sS'contours'
p13
(tsS'components'
p14
(tsS'anchors'
p15
(tsss."
LayerCount: 2
Fore
SplineSet
417 543 m 256
 248 543 105 652 105 859 c 256
 105 1066 248 1174 418 1174 c 256
 587 1174 730 1066 730 859 c 256
 730 652 587 543 417 543 c 256
418 598 m 256
 544 598 661 680 661 859 c 256
 661 1038 544 1119 417 1119 c 256
 292 1119 175 1038 175 859 c 256
 175 680 292 598 418 598 c 256
EndSplineSet
EndChar

StartChar: oslash
Encoding: 248 248 328
Width: 1013
VWidth: 0
Flags: HW
PickledData: "(dp1
S'org.robofab.postScriptHintData'
p2
(dp3
sS'com.typemytype.robofont.layerData'
p4
(dp5
S'b'
(dp6
S'name'
p7
S'oslash'
p8
sS'lib'
p9
(dp10
sS'unicodes'
p11
(tsS'width'
p12
I1023
sS'contours'
p13
(tsS'components'
p14
(tsS'anchors'
p15
(tsss."
LayerCount: 2
Fore
SplineSet
205 -178 m 257
 171 -156 l 257
 836 982 l 257
 871 961 l 257
 205 -178 l 257
EndSplineSet
Refer: 312 111 N 1 0 0 1 0 0 2
EndChar

StartChar: p
Encoding: 112 112 331
Width: 1040
VWidth: 0
Flags: HW
PickledData: "(dp1
S'org.robofab.postScriptHintData'
p2
(dp3
sS'com.typemytype.robofont.layerData'
p4
(dp5
S'b'
(dp6
S'name'
p7
S'p'
sS'lib'
p8
(dp9
sS'unicodes'
p10
(tsS'width'
p11
I1037
sS'contours'
p12
(tsS'components'
p13
(tsS'anchors'
p14
(tsss."
LayerCount: 2
Fore
SplineSet
555 -22 m 0
 456 -22 352 18 274 88 c 1
 274 -262 l 1
 414 -262 l 1
 414 -317 l 1
 58 -317 l 1
 58 -262 l 1
 199 -262 l 1
 199 749 l 1
 71 749 l 1
 71 804 l 1
 271 804 l 1
 273 718 l 1
 363 786 475 826 573 826 c 0
 817 826 980 670 980 412 c 0
 980 142 806 -22 555 -22 c 0
274 147 m 1
 352 76 453 35 547 35 c 0
 763 35 905 173 905 400 c 0
 905 629 769 768 561 768 c 0
 470 768 364 727 274 658 c 1
 274 147 l 1
EndSplineSet
EndChar

StartChar: paragraph
Encoding: 182 182 332
Width: 992
VWidth: 0
Flags: HW
PickledData: "(dp1
S'org.robofab.postScriptHintData'
p2
(dp3
sS'com.typemytype.robofont.layerData'
p4
(dp5
S'b'
(dp6
S'name'
p7
S'paragraph'
p8
sS'lib'
p9
(dp10
sS'unicodes'
p11
(tsS'width'
p12
I953
sS'contours'
p13
(tsS'components'
p14
(tsS'anchors'
p15
(tsss."
LayerCount: 2
Fore
SplineSet
491 -15 m 257
 491 41 l 257
 673 41 l 257
 673 639 l 257
 429 639 l 258
 428 639 426 639 425 639 c 0
 215 639 117 781 117 902 c 256
 117 1016 213 1152 430 1152 c 258
 904 1152 l 257
 904 1101 l 257
 746 1101 l 257
 746 41 l 257
 888 41 l 257
 888 -15 l 257
 491 -15 l 257
491 705 m 257
 673 705 l 257
 673 1101 l 257
 491 1101 l 257
 491 705 l 257
EndSplineSet
EndChar

StartChar: parenleft
Encoding: 40 40 333
Width: 519
VWidth: 0
Flags: HW
PickledData: "(dp1
S'org.robofab.postScriptHintData'
p2
(dp3
sS'com.typemytype.robofont.layerData'
p4
(dp5
S'b'
(dp6
S'name'
p7
S'parenleft'
p8
sS'lib'
p9
(dp10
sS'unicodes'
p11
(tsS'width'
p12
I500
sS'contours'
p13
(tsS'components'
p14
(tsS'anchors'
p15
(tsss."
LayerCount: 2
Fore
SplineSet
482 -116 m 257
 225 -24 96 251 96 528 c 256
 96 804 225 1080 482 1174 c 257
 484 1128 l 257
 281 1041 179 785 179 530 c 256
 179 275 281 19 484 -69 c 257
 482 -116 l 257
EndSplineSet
EndChar

StartChar: parenright
Encoding: 41 41 334
Width: 520
VWidth: 0
Flags: HW
PickledData: "(dp1
S'org.robofab.postScriptHintData'
p2
(dp3
sS'com.typemytype.robofont.layerData'
p4
(dp5
S'b'
(dp6
S'name'
p7
S'parenright'
p8
sS'lib'
p9
(dp10
sS'unicodes'
p11
(tsS'width'
p12
I501
sS'contours'
p13
(tsS'components'
p14
(tsS'anchors'
p15
(tsss."
LayerCount: 2
Fore
SplineSet
92 -116 m 257
 91 -69 l 257
 294 19 396 275 396 530 c 256
 396 785 294 1041 91 1128 c 257
 92 1174 l 257
 350 1080 479 804 479 528 c 256
 479 251 350 -24 92 -116 c 257
EndSplineSet
EndChar

StartChar: partialdiff
Encoding: 444 8706 335
Width: 1016
VWidth: 0
Flags: HW
PickledData: "(dp1
S'org.robofab.postScriptHintData'
p2
(dp3
s."
LayerCount: 2
Fore
SplineSet
401 -21 m 256
 201 -21 134 105 134 244 c 256
 134 419 254 707 561 707 c 256
 713 707 804 624 821 550 c 257
 809 545 l 257
 809 553 809 561 809 569 c 0
 809 969 686 1131 516 1131 c 256
 409 1131 324 1080 324 963 c 257
 284 963 260 981 260 1027 c 256
 260 1115 352 1179 496 1179 c 256
 734 1179 852 972 852 645 c 256
 852 352 740 -21 401 -21 c 256
427 26 m 256
 643 26 775 269 801 511 c 257
 778 604 699 660 572 660 c 256
 306 660 218 384 218 242 c 256
 218 128 268 26 427 26 c 256
EndSplineSet
EndChar

StartChar: percent
Encoding: 37 37 337
Width: 1611
VWidth: 0
Flags: HW
PickledData: "(dp1
S'org.robofab.postScriptHintData'
p2
(dp3
sS'com.typemytype.robofont.layerData'
p4
(dp5
S'b'
(dp6
S'name'
p7
S'percent'
p8
sS'lib'
p9
(dp10
sS'unicodes'
p11
(tsS'width'
p12
I1578
sS'contours'
p13
(tsS'components'
p14
(tsS'anchors'
p15
(tsss."
LayerCount: 2
Fore
SplineSet
396 676 m 256
 529 676 623 770 623 902 c 256
 623 1032 529 1125 396 1126 c 256
 265 1125 172 1032 172 902 c 256
 172 770 265 676 396 676 c 256
396 625 m 256
 230 625 111 740 111 902 c 256
 111 1060 230 1175 396 1175 c 256
 564 1175 684 1060 684 902 c 256
 684 740 564 625 396 625 c 256
324 -42 m 257
 282 -5 l 257
 1308 1226 l 257
 1346 1195 l 257
 324 -42 l 257
1229 29 m 256
 1361 29 1455 123 1455 255 c 256
 1455 386 1361 479 1229 479 c 256
 1097 479 1004 386 1004 255 c 256
 1004 123 1097 29 1229 29 c 256
1229 -22 m 256
 1063 -22 943 93 943 255 c 256
 943 414 1063 528 1229 528 c 256
 1396 528 1516 414 1516 255 c 256
 1516 93 1396 -22 1229 -22 c 256
EndSplineSet
EndChar

StartChar: period
Encoding: 46 46 338
Width: 472
VWidth: 0
Flags: HW
PickledData: "(dp1
S'org.robofab.postScriptHintData'
p2
(dp3
sS'com.typemytype.robofont.layerData'
p4
(dp5
S'b'
(dp6
S'name'
p7
S'period'
p8
sS'lib'
p9
(dp10
sS'unicodes'
p11
(tsS'width'
p12
I452
sS'contours'
p13
(tsS'components'
p14
(tsS'anchors'
p15
(tsss."
LayerCount: 2
Fore
SplineSet
188 0 m 257
 188 115 l 257
 295 115 l 257
 295 0 l 257
 188 0 l 257
EndSplineSet
EndChar

StartChar: periodcentered
Encoding: 445 183 339
Width: 477
VWidth: 0
Flags: HW
PickledData: "(dp1
S'org.robofab.postScriptHintData'
p2
(dp3
sS'com.typemytype.robofont.layerData'
p4
(dp5
S'b'
(dp6
S'name'
p7
S'periodcentered'
p8
sS'lib'
p9
(dp10
sS'unicodes'
p11
(tsS'width'
p12
I453
sS'contours'
p13
(tsS'components'
p14
(tsS'anchors'
p15
(tsss."
LayerCount: 2
Fore
SplineSet
248 494 m 256
 212 494 185 519 185 554 c 256
 185 587 212 612 248 612 c 256
 286 612 313 587 313 554 c 256
 313 519 286 494 248 494 c 256
EndSplineSet
EndChar

StartChar: perthousand
Encoding: 446 8240 340
Width: 2313
VWidth: 0
Flags: HW
PickledData: "(dp1
S'org.robofab.postScriptHintData'
p2
(dp3
s."
LayerCount: 2
Fore
SplineSet
1936 -22 m 256
 1770 -22 1651 93 1651 255 c 256
 1651 414 1770 528 1936 528 c 256
 2104 528 2224 414 2224 255 c 256
 2224 93 2104 -22 1936 -22 c 256
1936 29 m 256
 2069 29 2163 123 2163 255 c 256
 2163 386 2069 479 1936 479 c 256
 1805 479 1711 386 1711 255 c 256
 1711 123 1805 29 1936 29 c 256
EndSplineSet
Refer: 337 37 N 1 0 0 1 0 0 2
EndChar

StartChar: pi
Encoding: 447 960 341
Width: 1126
VWidth: 0
Flags: HW
PickledData: "(dp1
S'org.robofab.postScriptHintData'
p2
(dp3
s."
LayerCount: 2
Fore
SplineSet
900 -12 m 256
 781 -12 719 67 719 229 c 256
 719 354 774 581 817 736 c 257
 447 736 l 257
 393 238 l 258
 374 62 332 -3 128 -3 c 257
 128 40 l 257
 266 40 298 108 319 248 c 258
 391 736 l 257
 299 736 l 258
 245 736 209 703 208 609 c 257
 163 609 l 257
 163 711 197 804 312 804 c 258
 1037 804 l 257
 1037 736 l 257
 867 736 l 257
 832 565 791 344 791 243 c 256
 791 110 839 43 930 43 c 256
 954 43 980 48 1010 58 c 257
 1010 13 l 257
 974 -3 932 -12 900 -12 c 256
EndSplineSet
EndChar

StartChar: plus
Encoding: 43 43 342
Width: 759
VWidth: 0
Flags: HW
PickledData: "(dp1
S'org.robofab.postScriptHintData'
p2
(dp3
sS'com.typemytype.robofont.layerData'
p4
(dp5
S'b'
(dp6
S'name'
p7
S'plus'
p8
sS'lib'
p9
(dp10
sS'unicodes'
p11
(tsS'width'
p12
I690
sS'contours'
p13
(tsS'components'
p14
(tsS'anchors'
p15
(tsss."
LayerCount: 2
Fore
SplineSet
352 144 m 257
 352 544 l 257
 8 544 l 257
 8 608 l 257
 352 608 l 257
 352 994 l 257
 413 994 l 257
 413 608 l 257
 755 608 l 257
 755 544 l 257
 413 544 l 257
 413 144 l 257
 352 144 l 257
EndSplineSet
EndChar

StartChar: plusminus
Encoding: 448 177 343
Width: 723
VWidth: 0
Flags: HW
PickledData: "(dp1
S'org.robofab.postScriptHintData'
p2
(dp3
sS'com.typemytype.robofont.layerData'
p4
(dp5
S'b'
(dp6
S'name'
p7
S'plusminus'
p8
sS'lib'
p9
(dp10
sS'unicodes'
p11
(tsS'width'
p12
I659
sS'contours'
p13
(tsS'components'
p14
(tsS'anchors'
p15
(tsss."
LayerCount: 2
Fore
SplineSet
334 119 m 257
 334 515 l 257
 -18 515 l 257
 -18 577 l 257
 334 577 l 257
 334 959 l 257
 393 959 l 257
 393 577 l 257
 744 577 l 257
 744 515 l 257
 393 515 l 257
 393 119 l 257
 334 119 l 257
-20 0 m 257
 -20 59 l 257
 741 59 l 257
 741 0 l 257
 -20 0 l 257
EndSplineSet
EndChar

StartChar: product
Encoding: 449 8719 344
Width: 1339
VWidth: 0
Flags: HW
PickledData: "(dp1
S'org.robofab.postScriptHintData'
p2
(dp3
sS'com.typemytype.robofont.layerData'
p4
(dp5
S'b'
(dp6
S'name'
p7
S'product'
p8
sS'lib'
p9
(dp10
sS'unicodes'
p11
(tsS'width'
p12
I1305
sS'contours'
p13
(tsS'components'
p14
(tsS'anchors'
p15
(tsss."
LayerCount: 2
Fore
SplineSet
117 0 m 257
 117 57 l 257
 266 57 l 257
 266 1096 l 257
 117 1096 l 257
 117 1152 l 257
 1223 1152 l 257
 1223 1096 l 257
 1073 1096 l 257
 1073 57 l 257
 1223 57 l 257
 1223 0 l 257
 847 0 l 257
 847 57 l 257
 996 57 l 257
 996 1096 l 257
 343 1096 l 257
 343 57 l 257
 493 57 l 257
 493 0 l 257
 117 0 l 257
EndSplineSet
EndChar

StartChar: q
Encoding: 113 113 345
Width: 1060
VWidth: 0
Flags: HW
PickledData: "(dp1
S'org.robofab.postScriptHintData'
p2
(dp3
sS'com.typemytype.robofont.layerData'
p4
(dp5
S'b'
(dp6
S'name'
p7
S'q'
sS'lib'
p8
(dp9
sS'unicodes'
p10
(tsS'width'
p11
I1049
sS'contours'
p12
(tsS'components'
p13
(tsS'anchors'
p14
(tsss."
LayerCount: 2
Fore
SplineSet
61 405 m 0
 61 659 231 826 460 826 c 0
 570 826 693 782 781 713 c 1
 785 804 l 1
 987 804 l 1
 987 749 l 1
 855 749 l 1
 855 -273 l 1
 994 -273 l 1
 994 -330 l 1
 639 -330 l 1
 639 -273 l 1
 780 -273 l 1
 780 88 l 1
 698 21 585 -22 483 -22 c 0
 241 -22 61 149 61 405 c 0
780 660 m 1
 691 727 573 769 469 769 c 0
 275 769 136 620 136 395 c 0
 136 180 286 35 492 35 c 0
 588 35 698 78 780 145 c 1
 780 660 l 1
EndSplineSet
EndChar

StartChar: question
Encoding: 63 63 346
Width: 673
VWidth: 0
Flags: HW
PickledData: "(dp1
S'org.robofab.postScriptHintData'
p2
(dp3
sS'com.typemytype.robofont.layerData'
p4
(dp5
S'b'
(dp6
S'name'
p7
S'question'
p8
sS'lib'
p9
(dp10
sS'unicodes'
p11
(tsS'width'
p12
I629
sS'contours'
p13
(tsS'components'
p14
(tsS'anchors'
p15
(tsss."
LayerCount: 2
Fore
SplineSet
278 291 m 257
 310 725 580 651 580 908 c 256
 580 1044 489 1130 333 1130 c 256
 183 1130 101 1080 76 937 c 257
 18 937 l 257
 31 1121 158 1186 332 1186 c 256
 526 1186 644 1078 644 908 c 256
 644 615 377 696 322 291 c 257
 278 291 l 257
298 -20 m 256
 260 -20 232 7 232 43 c 256
 232 78 260 105 298 105 c 256
 338 105 367 78 367 43 c 256
 367 7 338 -20 298 -20 c 256
EndSplineSet
EndChar

StartChar: quotedbl
Encoding: 34 34 348
Width: 573
VWidth: 0
Flags: HW
PickledData: "(dp1
S'org.robofab.postScriptHintData'
p2
(dp3
sS'com.typemytype.robofont.layerData'
p4
(dp5
S'b'
(dp6
S'name'
p7
S'quotedbl'
p8
sS'lib'
p9
(dp10
sS'unicodes'
p11
(tsS'width'
p12
I514
sS'contours'
p13
(tsS'components'
p14
(tsS'anchors'
p15
(tsss."
LayerCount: 2
Fore
SplineSet
184 879 m 257
 159 1252 l 257
 241 1252 l 257
 224 879 l 257
 184 879 l 257
356 879 m 257
 338 1252 l 257
 421 1252 l 257
 394 879 l 257
 356 879 l 257
EndSplineSet
EndChar

StartChar: quotedblbase
Encoding: 451 8222 349
Width: 701
VWidth: 0
Flags: HW
PickledData: "(dp1
S'org.robofab.postScriptHintData'
p2
(dp3
sS'com.typemytype.robofont.layerData'
p4
(dp5
S'b'
(dp6
S'name'
p7
S'quotedblbase'
p8
sS'lib'
p9
(dp10
sS'unicodes'
p11
(tsS'width'
p12
I652
sS'contours'
p13
(tsS'components'
p14
(tsS'anchors'
p15
(tsss."
LayerCount: 2
Fore
SplineSet
187 -174 m 257
 187 -133 l 257
 248 -112 249 -87 250 -7 c 257
 197 -7 l 257
 197 103 l 257
 310 103 l 257
 310 -8 l 258
 310 -96 282 -173 187 -174 c 257
412 -174 m 257
 412 -133 l 257
 474 -112 474 -88 474 -7 c 257
 423 -7 l 257
 423 103 l 257
 535 103 l 257
 535 -8 l 258
 535 -96 506 -173 412 -174 c 257
EndSplineSet
EndChar

StartChar: quotedblleft
Encoding: 452 8220 350
Width: 682
VWidth: 0
Flags: HW
PickledData: "(dp1
S'org.robofab.postScriptHintData'
p2
(dp3
sS'com.typemytype.robofont.layerData'
p4
(dp5
S'b'
(dp6
S'name'
p7
S'quotedblleft'
p8
sS'lib'
p9
(dp10
sS'unicodes'
p11
(tsS'width'
p12
I642
sS'contours'
p13
(tsS'components'
p14
(tsS'anchors'
p15
(tsss."
LayerCount: 2
Fore
SplineSet
170 1000 m 257
 170 1112 l 258
 170 1201 199 1277 295 1278 c 257
 295 1237 l 257
 233 1215 232 1190 231 1110 c 257
 283 1110 l 257
 283 1000 l 257
 170 1000 l 257
378 1000 m 257
 378 1112 l 258
 378 1201 407 1276 502 1278 c 257
 502 1237 l 257
 441 1215 439 1190 439 1110 c 257
 490 1110 l 257
 490 1000 l 257
 378 1000 l 257
EndSplineSet
EndChar

StartChar: quotedblright
Encoding: 453 8221 351
Width: 686
VWidth: 0
Flags: HW
PickledData: "(dp1
S'org.robofab.postScriptHintData'
p2
(dp3
sS'com.typemytype.robofont.layerData'
p4
(dp5
S'b'
(dp6
S'name'
p7
S'quotedblright'
p8
sS'lib'
p9
(dp10
sS'unicodes'
p11
(tsS'width'
p12
I649
sS'contours'
p13
(tsS'components'
p14
(tsS'anchors'
p15
(tsss."
LayerCount: 2
Fore
SplineSet
187 978 m 257
 187 1019 l 257
 248 1040 249 1066 251 1146 c 257
 199 1146 l 257
 199 1256 l 257
 311 1256 l 257
 311 1144 l 258
 311 1056 282 979 187 978 c 257
393 978 m 257
 393 1019 l 257
 455 1040 456 1066 457 1146 c 257
 405 1146 l 257
 405 1256 l 257
 518 1256 l 257
 518 1144 l 258
 518 1056 489 979 393 978 c 257
EndSplineSet
EndChar

StartChar: quoteleft
Encoding: 454 8216 352
Width: 421
VWidth: 0
Flags: HW
PickledData: "(dp1
S'org.robofab.postScriptHintData'
p2
(dp3
sS'com.typemytype.robofont.layerData'
p4
(dp5
S'b'
(dp6
S'name'
p7
S'quoteleft'
p8
sS'lib'
p9
(dp10
sS'unicodes'
p11
(tsS'width'
p12
I399
sS'contours'
p13
(tsS'components'
p14
(tsS'anchors'
p15
(tsss."
LayerCount: 2
Fore
SplineSet
134 1000 m 257
 134 1112 l 258
 134 1201 163 1277 258 1278 c 257
 258 1237 l 257
 197 1215 195 1190 195 1110 c 257
 246 1110 l 257
 246 1000 l 257
 134 1000 l 257
EndSplineSet
EndChar

StartChar: quoteright
Encoding: 455 8217 353
Width: 429
VWidth: 0
Flags: HW
PickledData: "(dp1
S'org.robofab.postScriptHintData'
p2
(dp3
sS'com.typemytype.robofont.layerData'
p4
(dp5
S'b'
(dp6
S'name'
p7
S'quoteright'
p8
sS'lib'
p9
(dp10
sS'unicodes'
p11
(tsS'width'
p12
I409
sS'contours'
p13
(tsS'components'
p14
(tsS'anchors'
p15
(tsss."
LayerCount: 2
Fore
SplineSet
174 978 m 257
 174 1019 l 257
 236 1040 237 1066 238 1146 c 257
 186 1146 l 257
 186 1256 l 257
 299 1256 l 257
 299 1144 l 258
 299 1056 270 979 174 978 c 257
EndSplineSet
EndChar

StartChar: quotesinglbase
Encoding: 456 8218 354
Width: 424
VWidth: 0
Flags: HW
PickledData: "(dp1
S'org.robofab.postScriptHintData'
p2
(dp3
sS'com.typemytype.robofont.layerData'
p4
(dp5
S'b'
(dp6
S'name'
p7
S'quotesinglbase'
p8
sS'lib'
p9
(dp10
sS'unicodes'
p11
(tsS'width'
p12
I403
sS'contours'
p13
(tsS'components'
p14
(tsS'anchors'
p15
(tsss."
LayerCount: 2
Fore
SplineSet
178 -174 m 257
 178 -133 l 257
 240 -112 241 -87 242 -7 c 257
 189 -7 l 257
 189 103 l 257
 301 103 l 257
 301 -8 l 257
 302 -96 274 -173 178 -174 c 257
EndSplineSet
EndChar

StartChar: quotesingle
Encoding: 39 39 355
Width: 287
VWidth: 0
Flags: HW
PickledData: "(dp1
S'org.robofab.postScriptHintData'
p2
(dp3
sS'com.typemytype.robofont.layerData'
p4
(dp5
S'b'
(dp6
S'name'
p7
S'quotesingle'
p8
sS'lib'
p9
(dp10
sS'unicodes'
p11
(tsS'width'
p12
I239
sS'contours'
p13
(tsS'components'
p14
(tsS'anchors'
p15
(tsss."
LayerCount: 2
Fore
SplineSet
130 879 m 257
 105 1252 l 257
 188 1252 l 257
 170 879 l 257
 130 879 l 257
EndSplineSet
EndChar

StartChar: r
Encoding: 114 114 356
Width: 778
VWidth: 0
Flags: HW
PickledData: "(dp1
S'org.robofab.postScriptHintData'
p2
(dp3
sS'com.typemytype.robofont.layerData'
p4
(dp5
S'b'
(dp6
S'name'
p7
S'r'
sS'lib'
p8
(dp9
sS'unicodes'
p10
(tsS'width'
p11
I773
sS'contours'
p12
((dp13
S'points'
p14
((dp15
S'segmentType'
p16
S'line'
p17
sS'x'
I338
sS'smooth'
p18
I0
sS'y'
I449
s(dp19
S'y'
I643
sS'x'
I338
sg18
I0
s(dp20
S'y'
I756
sS'x'
I441
sg18
I0
s(dp21
g16
S'curve'
p22
sS'x'
I570
sg18
I1
sS'y'
I756
s(dp23
S'y'
I756
sS'x'
I614
sg18
I0
s(dp24
S'y'
I742
sS'x'
I651
sg18
I0
s(dp25
g16
S'curve'
p26
sS'x'
I704
sg18
I0
sS'y'
I716
s(dp27
g16
S'line'
p28
sS'x'
I722
sg18
I0
sS'y'
I784
s(dp29
S'y'
I810
sS'x'
I664
sg18
I0
s(dp30
S'y'
I820
sS'x'
I622
sg18
I0
s(dp31
g16
S'curve'
p32
sS'x'
I575
sg18
I1
sS'y'
I820
s(dp33
S'y'
I820
sS'x'
I467
sg18
I0
s(dp34
S'y'
I769
sS'x'
I381
sg18
I0
s(dp35
g16
S'curve'
p36
sS'x'
I316
sg18
I0
sS'y'
I582
stp37
stp38
sS'components'
p39
(tsS'anchors'
p40
(tsss."
LayerCount: 2
Fore
SplineSet
356 457 m 1
 354 463 l 1
 354 55 l 1
 521 55 l 1
 521 0 l 1
 106 0 l 1
 106 55 l 1
 280 55 l 1
 280 749 l 1
 109 749 l 1
 109 804 l 1
 354 804 l 1
 354 649 l 1
 400 777 482 822 562 822 c 0
 617 822 664 809 712 783 c 1
 695 721 l 1
 652 747 614 760 560 760 c 0
 452 760 356 648 356 457 c 1
EndSplineSet
EndChar

StartChar: radical
Encoding: 458 8730 358
Width: 1129
VWidth: 0
Flags: HW
PickledData: "(dp1
S'org.robofab.postScriptHintData'
p2
(dp3
sS'com.typemytype.robofont.layerData'
p4
(dp5
S'b'
(dp6
S'name'
p7
S'radical'
p8
sS'lib'
p9
(dp10
sS'unicodes'
p11
(tsS'width'
p12
I1118
sS'contours'
p13
(tsS'components'
p14
(tsS'anchors'
p15
(tsss."
LayerCount: 2
Fore
SplineSet
499 -14 m 257
 231 583 l 257
 46 583 l 257
 46 635 l 257
 294 635 l 257
 527 99 l 257
 944 1363 l 257
 1001 1363 l 257
 545 -14 l 257
 499 -14 l 257
EndSplineSet
EndChar

StartChar: registered
Encoding: 174 174 361
Width: 1517
VWidth: 0
Flags: HW
PickledData: "(dp1
S'org.robofab.postScriptHintData'
p2
(dp3
sS'com.typemytype.robofont.layerData'
p4
(dp5
S'b'
(dp6
S'name'
p7
S'registered'
p8
sS'lib'
p9
(dp10
sS'unicodes'
p11
(tsS'width'
p12
I1512
sS'contours'
p13
(tsS'components'
p14
(tsS'anchors'
p15
(tsss."
LayerCount: 2
Fore
SplineSet
436 235 m 257
 436 275 l 257
 531 275 l 257
 531 920 l 257
 429 920 l 257
 429 961 l 257
 796 961 l 258
 934 961 1013 889 1013 764 c 256
 1013 659 939 594 811 585 c 257
 985 277 l 257
 1087 277 l 257
 1087 235 l 257
 949 235 l 257
 756 580 l 257
 584 580 l 257
 584 275 l 257
 680 275 l 257
 680 235 l 257
 436 235 l 257
584 624 m 257
 796 624 l 258
 899 624 960 675 960 764 c 256
 960 864 899 920 797 920 c 258
 584 920 l 257
 584 624 l 257
736 32 m 256
 1099 32 1280 310 1280 578 c 256
 1280 845 1099 1130 736 1130 c 256
 369 1130 192 845 192 578 c 256
 192 302 366 32 736 32 c 256
736 -22 m 256
 735 -22 735 -22 734 -22 c 0
 324 -22 127 280 127 577 c 256
 127 876 328 1184 736 1184 c 256
 1145 1184 1345 875 1345 577 c 256
 1345 279 1147 -22 736 -22 c 256
EndSplineSet
EndChar

StartChar: ring
Encoding: 461 730 362
Width: 353
VWidth: 0
Flags: HW
PickledData: "(dp1
S'org.robofab.postScriptHintData'
p2
(dp3
sS'com.typemytype.robofont.layerData'
p4
(dp5
S'b'
(dp6
S'name'
p7
S'ring'
p8
sS'lib'
p9
(dp10
sS'unicodes'
p11
(tsS'width'
p12
I317
sS'contours'
p13
(tsS'components'
p14
(tsS'anchors'
p15
(tsss."
LayerCount: 2
Fore
SplineSet
175 884 m 256
 94 884 47 933 46 1008 c 256
 47 1081 94 1129 174 1129 c 256
 254 1129 301 1081 301 1008 c 256
 301 933 254 884 175 884 c 256
175 922 m 256
 227 922 258 955 258 1008 c 256
 258 1058 227 1091 175 1091 c 256
 122 1091 90 1058 90 1008 c 256
 90 955 122 922 175 922 c 256
EndSplineSet
EndChar

StartChar: s
Encoding: 115 115 363
Width: 910
VWidth: 0
Flags: HW
PickledData: "(dp1
S'org.robofab.postScriptHintData'
p2
(dp3
sS'com.typemytype.robofont.layerData'
p4
(dp5
S'b'
(dp6
S'name'
p7
S's'
sS'lib'
p8
(dp9
sS'unicodes'
p10
(tsS'width'
p11
I919
sS'contours'
p12
(tsS'components'
p13
(tsS'anchors'
p14
(tsss."
LayerCount: 2
Fore
SplineSet
485 -22 m 0
 365 -22 255 23 203 80 c 1
 203 0 l 1
 141 0 l 1
 141 246 l 1
 199 246 l 1
 204 144 l 1
 265 69 367 32 479 32 c 0
 624 32 729 95 729 193 c 0
 729 313 658 340 496 374 c 2
 366 402 l 2
 233 431 145 482 145 603 c 0
 145 756 282 826 437 826 c 0
 529 826 632 793 694 734 c 1
 694 805 l 1
 759 805 l 1
 759 541 l 1
 699 541 l 1
 692 669 l 1
 648 727 534 770 444 770 c 0
 331 770 219 719 219 607 c 0
 219 522 290 488 387 466 c 2
 516 437 l 2
 685 399 799 370 799 200 c 0
 799 45 645 -22 485 -22 c 0
EndSplineSet
EndChar

StartChar: section
Encoding: 167 167 371
Width: 941
VWidth: 0
Flags: HW
PickledData: "(dp1
S'org.robofab.postScriptHintData'
p2
(dp3
s."
LayerCount: 2
Fore
SplineSet
494 -142 m 256
 304 -142 214 -81 214 25 c 256
 214 69 238 81 266 81 c 257
 270 -56 355 -100 499 -100 c 256
 657 -100 723 -26 723 90 c 256
 723 200 685 232 444 355 c 256
 247 454 186 504 186 627 c 256
 186 722 252 785 335 806 c 257
 265 854 222 914 222 1014 c 256
 222 1146 324 1240 498 1240 c 256
 687 1240 755 1142 755 1052 c 256
 755 1018 740 999 704 999 c 257
 694 1115 643 1198 496 1198 c 256
 358 1198 287 1125 287 1018 c 256
 287 890 356 864 525 769 c 256
 742 649 828 595 828 467 c 0
 828 383 789 307 721 263 c 257
 756 225 780 181 780 101 c 256
 780 -46 689 -142 494 -142 c 256
693 288 m 257
 748 333 766 391 766 459 c 256
 766 545 705 599 504 708 c 256
 490 715 373 777 363 785 c 257
 288 759 249 703 249 635 c 256
 249 527 308 499 482 408 c 256
 566 365 643 325 693 288 c 257
EndSplineSet
EndChar

StartChar: semicolon
Encoding: 59 59 372
Width: 339
VWidth: 0
Flags: HW
PickledData: "(dp1
S'org.robofab.postScriptHintData'
p2
(dp3
sS'com.typemytype.robofont.layerData'
p4
(dp5
S'b'
(dp6
S'name'
p7
S'semicolon'
p8
sS'lib'
p9
(dp10
sS'unicodes'
p11
(tsS'width'
p12
I294
sS'contours'
p13
(tsS'components'
p14
(tsS'anchors'
p15
(tsss."
LayerCount: 2
Fore
SplineSet
90 58 m 257
 90 102 l 257
 157 121 157 152 157 235 c 257
 101 235 l 257
 101 351 l 257
 220 351 l 257
 220 232 l 258
 220 140 193 59 90 58 c 257
107 707 m 257
 107 824 l 257
 216 824 l 257
 216 707 l 257
 107 707 l 257
EndSplineSet
EndChar

StartChar: seven
Encoding: 55 55 373
Width: 971
VWidth: 0
Flags: HW
PickledData: "(dp1
S'org.robofab.postScriptHintData'
p2
(dp3
sS'com.typemytype.robofont.layerData'
p4
(dp5
S'b'
(dp6
S'name'
p7
S'seven'
p8
sS'lib'
p9
(dp10
sS'unicodes'
p11
(tsS'width'
p12
I964
sS'contours'
p13
(tsS'components'
p14
(tsS'anchors'
p15
(tsss."
LayerCount: 2
Fore
SplineSet
403 0 m 257
 403 0 551 510 782 1095 c 257
 196 1095 l 257
 196 846 l 257
 124 846 l 257
 124 1152 l 257
 865 1152 l 257
 865 1099 l 257
 679 655 481 0 481 0 c 257
 403 0 l 257
EndSplineSet
EndChar

StartChar: six
Encoding: 54 54 374
Width: 861
VWidth: 0
Flags: HW
PickledData: "(dp1
S'org.robofab.postScriptHintData'
p2
(dp3
sS'com.typemytype.robofont.layerData'
p4
(dp5
S'b'
(dp6
S'name'
p7
S'six'
p8
sS'lib'
p9
(dp10
sS'unicodes'
p11
(tsS'width'
p12
I829
sS'contours'
p13
(tsS'components'
p14
(tsS'anchors'
p15
(tsss."
LayerCount: 2
Fore
SplineSet
426 -21 m 256
 213 -21 60 119 60 320 c 256
 60 452 107 558 151 628 c 257
 513 1235 l 257
 578 1197 l 257
 209 593 l 257
 258 645 364 683 444 683 c 256
 655 683 799 548 799 335 c 256
 799 118 657 -21 426 -21 c 256
428 35 m 256
 613 35 729 152 729 332 c 256
 729 512 616 627 435 627 c 256
 284 627 136 517 136 321 c 256
 136 156 251 35 428 35 c 256
EndSplineSet
EndChar

StartChar: slash
Encoding: 47 47 375
Width: 382
VWidth: 0
Flags: HW
PickledData: "(dp1
S'org.robofab.postScriptHintData'
p2
(dp3
sS'com.typemytype.robofont.layerData'
p4
(dp5
S'b'
(dp6
S'name'
p7
S'slash'
p8
sS'lib'
p9
(dp10
sS'unicodes'
p11
(tsS'width'
p12
I295
sS'contours'
p13
(tsS'components'
p14
(tsS'anchors'
p15
(tsss."
LayerCount: 2
Fore
SplineSet
-26 -20 m 257
 339 1188 l 257
 398 1181 l 257
 37 -27 l 257
 -26 -20 l 257
EndSplineSet
EndChar

StartChar: sterling
Encoding: 163 163 377
Width: 1047
VWidth: 0
Flags: HW
PickledData: "(dp1
S'org.robofab.postScriptHintData'
p2
(dp3
s."
LayerCount: 2
Fore
SplineSet
285 -21 m 256
 149 -21 69 48 69 150 c 256
 69 259 153 335 288 335 c 256
 367 335 458 287 505 229 c 257
 512 255 517 286 517 324 c 0
 517 388 502 469 457 561 c 257
 194 561 l 257
 194 615 l 257
 428 615 l 257
 379 710 309 829 309 932 c 256
 309 1126 460 1251 657 1251 c 256
 867 1251 976 1137 976 952 c 257
 910 952 l 257
 910 1088 837 1191 659 1191 c 256
 498 1191 380 1090 380 936 c 256
 380 827 448 728 507 615 c 257
 900 615 l 257
 900 561 l 257
 532 561 l 257
 564 479 578 409 578 346 c 0
 578 291 568 242 551 192 c 257
 615 118 709 57 794 57 c 256
 929 57 978 153 979 295 c 257
 1030 295 l 257
 1032 283 1032 266 1032 254 c 256
 1032 101 959 -7 795 -7 c 256
 698 -7 603 47 524 136 c 257
 482 46 399 -21 285 -21 c 256
284 29 m 256
 363 29 460 83 484 174 c 257
 431 238 348 281 286 281 c 256
 190 281 130 230 130 150 c 256
 130 76 190 29 284 29 c 256
EndSplineSet
EndChar

StartChar: summation
Encoding: 468 8721 378
Width: 1232
VWidth: 0
Flags: HW
PickledData: "(dp1
S'org.robofab.postScriptHintData'
p2
(dp3
sS'com.typemytype.robofont.layerData'
p4
(dp5
S'b'
(dp6
S'name'
p7
S'summation'
p8
sS'lib'
p9
(dp10
sS'unicodes'
p11
(tsS'width'
p12
I1212
sS'contours'
p13
(tsS'components'
p14
(tsS'anchors'
p15
(tsss."
LayerCount: 2
Fore
SplineSet
121 0 m 257
 121 55 l 257
 268 55 l 257
 666 592 l 257
 276 1097 l 257
 121 1097 l 257
 121 1152 l 257
 1056 1152 l 257
 1056 798 l 257
 992 798 l 257
 992 1097 l 257
 353 1097 l 257
 727 618 l 257
 727 580 l 257
 337 55 l 257
 1014 55 l 257
 1014 361 l 257
 1079 361 l 257
 1079 0 l 257
 121 0 l 257
EndSplineSet
EndChar

StartChar: t
Encoding: 116 116 379
Width: 585
VWidth: 0
Flags: HW
PickledData: "(dp1
S'org.robofab.postScriptHintData'
p2
(dp3
sS'com.typemytype.robofont.layerData'
p4
(dp5
S'b'
(dp6
S'name'
p7
S't'
sS'lib'
p8
(dp9
sS'unicodes'
p10
(tsS'width'
p11
I572
sS'contours'
p12
(tsS'components'
p13
(tsS'anchors'
p14
(tsss."
LayerCount: 2
Fore
SplineSet
437 0 m 2
 290 0 189 55 189 222 c 2
 189 749 l 1
 41 749 l 1
 41 804 l 1
 189 804 l 1
 189 1083 l 1
 264 1108 l 1
 264 804 l 1
 496 804 l 1
 495 749 l 1
 264 749 l 1
 264 227 l 2
 264 100 316 55 445 55 c 2
 532 55 l 1
 532 0 l 1
 437 0 l 2
EndSplineSet
EndChar

StartChar: thorn
Encoding: 472 254 384
Width: 1047
VWidth: 0
Flags: HW
PickledData: "(dp1
S'org.robofab.postScriptHintData'
p2
(dp3
sS'com.typemytype.robofont.layerData'
p4
(dp5
S'b'
(dp6
S'name'
p7
S'thorn'
p8
sS'lib'
p9
(dp10
sS'unicodes'
p11
(tsS'width'
p12
I1069
sS'contours'
p13
(tsS'components'
p14
(tsS'anchors'
p15
(tsss."
LayerCount: 2
Fore
SplineSet
557 -1 m 256
 440 -1 317 55 237 149 c 257
 239 206 l 257
 321 112 439 56 549 56 c 256
 765 56 907 194 907 421 c 256
 907 650 771 789 563 789 c 256
 460 789 336 737 240 649 c 257
 236 707 l 257
 331 794 462 847 575 847 c 256
 819 847 982 691 982 433 c 0
 982 163 808 -1 557 -1 c 256
23 -372 m 257
 23 -316 l 257
 191 -316 l 257
 191 1094 l 257
 40 1094 l 257
 40 1152 l 257
 269 1152 l 257
 266 -372 l 257
 23 -372 l 257
EndSplineSet
EndChar

StartChar: three
Encoding: 51 51 385
Width: 985
VWidth: 0
Flags: HW
PickledData: "(dp1
S'org.robofab.postScriptHintData'
p2
(dp3
sS'com.typemytype.robofont.layerData'
p4
(dp5
S'b'
(dp6
S'name'
p7
S'three'
p8
sS'lib'
p9
(dp10
sS'unicodes'
p11
(tsS'width'
p12
I964
sS'contours'
p13
(tsS'components'
p14
(tsS'anchors'
p15
(tsss."
LayerCount: 2
Fore
SplineSet
479 -20 m 256
 297 -20 158 62 98 205 c 257
 155 242 l 257
 217 111 332 39 480 39 c 256
 683 39 800 144 800 329 c 0
 800 492 667 577 417 577 c 257
 417 635 l 257
 662 635 784 720 784 873 c 256
 784 1026 668 1114 466 1114 c 256
 314 1114 201 1042 150 916 c 257
 93 942 l 257
 150 1089 284 1174 466 1174 c 256
 714 1174 857 1063 857 874 c 256
 857 724 760 629 589 607 c 257
 771 583 874 487 874 332 c 256
 874 108 731 -20 479 -20 c 256
EndSplineSet
EndChar

StartChar: threequarters
Encoding: 473 190 386
Width: 1642
VWidth: 0
Flags: HW
PickledData: "(dp1
S'org.robofab.postScriptHintData'
p2
(dp3
s."
LayerCount: 2
Fore
SplineSet
361 360 m 256
 233 360 129 417 91 507 c 257
 138 537 l 257
 173 459 258 411 362 411 c 257
 495 411 580 475 580 577 c 0
 580 688 488 751 329 751 c 257
 327 802 l 257
 480 802 564 861 564 958 c 256
 564 1059 486 1125 365 1125 c 256
 268 1125 186 1079 149 1004 c 257
 103 1030 l 257
 148 1118 248 1174 367 1174 c 256
 524 1174 625 1090 625 959 c 256
 625 863 555 794 442 779 c 257
 566 760 643 687 643 582 c 256
 643 446 534 360 361 360 c 256
1299 0 m 257
 1299 47 l 257
 1417 47 l 257
 1417 257 l 257
 1056 257 l 257
 1043 300 l 257
 1409 807 l 257
 1473 807 l 257
 1473 304 l 257
 1584 304 l 257
 1584 257 l 257
 1473 257 l 257
 1473 47 l 257
 1580 47 l 257
 1580 0 l 257
 1299 0 l 257
520 -10 m 257
 1307 1172 l 257
 1364 1172 l 257
 580 -10 l 257
 520 -10 l 257
1106 304 m 257
 1417 304 l 257
 1417 737 l 257
 1106 304 l 257
EndSplineSet
EndChar

StartChar: threesuperior
Encoding: 474 179 387
Width: 966
VWidth: 0
Flags: HW
PickledData: "(dp1
S'org.robofab.postScriptHintData'
p2
(dp3
s."
LayerCount: 2
Fore
SplineSet
484 528 m 256
 355 528 251 585 213 675 c 257
 260 705 l 257
 295 627 380 579 484 579 c 256
 617 579 702 643 702 746 c 0
 702 856 625 919 451 919 c 257
 449 970 l 257
 602 970 686 1029 686 1127 c 256
 686 1227 608 1293 488 1293 c 256
 390 1293 308 1246 271 1172 c 257
 225 1198 l 257
 270 1286 370 1342 488 1342 c 256
 646 1342 747 1259 747 1128 c 256
 747 1032 675 960 561 946 c 257
 691 932 765 848 765 746 c 256
 765 613 655 528 484 528 c 256
EndSplineSet
EndChar

StartChar: tilde
Encoding: 475 732 388
Width: 470
VWidth: 0
Flags: HW
PickledData: "(dp1
S'org.robofab.postScriptHintData'
p2
(dp3
sS'com.typemytype.robofont.layerData'
p4
(dp5
S'b'
(dp6
S'name'
p7
S'tilde'
p8
sS'lib'
p9
(dp10
sS'unicodes'
p11
(tsS'width'
p12
I429
sS'contours'
p13
(tsS'components'
p14
(tsS'anchors'
p15
(tsss."
LayerCount: 2
Fore
SplineSet
359 934 m 256
 268 934 183 1017 119 1017 c 256
 86 1017 72 1001 57 937 c 257
 22 937 l 257
 32 1023 63 1072 127 1072 c 256
 204 1072 298 989 358 989 c 256
 392 989 410 999 425 1068 c 257
 459 1068 l 257
 451 984 431 934 359 934 c 256
EndSplineSet
EndChar

StartChar: trademark
Encoding: 476 8482 389
Width: 1631
VWidth: 0
Flags: HW
PickledData: "(dp1
S'org.robofab.postScriptHintData'
p2
(dp3
sS'com.typemytype.robofont.layerData'
p4
(dp5
S'b'
(dp6
S'name'
p7
S'trademark'
p8
sS'lib'
p9
(dp10
sS'unicodes'
p11
(tsS'width'
p12
I1581
sS'contours'
p13
(tsS'components'
p14
(tsS'anchors'
p15
(tsss."
LayerCount: 2
Fore
SplineSet
800 564 m 257
 800 609 l 257
 873 609 l 257
 873 1108 l 257
 800 1108 l 257
 800 1152 l 257
 920 1152 l 257
 1140 694 l 257
 1350 1152 l 257
 1472 1152 l 257
 1472 1108 l 257
 1400 1108 l 257
 1400 609 l 257
 1472 609 l 257
 1472 564 l 257
 1273 564 l 257
 1273 609 l 257
 1347 609 l 257
 1347 1032 l 257
 1145 608 l 257
 1134 608 l 257
 922 1034 l 257
 922 609 l 257
 998 609 l 257
 998 564 l 257
 800 564 l 257
291 564 m 257
 291 607 l 257
 368 607 l 257
 368 1104 l 257
 185 1104 l 257
 185 946 l 257
 136 946 l 257
 136 1152 l 257
 657 1152 l 257
 657 946 l 257
 607 946 l 257
 607 1104 l 257
 419 1104 l 257
 419 607 l 257
 497 607 l 257
 497 564 l 257
 291 564 l 257
EndSplineSet
EndChar

StartChar: two
Encoding: 50 50 390
Width: 978
VWidth: 0
Flags: HW
PickledData: "(dp1
S'org.robofab.postScriptHintData'
p2
(dp3
sS'com.typemytype.robofont.layerData'
p4
(dp5
S'b'
(dp6
S'name'
p7
S'two'
p8
sS'lib'
p9
(dp10
sS'unicodes'
p11
(tsS'width'
p12
I964
sS'contours'
p13
(tsS'components'
p14
(tsS'anchors'
p15
(tsss."
LayerCount: 2
Fore
SplineSet
122 0 m 257
 122 61 l 257
 522 463 l 258
 680 621 764 739 764 847 c 0
 764 1006 663 1112 488 1112 c 256
 313 1112 202 1009 202 839 c 256
 202 815 208 773 218 728 c 257
 150 728 l 257
 139 768 132 812 132 844 c 256
 132 1046 269 1174 487 1174 c 256
 706 1174 838 1048 838 850 c 256
 838 719 740 588 570 418 c 258
 211 59 l 257
 779 59 l 257
 780 269 l 257
 840 269 l 257
 841 0 l 257
 122 0 l 257
EndSplineSet
EndChar

StartChar: twosuperior
Encoding: 477 178 391
Width: 913
VWidth: 0
Flags: HW
PickledData: "(dp1
S'org.robofab.postScriptHintData'
p2
(dp3
sS'com.typemytype.robofont.layerData'
p4
(dp5
S'b'
(dp6
S'name'
p7
S'uni00B2'
p8
sS'lib'
p9
(dp10
sS'unicodes'
p11
(tsS'width'
p12
I897
sS'contours'
p13
(tsS'components'
p14
(tsS'anchors'
p15
(tsss."
LayerCount: 2
Fore
SplineSet
198 589 m 257
 497 880 l 258
 593 974 641 1027 641 1123 c 0
 641 1228 568 1291 447 1291 c 256
 313 1291 245 1201 245 1091 c 256
 245 1067 249 1042 255 1016 c 257
 199 1016 l 257
 193 1044 189 1070 189 1096 c 256
 189 1231 274 1342 447 1342 c 256
 592 1342 701 1267 701 1124 c 256
 701 1012 634 934 533 838 c 258
 272 588 l 257
 668 588 l 257
 668 735 l 257
 720 735 l 257
 720 539 l 257
 198 539 l 257
 198 589 l 257
EndSplineSet
EndChar

StartChar: u
Encoding: 117 117 392
Width: 1031
VWidth: 0
Flags: HW
PickledData: "(dp1
S'org.robofab.postScriptHintData'
p2
(dp3
sS'com.typemytype.robofont.layerData'
p4
(dp5
S'b'
(dp6
S'name'
p7
S'u'
sS'lib'
p8
(dp9
sS'unicodes'
p10
(tsS'width'
p11
I1025
sS'contours'
p12
(tsS'components'
p13
(tsS'anchors'
p14
(tsss."
LayerCount: 2
Fore
SplineSet
438 -21 m 0
 237 -21 187 122 187 216 c 2
 187 749 l 1
 35 749 l 1
 35 804 l 1
 262 804 l 1
 262 222 l 2
 262 125 317 37 447 37 c 0
 574 37 666 86 765 156 c 1
 765 749 l 1
 615 749 l 1
 615 804 l 1
 839 804 l 1
 839 54 l 1
 991 54 l 1
 991 0 l 1
 773 0 l 1
 767 100 l 1
 666 28 560 -21 438 -21 c 0
EndSplineSet
EndChar

StartChar: underscore
Encoding: 95 95 400
Width: 868
VWidth: 0
Flags: HW
PickledData: "(dp1
S'org.robofab.postScriptHintData'
p2
(dp3
sS'com.typemytype.robofont.layerData'
p4
(dp5
S'b'
(dp6
S'name'
p7
S'underscore'
p8
sS'lib'
p9
(dp10
sS'unicodes'
p11
(tsS'width'
p12
I1126
sS'contours'
p13
(tsS'components'
p14
(tsS'anchors'
p15
(tsss."
LayerCount: 2
Fore
SplineSet
73 -134 m 257
 73 -84 l 257
 794 -84 l 257
 794 -134 l 257
 73 -134 l 257
EndSplineSet
EndChar

StartChar: uni00AD
Encoding: 173 173 406
Width: 857
VWidth: 0
Flags: HW
PickledData: "(dp1
S'org.robofab.postScriptHintData'
p2
(dp3
sS'com.typemytype.robofont.layerData'
p4
(dp5
S'b'
(dp6
S'name'
p7
S'uni00AD'
p8
sS'lib'
p9
(dp10
sS'unicodes'
p11
(tsS'width'
p12
I-130
sS'contours'
p13
(tsS'components'
p14
(tsS'anchors'
p15
(tsss."
LayerCount: 2
Fore
SplineSet
171 421 m 257
 171 478 l 257
 684 478 l 257
 684 421 l 257
 171 421 l 257
EndSplineSet
EndChar

StartChar: uni00B5
Encoding: 481 181 407
Width: 1031
VWidth: 0
Flags: HW
PickledData: "(dp1
S'org.robofab.postScriptHintData'
p2
(dp3
sS'com.typemytype.robofont.layerData'
p4
(dp5
S'b'
(dp6
S'name'
p7
S'uni00B5'
p8
sS'lib'
p9
(dp10
sS'unicodes'
p11
(tsS'width'
p12
I1025
sS'contours'
p13
(tsS'components'
p14
(tsS'anchors'
p15
(tsss."
LayerCount: 2
Fore
SplineSet
187 -264 m 257
 187 388 l 257
 262 388 l 257
 262 -264 l 257
 187 -264 l 257
EndSplineSet
Refer: 392 117 N 1 0 0 1 0 0 2
EndChar

StartChar: uni0237
Encoding: 547 567 473
Width: 430
VWidth: 0
Flags: HW
PickledData: "(dp1
S'org.robofab.postScriptHintData'
p2
(dp3
sS'com.typemytype.robofont.layerData'
p4
(dp5
S'b'
(dp6
S'name'
p7
S'uni0237'
p8
sS'lib'
p9
(dp10
sS'unicodes'
p11
(tsS'width'
p12
I398
sS'contours'
p13
(tsS'components'
p14
(tsS'anchors'
p15
(tsss."
LayerCount: 2
Fore
SplineSet
19 -260 m 1
 19 -204 l 1
 88 -204 l 2
 223 -204 223 -148 223 -34 c 2
 223 752 l 1
 64 752 l 1
 64 805 l 1
 301 805 l 1
 301 -53 l 2
 301 -148 290 -260 96 -260 c 2
 19 -260 l 1
EndSplineSet
EndChar

StartChar: uni02C9
Encoding: 548 713 474
Width: 600
VWidth: 0
Flags: HW
PickledData: "(dp1
S'org.robofab.postScriptHintData'
p2
(dp3
s."
LayerCount: 2
Fore
SplineSet
108 913 m 257
 108 975 l 257
 494 975 l 257
 494 913 l 257
 108 913 l 257
EndSplineSet
EndChar

StartChar: uni0307
Encoding: 549 775 475
Width: 381
VWidth: 0
Flags: HW
PickledData: "(dp1
S'org.robofab.postScriptHintData'
p2
(dp3
sS'com.typemytype.robofont.layerData'
p4
(dp5
S'b'
(dp6
S'name'
p7
S'uni0307'
p8
sS'lib'
p9
(dp10
sS'unicodes'
p11
(tsS'width'
p12
I342
sS'contours'
p13
(tsS'components'
p14
(tsS'anchors'
p15
(tsss."
LayerCount: 2
Fore
SplineSet
190 968 m 256
 145 968 123 1001 123 1030 c 256
 123 1062 144 1093 190 1093 c 256
 236 1093 257 1062 257 1030 c 257
 258 1001 235 968 190 968 c 256
EndSplineSet
EndChar

StartChar: uni0311
Encoding: 550 785 476
Width: 962
VWidth: 0
Flags: HW
PickledData: "(dp1
S'org.robofab.postScriptHintData'
p2
(dp3
sS'com.typemytype.robofont.layerData'
p4
(dp5
S'b'
(dp6
S'name'
p7
S'uni0311'
p8
sS'lib'
p9
(dp10
sS'unicodes'
p11
(tsS'width'
p12
I962
sS'contours'
p13
(tsS'components'
p14
(tsS'anchors'
p15
(tsss."
LayerCount: 2
Fore
SplineSet
352 934 m 257
 371 1018 414 1059 484 1059 c 0
 485 1059 486 1059 487 1059 c 256
 488 1059 489 1059 490 1059 c 0
 562 1059 604 1018 619 934 c 257
 591 934 l 257
 573 996 539 1026 487 1026 c 256
 434 1026 400 996 382 934 c 257
 352 934 l 257
EndSplineSet
EndChar

StartChar: uni2113
Encoding: 555 8467 495
Width: 579
VWidth: 0
Flags: HW
PickledData: "(dp1
S'org.robofab.postScriptHintData'
p2
(dp3
s."
LayerCount: 2
Fore
SplineSet
407 -11 m 257
 404 -11 400 -11 397 -11 c 0
 225 -11 164 33 164 157 c 0
 164 187 168 221 174 260 c 258
 321 1157 l 257
 140 1157 l 257
 144 1215 l 257
 394 1215 l 257
 246 272 l 258
 239 230 236 195 236 167 c 0
 236 50 294 39 418 39 c 257
 407 -11 l 257
EndSplineSet
EndChar

StartChar: uni2126
Encoding: 556 8486 496
Width: 1426
VWidth: 0
Flags: HW
PickledData: "(dp1
S'org.robofab.postScriptHintData'
p2
(dp3
s."
LayerCount: 2
Fore
SplineSet
173 0 m 257
 173 55 l 257
 487 55 l 257
 265 187 158 416 158 627 c 256
 158 911 351 1174 713 1174 c 256
 1075 1174 1268 911 1268 627 c 256
 1268 416 1161 187 939 55 c 257
 1253 55 l 257
 1253 0 l 257
 860 0 l 257
 860 57 l 257
 1082 187 1190 421 1190 631 c 256
 1190 885 1030 1113 713 1113 c 256
 395 1113 236 885 236 631 c 256
 236 421 344 187 566 57 c 257
 566 0 l 257
 173 0 l 257
EndSplineSet
EndChar

StartChar: uni2206
Encoding: 557 8710 497
Width: 775
VWidth: 0
Flags: HW
PickledData: "(dp1
S'org.robofab.postScriptHintData'
p2
(dp3
sS'com.typemytype.robofont.layerData'
p4
(dp5
S'b'
(dp6
S'name'
p7
S'uni2206'
p8
sS'lib'
p9
(dp10
sS'unicodes'
p11
(tsS'width'
p12
I679
sS'contours'
p13
(tsS'components'
p14
(tsS'anchors'
p15
(tsss."
LayerCount: 2
Fore
SplineSet
63 0 m 257
 63 60 l 257
 369 1024 l 257
 425 1024 l 257
 731 60 l 257
 731 0 l 257
 63 0 l 257
114 64 m 257
 655 64 l 257
 655 64 389 922 385 938 c 257
 382 922 114 64 114 64 c 257
EndSplineSet
EndChar

StartChar: v
Encoding: 118 118 503
Width: 1054
VWidth: 0
Flags: HW
PickledData: "(dp1
S'org.robofab.postScriptHintData'
p2
(dp3
sS'com.typemytype.robofont.layerData'
p4
(dp5
S'b'
(dp6
S'name'
p7
S'v'
sS'lib'
p8
(dp9
sS'unicodes'
p10
(tsS'width'
p11
I1054
sS'contours'
p12
(tsS'components'
p13
(tsS'anchors'
p14
(tsss."
LayerCount: 2
Fore
SplineSet
491 0 m 1
 162 750 l 1
 17 750 l 1
 17 805 l 1
 405 805 l 1
 405 750 l 1
 241 750 l 1
 535 66 l 1
 819 750 l 1
 658 750 l 1
 658 805 l 1
 1036 805 l 1
 1036 750 l 1
 896 750 l 1
 571 0 l 1
 491 0 l 1
EndSplineSet
EndChar

StartChar: w
Encoding: 119 119 504
Width: 1543
VWidth: 0
Flags: HW
PickledData: "(dp1
S'org.robofab.postScriptHintData'
p2
(dp3
sS'com.typemytype.robofont.layerData'
p4
(dp5
S'b'
(dp6
S'name'
p7
S'w'
sS'lib'
p8
(dp9
sS'unicodes'
p10
(tsS'width'
p11
I1574
sS'contours'
p12
(tsS'components'
p13
(tsS'anchors'
p14
(tsss."
LayerCount: 2
Fore
SplineSet
430 0 m 1
 158 750 l 1
 30 750 l 1
 30 805 l 1
 381 805 l 1
 381 750 l 1
 234 750 l 1
 476 63 l 1
 727 750 l 1
 587 750 l 1
 587 805 l 1
 952 805 l 1
 952 750 l 1
 808 750 l 1
 1064 63 l 1
 1294 750 l 1
 1159 750 l 1
 1159 805 l 1
 1497 805 l 1
 1497 750 l 1
 1366 750 l 1
 1106 0 l 1
 1023 0 l 1
 769 685 l 1
 515 0 l 1
 430 0 l 1
EndSplineSet
EndChar

StartChar: x
Encoding: 120 120 509
Width: 1072
VWidth: 0
Flags: HW
PickledData: "(dp1
S'org.robofab.postScriptHintData'
p2
(dp3
sS'com.typemytype.robofont.layerData'
p4
(dp5
S'b'
(dp6
S'name'
p7
S'x'
sS'lib'
p8
(dp9
sS'unicodes'
p10
(tsS'width'
p11
I1088
sS'contours'
p12
(tsS'components'
p13
(tsS'anchors'
p14
(tsss."
LayerCount: 2
Fore
SplineSet
50 0 m 1
 50 55 l 1
 195 55 l 1
 497 415 l 1
 215 749 l 1
 71 749 l 1
 71 804 l 1
 445 804 l 1
 445 749 l 1
 290 749 l 1
 540 452 l 1
 785 749 l 1
 630 749 l 1
 630 804 l 1
 1019 804 l 1
 1019 749 l 1
 856 749 l 1
 578 413 l 1
 881 55 l 1
 1028 55 l 1
 1028 0 l 1
 638 0 l 1
 638 55 l 1
 807 55 l 1
 534 375 l 1
 270 55 l 1
 418 55 l 1
 418 0 l 1
 50 0 l 1
EndSplineSet
EndChar

StartChar: y
Encoding: 121 121 510
Width: 1069
VWidth: 0
Flags: HW
PickledData: "(dp1
S'org.robofab.postScriptHintData'
p2
(dp3
sS'com.typemytype.robofont.layerData'
p4
(dp5
S'b'
(dp6
S'name'
p7
S'y'
sS'lib'
p8
(dp9
sS'unicodes'
p10
(tsS'width'
p11
I1072
sS'contours'
p12
(tsS'components'
p13
(tsS'anchors'
p14
(tsss."
LayerCount: 2
Fore
SplineSet
230 -262 m 1
 230 -196 l 1
 312 -196 l 2
 430 -196 457 -182 498 -81 c 1
 559 60 l 1
 518 60 l 1
 205 749 l 1
 42 749 l 1
 42 804 l 1
 423 804 l 1
 423 749 l 1
 283 749 l 1
 572 94 l 1
 846 749 l 1
 681 749 l 1
 681 804 l 1
 1053 804 l 1
 1053 749 l 1
 922 749 l 1
 566 -88 l 1
 510 -223 469 -262 316 -262 c 2
 230 -262 l 1
EndSplineSet
EndChar

StartChar: yen
Encoding: 563 165 514
Width: 1444
VWidth: 0
Flags: HW
PickledData: "(dp1
S'org.robofab.postScriptHintData'
p2
(dp3
sS'com.typemytype.robofont.layerData'
p4
(dp5
S'b'
(dp6
S'name'
p7
S'yen'
p8
sS'lib'
p9
(dp10
sS'unicodes'
p11
(tsS'width'
p12
I1477
sS'contours'
p13
(tsS'components'
p14
(tsS'anchors'
p15
(tsss."
LayerCount: 2
Fore
SplineSet
307 222 m 257
 307 271 l 257
 957 271 l 257
 957 222 l 257
 307 222 l 257
307 388 m 257
 307 436 l 257
 957 436 l 257
 957 388 l 257
 307 388 l 257
EndSplineSet
Refer: 137 89 N 1 0 0 1 0 0 2
EndChar

StartChar: z
Encoding: 122 122 516
Width: 938
VWidth: 0
Flags: HW
PickledData: "(dp1
S'org.robofab.postScriptHintData'
p2
(dp3
sS'com.typemytype.robofont.layerData'
p4
(dp5
S'b'
(dp6
S'name'
p7
S'z'
sS'lib'
p8
(dp9
sS'unicodes'
p10
(tsS'width'
p11
I955
sS'contours'
p12
(tsS'components'
p13
(tsS'anchors'
p14
(tsss."
LayerCount: 2
Fore
SplineSet
137 0 m 1
 137 61 l 1
 703 751 l 1
 225 751 l 1
 225 561 l 1
 161 561 l 1
 161 805 l 1
 781 805 l 1
 781 738 l 1
 223 54 l 1
 731 54 l 1
 731 269 l 1
 794 269 l 1
 794 0 l 1
 137 0 l 1
EndSplineSet
EndChar

StartChar: zero
Encoding: 48 48 520
Width: 1092
VWidth: 0
Flags: HW
PickledData: "(dp1
S'org.robofab.postScriptHintData'
p2
(dp3
sS'com.typemytype.robofont.layerData'
p4
(dp5
S'b'
(dp6
S'name'
p7
S'zero'
p8
sS'lib'
p9
(dp10
sS'unicodes'
p11
(tsS'width'
p12
I1090
sS'contours'
p13
(tsS'components'
p14
(tsS'anchors'
p15
(tsss."
LayerCount: 2
Fore
SplineSet
546 32 m 256
 768 32 890 223 890 571 c 256
 890 924 768 1119 546 1119 c 256
 325 1119 203 924 203 570 c 256
 203 223 324 32 543 32 c 0
 544 32 545 32 546 32 c 256
546 -22 m 256
 276 -22 129 189 129 571 c 256
 129 954 276 1174 546 1174 c 256
 817 1174 964 955 964 571 c 256
 964 188 817 -22 546 -22 c 256
EndSplineSet
EndChar
